<svg xmlns="http://www.w3.org/2000/svg" width="439.943" height="456.647" viewBox="0 0 439.943 456.647">
  <g id="Groupe_8" data-name="Groupe 8" transform="translate(346.711 504.938) rotate(-159)">
    <path id="Tracé_4" data-name="Tracé 4" d="M0,0C5.973,5.12,12.022,10.154,17.9,15.376,31.047,27.048,47.26,32.407,63.292,38.568,91.684,49.48,119.629,61.55,147.856,72.9c10.952,4.4,22.163,8.163,33.255,12.217" transform="translate(1.28 152.312)" fill="none" stroke="#000" stroke-linecap="round" stroke-linejoin="round" stroke-width="2"/>
    <path id="Tracé_5" data-name="Tracé 5" d="M123.514,29.438c-.853-.64-1.646-1.729-2.569-1.853-13.426-1.8-26.964-2.95-40.284-5.324C64.771,19.43,48.93,16.083,33.327,11.976,23.257,9.325,13.654,4.9,3.838,1.285,2.573.819,1.28.427,0,0" transform="translate(0 211.83)" fill="none" stroke="#000" stroke-linecap="round" stroke-linejoin="round" stroke-width="2"/>
    <path id="Tracé_6" data-name="Tracé 6" d="M117.114.253C96.635.253,76.124-.454,55.689.5,41.551,1.152,27.494,3.935,13.453,6.1,8.885,6.808,4.48,8.573,0,9.852" transform="translate(5.76 241.655)" fill="none" stroke="#000" stroke-linecap="round" stroke-linejoin="round" stroke-width="2"/>
    <g id="Groupe_9" data-name="Groupe 9" transform="translate(2.56 0)">
      <path id="Tracé_144" data-name="Tracé 144" d="M0,77.413c1.494,5.546,3.41,11.018,4.406,16.652a331.98,331.98,0,0,1,5.181,66.543c-.351,13.441-.928,26.878-1.122,40.321-.018,1.265,1.775,3.3,3.1,3.681,2.635.76,4.555-.353,4.468-3.684-.129-4.9.044-9.813-.051-14.718-.145-7.467-.961-14.966-.512-22.393a248.371,248.371,0,0,0-2.012-53.126C12.076,101.745,10.522,92.8,9.764,83.8a25.872,25.872,0,0,1,2.008-12.036c1-2.294,4.231-3.989,6.82-5.159,35.151-15.891,70.265-31.869,105.6-47.338,19.527-8.549,40.531-11.889,61.4-15.433,8.09-1.374,16.2-2.614,24.323-3.806a10.189,10.189,0,0,1,3.192.591" transform="translate(199.03 175.375)" fill="none" stroke="#000" stroke-linecap="round" stroke-linejoin="round" stroke-width="2"/>
      <path id="Tracé_145" data-name="Tracé 145" d="M88.956,218.869c-1.493-5.547-3.238-11.039-4.439-16.648C76.5,164.8,66.556,127.956,51.147,92.817,39.953,67.289,29.942,41.131,14.019,17.961,9.726,11.713,4.694,5.973,0,0" transform="translate(113.914 8.96)" fill="none" stroke="#000" stroke-linecap="round" stroke-linejoin="round" stroke-width="2"/>
      <path id="Tracé_146" data-name="Tracé 146" d="M3.088,0C2.021,16.212.2,32.418.061,48.639q-.338,38.07,1.3,76.147c.692,15.617,3.272,31.148,4.919,46.727,1.555,14.713,3,29.437,4.493,44.157" transform="translate(192.103 0)" fill="none" stroke="#000" stroke-linecap="round" stroke-linejoin="round" stroke-width="2"/>
      <path id="Tracé_147" data-name="Tracé 147" d="M.491,0c-1.784,9.907,1.643,19.226,4.7,28.083,14.623,42.377,31.294,83.98,49.72,124.86,10.12,22.453,20.457,44.807,30.7,67.206" transform="translate(114.064 11.519)" fill="none" stroke="#000" stroke-linecap="round" stroke-linejoin="round" stroke-width="2"/>
      <path id="Tracé_148" data-name="Tracé 148" d="M204.79,0c-15.671,7.068-32.6,8.778-49.281,11.495-16.408,2.672-32.807,5.456-49.288,7.595C95.2,20.519,84.052,20.944,72.956,21.747c-9.6.7-19.2,1.8-28.8,1.814C29.439,23.583,14.719,22.825,0,22.4" transform="translate(209.91 231.669)" fill="none" stroke="#000" stroke-linecap="round" stroke-linejoin="round" stroke-width="2"/>
      <path id="Tracé_149" data-name="Tracé 149" d="M61.6,122.176c-1.28-2.56-2.164-5.432-3.9-7.632-19.151-24.271-35.127-50.353-46.028-79.4C7.9,25.092,3.953,15.108.234,5.036-.251,3.723.168,2.074.168,0,12.6,7.95,19.051,19.97,27.06,30.65a1181.264,1181.264,0,0,1,84.509,130.538c7.166,12.755,14.912,25.183,22.325,37.8a56.093,56.093,0,0,1,2.588,5.743" transform="translate(65.109 35.896)" fill="none" stroke="#000" stroke-linecap="round" stroke-linejoin="round" stroke-width="2"/>
      <path id="Tracé_150" data-name="Tracé 150" d="M41.065,0c.029,18.978-5.314,37.168-8.488,55.648Q25.9,94.538,17.24,133.08C12.183,155.637,5.853,177.907.147,200.32a16,16,0,0,0-.04,3.83" transform="translate(216.842 7.68)" fill="none" stroke="#000" stroke-linecap="round" stroke-linejoin="round" stroke-width="2"/>
      <path id="Tracé_151" data-name="Tracé 151" d="M197.75,0c1.675,2.827,1.218,4.69-1.875,6.477-7.782,4.5-16.463,5.726-25.019,6.845C148.143,16.29,125.25,16.7,102.4,15.877c-18.794-.68-37.534-2.811-56.327-3.591-13.224-.548-26.236-1.894-39.032-5.25C4.688,6.419,2.347,5.76,0,5.12" transform="translate(0 246.388)" fill="none" stroke="#000" stroke-linecap="round" stroke-linejoin="round" stroke-width="2"/>
      <path id="Tracé_152" data-name="Tracé 152" d="M65.277,57.583C75.3,52.25,85.195,46.642,95.383,41.64c22.952-11.271,45.894-22.586,69.163-33.171C174.365,4,184.607-.16,195.83,0a7.214,7.214,0,0,1,4.581,1.823C184.8,11.241,169.368,20.948,153.558,30c-34.232,19.609-68.377,39.4-103.13,58.056-15.011,8.056-31.446,13.458-47.219,20.1A26.671,26.671,0,0,0,0,110.061" transform="translate(215.669 126.728)" fill="none" stroke="#000" stroke-linecap="round" stroke-linejoin="round" stroke-width="2"/>
      <path id="Tracé_153" data-name="Tracé 153" d="M122.234,0c-2.133,4.693-4.391,9.333-6.38,14.087C95.218,63.42,66.538,108.016,35.166,151.009c-9.605,13.164-19.526,26.1-29.487,39-1.336,1.73-3.76,2.622-5.68,3.9" transform="translate(207.99 39.678)" fill="none" stroke="#000" stroke-linecap="round" stroke-linejoin="round" stroke-width="2"/>
      <path id="Tracé_154" data-name="Tracé 154" d="M191.991,0c-11.093,6.187-21.7,13.552-33.379,18.312-23.984,9.781-48.432,18.466-72.883,27.046A669,669,0,0,1,1.294,68.542C.757,68.655.427,69.757,0,70.4" transform="translate(227.189 173.432)" fill="none" stroke="#000" stroke-linecap="round" stroke-linejoin="round" stroke-width="2"/>
      <path id="Tracé_155" data-name="Tracé 155" d="M0,0C2.774,14.505,5.806,28.969,8.22,43.534a165.532,165.532,0,0,1,2.543,25.583c.282,34.556.1,69.116.145,103.674.006,4.053.4,8.106.612,12.159" transform="translate(197.75 0.64)" fill="none" stroke="#000" stroke-linecap="round" stroke-linejoin="round" stroke-width="2"/>
      <path id="Tracé_156" data-name="Tracé 156" d="M182.391,0c-10.879.213-21.77.184-32.635.705-11.747.564-23.473,1.588-35.2,2.509q-19.206,1.507-38.4,3.2C69.963,6.96,63.8,7.872,57.595,8.281,42.884,9.253,28.157,9.988,13.441,10.9c-4.489.279-8.961.83-13.441,1.257" transform="translate(227.189 232.309)" fill="none" stroke="#000" stroke-linecap="round" stroke-linejoin="round" stroke-width="2"/>
      <path id="Tracé_157" data-name="Tracé 157" d="M3.2,0,0,1.28" transform="translate(219.509 244.468)" fill="none" stroke="#000" stroke-linecap="round" stroke-linejoin="round" stroke-width="2"/>
      <path id="Tracé_158" data-name="Tracé 158" d="M188.791,82.556c-9.813-5.546-19.9-10.668-29.385-16.723-23.475-14.984-48.7-26.495-74.373-36.827C60.89,19.291,36.072,11.249,11.5,2.621,7.813,1.327,3.84.853,0,0" transform="translate(2.56 154.232)" fill="none" stroke="#000" stroke-linecap="round" stroke-linejoin="round" stroke-width="2"/>
      <path id="Tracé_159" data-name="Tracé 159" d="M46.078,0C40.318,13.226,33.813,26.185,28.96,39.736,19.97,64.844,14.1,90.833,9.611,117.116,6.99,132.464,4.48,147.833,1.92,163.192L0,174.711" transform="translate(210.55 10.879)" fill="none" stroke="#000" stroke-linecap="round" stroke-linejoin="round" stroke-width="2"/>
      <path id="Tracé_160" data-name="Tracé 160" d="M70.4,78.076C63.144,70.823,55.5,63.912,48.714,56.249,32.266,37.686,16.213,18.772,0,0" transform="translate(130.554 161.912)" fill="none" stroke="#000" stroke-linecap="round" stroke-linejoin="round" stroke-width="2"/>
      <path id="Tracé_161" data-name="Tracé 161" d="M111.413,79.305Q92.534,62.345,73.65,45.392C55.261,28.95,34.756,15.5,13.471,3.2,9.586.949,5.427-1.21,0,.793,8.228,11.37,15.188,22.107,23.918,31.132c14.045,14.519,28.514,28.82,44.153,41.556C90.85,91.238,114.913,108.2,138.248,126.08c9.013,6.9,17.546,14.437,26.253,21.736.44.369.456,1.245.669,1.885" transform="translate(18.501 81.967)" fill="none" stroke="#000" stroke-linecap="round" stroke-linejoin="round" stroke-width="2"/>
      <path id="Tracé_162" data-name="Tracé 162" d="M120.954,0C102.043,19.281,87.53,41.92,72.364,64.029c-22.17,32.319-41.267,66.433-58.3,101.716-3.318,6.873-6.717,13.711-10.327,20.432-.554,1.03-2.459,1.334-3.739,1.974" transform="translate(206.07 42.238)" fill="none" stroke="#000" stroke-linecap="round" stroke-linejoin="round" stroke-width="2"/>
      <path id="Tracé_163" data-name="Tracé 163" d="M6.4,157.633c19.413-15.572,39.373-30.518,58.1-46.88,22.151-19.36,43.642-39.526,64.64-60.136C143.921,36.1,155.365,18.775,165.288,0c-4.965,3.054-10.112,5.849-14.863,9.206C131.819,22.352,114,36.494,97.941,52.7,74.376,76.5,50.728,100.218,27.634,124.464,17.009,135.618,6.722,147.283,0,161.473" transform="translate(214.389 74.675)" fill="none" stroke="#000" stroke-linecap="round" stroke-linejoin="round" stroke-width="2"/>
      <path id="Tracé_164" data-name="Tracé 164" d="M63.357,3.2c-4.693,0-9.4.231-14.077-.042C32.848,2.2,16.426,1.066,0,0" transform="translate(131.194 241.908)" fill="none" stroke="#000" stroke-linecap="round" stroke-linejoin="round" stroke-width="2"/>
      <path id="Tracé_165" data-name="Tracé 165" d="M30.718,0Q19.2,8,7.675,15.992C5.145,17.741,2.56,19.412,0,21.119" transform="translate(220.149 206.07)" fill="none" stroke="#000" stroke-linecap="round" stroke-linejoin="round" stroke-width="2"/>
      <path id="Tracé_166" data-name="Tracé 166" d="M1.28,0Q.641,1.6,0,3.2" transform="translate(208.63 186.871)" fill="none" stroke="#000" stroke-linecap="round" stroke-linejoin="round" stroke-width="2"/>
      <path id="Tracé_167" data-name="Tracé 167" d="M1.28,0,0,2.56" transform="translate(207.35 202.23)" fill="none" stroke="#000" stroke-linecap="round" stroke-linejoin="round" stroke-width="2"/>
      <path id="Tracé_168" data-name="Tracé 168" d="M3.237,0C.471,4.925-1.758,9.895,1.957,15.359" transform="translate(204.113 212.47)" fill="none" stroke="#000" stroke-linecap="round" stroke-linejoin="round" stroke-width="2"/>
      <path id="Tracé_169" data-name="Tracé 169" d="M1.28,0,0,1.92" transform="translate(206.07 235.508)" fill="none" stroke="#000" stroke-linecap="round" stroke-linejoin="round" stroke-width="2"/>
      <path id="Tracé_170" data-name="Tracé 170" d="M0,0V10.24" transform="translate(206.71 216.309)" fill="none" stroke="#000" stroke-linecap="round" stroke-linejoin="round" stroke-width="2"/>
      <path id="Tracé_171" data-name="Tracé 171" d="M0,0V5.12" transform="translate(206.71 206.07)" fill="none" stroke="#000" stroke-linecap="round" stroke-linejoin="round" stroke-width="2"/>
      <path id="Tracé_172" data-name="Tracé 172" d="M0,0V5.12" transform="translate(207.99 206.07)" fill="none" stroke="#000" stroke-linecap="round" stroke-linejoin="round" stroke-width="2"/>
      <path id="Tracé_173" data-name="Tracé 173" d="M0,0,4.48,5.76" transform="translate(206.07 238.708)" fill="none" stroke="#000" stroke-linecap="round" stroke-linejoin="round" stroke-width="2"/>
      <path id="Tracé_174" data-name="Tracé 174" d="M1.726,0c-2.6,1.706-1.985,3.413,0,5.12" transform="translate(202.424 231.669)" fill="none" stroke="#000" stroke-linecap="round" stroke-linejoin="round" stroke-width="2"/>
    </g>
  </g>
</svg>
