<svg xmlns="http://www.w3.org/2000/svg" width="1304.943" height="1264.835" viewBox="0 0 1304.943 1264.835">
  <g id="Groupe_12" data-name="Groupe 12" transform="translate(328.422 554.504)">
    <g id="Groupe_1" data-name="Groupe 1" transform="matrix(-0.559, 0.829, -0.829, -0.559, 226.736, -192.225)">
      <path id="Tracé_1" data-name="Tracé 1" d="M13.885,0c5.258.526,10.506,1.312,15.777,1.525,12.614.511,25.271.325,37.842,1.309a18.9,18.9,0,0,1,13.666,7.7c2.278,3.091,1.353,4.927-2.605,5.777-10.312,2.213-20.659.986-31.03.623-6.29-.22-12.792-.216-18.891,1.105C13.089,21.4,6.635,33.56,2.355,47.336c-.627,2.018-.16,4.559-1.208,6.224a7.039,7.039,0,0,0,1.415,9.248c2.017,1.7,6.3,1.9,9.168,1.148a88.1,88.1,0,0,0,15.8-6.177c10.539-5.106,21.09-10.149,32.645-12.493a54.737,54.737,0,0,1,11.553-.979c1.413.019,2.806,1.614,4.208,2.491-.876,1.227-1.484,3.025-2.674,3.585-6.037,2.838-12.165,5.505-18.371,7.953C41.52,63.605,28.2,68.851,17.011,78.314c-8.7,7.358-13.468,16.564-13.566,27.9A26.687,26.687,0,0,0,10.757,124.6c4.385,4.856,11.232,5.347,15.648.46a198.026,198.026,0,0,0,16.81-21.022A82.927,82.927,0,0,1,65,81.661c3.008-2.043,7.207-2.7,10.958-3.107,1.62-.175,4.146,1.527,5.013,3.074.622,1.111-.273,4.048-1.445,5.024-7,5.83-14.26,11.355-21.473,16.93-11.523,8.906-24.083,16.553-33.155,28.376S16.2,153.7,22.943,166.1a35.273,35.273,0,0,0,8.38,9.953c6.784,5.63,15.167,4.243,19.183-3.673a73.78,73.78,0,0,0,6.334-19.392c1.743-9.125,4.746-17.22,12.26-23.1,6.3-4.927,12.521-9.951,18.982-14.652a16.714,16.714,0,0,1,7.331-3.049c1.8-.237,4.1.853,5.7,2.005,2.567,1.844,1.012,4.092-.506,5.661-5.859,6.056-11.416,12.532-17.94,17.791-11.471,9.248-21.046,19.69-27.32,33.217-7.6,16.4-.55,28.257,12.755,35.693,6.855,3.831,12.771-.227,14.083-9.373,1.519-10.587,3.432-21.025,7.392-31.027,2.984-7.537,7.079-14.272,14.318-18.224,2.025-1.106,6.192-1.195,7.507.12s1.322,5.662.108,7.478c-5,7.475-10.852,14.376-16.078,21.709-6.588,9.245-10.946,19.363-11.117,30.994-.1,6.562,2.6,11.708,8.516,14.019,4.918,1.923,10.435,2.356,15.723,3.226.57.094,1.644-1.172,2.044-2.016,2.767-5.848,1-11.942.449-17.847-.787-8.463,1.746-16.043,8.73-20.213-1.231,6.649-2.239,12.384-3.368,18.1-.974,4.923-3.3,9.919-2.9,14.707,1.055,12.783,12.219,21.489,26.051,14.2,6.522-3.435,12.944-7.062,19.486-10.459a19.59,19.59,0,0,1,5.24-1.594c4.4-.864,6.1-4.224,6.2-7.92.347-12.507-2.346-23.746-12.928-32.211-5.25-4.2-10.905-8.7-11.284-16.681-.113-2.372-.759-4.812,1.764-5.613,1.441-.458,3.8.424,5.142,1.475,6.8,5.331,10.951,12.726,14.154,20.474,4.274,10.344,7.806,20.994,11.682,31.5.541,1.467,1.221,2.882,2.207,5.188,6.887-8.569,13.451-16.557,14.493-27.281.69-7.1-2.928-13.313-6.816-18.851-8.275-11.789-17.151-23.153-25.625-34.8A74.475,74.475,0,0,1,157,125.1c-.736-1.473-.443-3.459-.618-5.212,2.279,0,5.495-.961,6.662.178a52.269,52.269,0,0,1,9.51,11.986c4.651,8.521,8.29,17.591,12.832,26.177,3.46,6.541,6.665,13.455,13.581,17.411,4.032,2.306,8.17,2.186,11.577-.541,10.524-8.426,12.52-29.363,2.142-38.429a57.477,57.477,0,0,1-14.882-20.937c-2.9-6.7-8.451-11.026-15.056-14.394a79.1,79.1,0,0,1-14.2-9.932c-3.494-2.9-3.813-7.068-1.649-9.9A10.3,10.3,0,0,1,178.49,78.29c6.536,2.309,10.381,7.368,14.2,12.662,12.753,17.685,25.6,35.3,38.548,53.122,6.794-9.9,9.994-20.547,11.816-31.562,1.655-10-3.89-17.547-9.9-24.7-8.94-10.636-20.436-18.186-32.214-25-6.034-3.489-13.59-4.281-20.34-6.631-2.939-1.023-5.581-2.9-9.112-4.794,7.814-6.17,15.106-4.7,22.2-1.9,9.559,3.782,17.463,10.2,24.693,17.332,6.881,6.788,13.369,13.974,20.029,20.985" transform="translate(0 50.569)" fill="none" stroke="#000" stroke-linecap="round" stroke-linejoin="round" stroke-width="2"/>
      <path id="Tracé_2" data-name="Tracé 2" d="M128.3,258.272c-1.052-16.827-2.225-33.647-3.111-50.482-.58-11.03-.712-22.083-1.1-33.125q-1.549-43.908-3.163-87.813c-.253-6.839-.67-13.673-1.051-20.507-.079-1.408.191-3.331-.6-4.122-5.393-5.416-4.6-12.4-5.139-19.018-.358-4.367-.314-8.765-.576-13.141-.463-7.72-4.206-13.665-10.528-17.839A75.228,75.228,0,0,0,71.5.182a15.907,15.907,0,0,0-13.633,4.14c-2.935,2.845-5.439,6.154-8.49,8.855C45.737,16.4,42.1,20.051,37.786,22.011,25.553,27.56,16.02,36.5,6.312,45.312,4.2,47.23,2.1,49.166,0,51.095" transform="translate(11.781 0)" fill="none" stroke="#000" stroke-linecap="round" stroke-linejoin="round" stroke-width="2"/>
      <path id="Tracé_3" data-name="Tracé 3" d="M106.218,129.771c5.058-13.328,7.812-26.841,3.7-41.02-3.155-10.877-10.9-16.2-22.092-16.985-12.822-.9-25.887-.034-38.4-4.037-1.215-.389-2.624-.443-3.646-1.108-2.688-1.75-2.9-4-.549-6.248,5-4.781,11.139-5.431,17.3-3.56,4.758,1.444,9.124,4.145,13.724,6.15a67.456,67.456,0,0,0,7.355,2.64c8.745,2.657,15.342-3.258,13.69-12.08A30.647,30.647,0,0,0,84.021,33.187C73.669,26.3,65.245,17.6,57.365,8.262c-7.6-9-16.442-10.175-26.891-5.8C22.886,5.636,15.426,8.866,8.908,14.049,3.359,18.46,1.292,23.936,2.03,30.923a101.675,101.675,0,0,1,.47,15.76C2.364,49.35.877,51.948,0,54.578" transform="translate(132.196 6.508)" fill="none" stroke="#000" stroke-linecap="round" stroke-linejoin="round" stroke-width="2"/>
    </g>
    <g id="Groupe_2" data-name="Groupe 2" transform="translate(107.68 -553.553)">
      <path id="Tracé_7" data-name="Tracé 7" d="M496.724-307.5c10.455-1.525,21.033-2.481,31.339-4.7,18.388-3.957,32.851-14.031,43.2-29.9,1.846-2.831,3.858-5.952,6.583-7.724,5.305-3.45,8.895-1.837,8.748,4.419-.148,6.349-2.167,12.851-4.384,18.915-5.494,15.031-13.056,28.741-27.994,36.617C542.53-283.712,529.976-280.255,517-278a39.061,39.061,0,0,0-11.716,3.942c-5.833,3.15-5.188,9.287.546,13.022,6.689,4.357,14.222,3.318,20.905,2.237,15.9-2.571,31.844-6.058,43.2-19.277a4.072,4.072,0,0,1,1.951-1.28c1.488-.366,3.038-.48,4.563-.7,0,1.307.411,2.8-.073,3.888-1.775,4-2.982,8.772-5.958,11.638-12.455,12-19.207,27.62-27.928,41.989-4.875,8.034-9.728,16.152-17.705,21.489-8.914,5.964-16.541,5.157-24.793-1.892-1.06-.906-2.174-1.747-3.263-2.618" transform="translate(-333.411 457.038)" fill="none" stroke="#000" stroke-linecap="round" stroke-linejoin="round" stroke-width="2"/>
      <path id="Tracé_8" data-name="Tracé 8" d="M477.357-150.943c-9.583-11.98-19.12-24-28.8-35.9-1.633-2.009-3.875-3.523-5.835-5.265" transform="translate(-314.697 401.764)" fill="none" stroke="#000" stroke-linecap="round" stroke-linejoin="round" stroke-width="2"/>
      <path id="Tracé_9" data-name="Tracé 9" d="M409.664-193.11c-11.082,2.149-16.132,10.7-20.924,19.6-4.948,9.181-10.006,18.3-15.016,27.452" transform="translate(-290.785 402.11)" fill="none" stroke="#000" stroke-linecap="round" stroke-linejoin="round" stroke-width="2"/>
      <path id="Tracé_10" data-name="Tracé 10" d="M324.51-159.542c-12.37,8.407-26.962,4.807-37.974-8.433-15.558-18.7-24.325-40.936-33.907-62.792-1.883-4.3-3.8-8.575-5.83-13.145,6.684-2.875,12.251-.423,17.559,2.111,7.116,3.4,13.857,7.584,20.991,10.938,4.334,2.037,9.1,3.144,13.678,4.669" transform="translate(-246.798 420.165)" fill="none" stroke="#000" stroke-linecap="round" stroke-linejoin="round" stroke-width="2"/>
      <path id="Tracé_11" data-name="Tracé 11" d="M335.724-218.536l11.762-4.574" transform="translate(-277.616 412.507)" fill="none" stroke="#000" stroke-linecap="round" stroke-linejoin="round" stroke-width="2"/>
      <path id="Tracé_12" data-name="Tracé 12" d="M495.724-314.795c12.851-10.019,25.845-19.863,38.5-30.123,7.9-6.406,15.3-13.44,22.922-20.192" transform="translate(-333.064 461.717)" fill="none" stroke="#000" stroke-linecap="round" stroke-linejoin="round" stroke-width="2"/>
      <path id="Tracé_13" data-name="Tracé 13" d="M595.724-383.546c5.413-6.253,9.374-13.211,10.455-21.564" transform="translate(-367.719 475.58)" fill="none" stroke="#000" stroke-linecap="round" stroke-linejoin="round" stroke-width="2"/>
      <path id="Tracé_14" data-name="Tracé 14" d="M586.772-425.268c-1.043-7.291-4.829-13.183-9.849-18.249-4.2-4.24-7.58-3.7-10.3,1.966-2.28,4.752-4.39,9.844-5.186,15-2.185,14.15-9.907,25.045-19.094,35.27-.931,1.036-1.751,2.171-2.622,3.26" transform="translate(-348.312 489.856)" fill="none" stroke="#000" stroke-linecap="round" stroke-linejoin="round" stroke-width="2"/>
      <path id="Tracé_15" data-name="Tracé 15" d="M490.563-405.237c-5.445,3.7-10.529,8.247-16.469,10.8-3.689,1.586-9.528,1.472-12.1-3.062a10.573,10.573,0,0,1,1.144-12.3c6.25-7.462,12.663-14.786,18.916-22.245,6.163-7.352,13.108-14.242,18.134-22.315,12.544-20.147,7.806-31.8-11.056-42.806-11.094-6.473-22.558-12.536-35.778-14.81-13.493-2.32-25.574-.791-36.632,7.41" transform="translate(-305.686 512.953)" fill="none" stroke="#000" stroke-linecap="round" stroke-linejoin="round" stroke-width="2"/>
      <path id="Tracé_16" data-name="Tracé 16" d="M411.408-499.11c-8.948,8.652-9.8,18.641-6.016,30.1,3.67,11.122,6.155,22.63,9.327,33.922,1.063,3.785,2.816,8.245-1.5,10.113-2.172.94-5.946-1.824-9-2.913" transform="translate(-301.024 508.155)" fill="none" stroke="#000" stroke-linecap="round" stroke-linejoin="round" stroke-width="2"/>
      <path id="Tracé_17" data-name="Tracé 17" d="M380.288-437.056c-7.264-9.194-9.835-20.118-11.027-31.374-1.057-9.978-1.417-20.028-2.131-30.748l-8.406,3.312" transform="translate(-285.586 508.179)" fill="none" stroke="#000" stroke-linecap="round" stroke-linejoin="round" stroke-width="2"/>
      <path id="Tracé_18" data-name="Tracé 18" d="M348.543-486.11c-1.96,5.663-5.21,11.229-5.647,17.007-1.513,20,1.375,38.819,18.691,52.291a18.388,18.388,0,0,1,2.639,3.234" transform="translate(-279.98 503.65)" fill="none" stroke="#000" stroke-linecap="round" stroke-linejoin="round" stroke-width="2"/>
      <path id="Tracé_19" data-name="Tracé 19" d="M383.724-366.11c3.7,4.574,7.532,9.053,11.076,13.747,4.132,5.474,4.873,11.7,3.3,18.272" transform="translate(-294.25 462.064)" fill="none" stroke="#000" stroke-linecap="round" stroke-linejoin="round" stroke-width="2"/>
      <path id="Tracé_20" data-name="Tracé 20" d="M350.681-360.08c-13-2.327-21.943-10.607-30.083-20.236-14-16.562-23.309-35.936-33.294-54.914-1.179-2.241-2.271-4.528-3.887-7.758-9.78,9.156-14.574,19.17-13.818,31.942,1.273,21.521,13.032,35.911,30.774,46.379,12.24,7.221,25.855,12.318,35.887,22.926,3.107,3.285,7.935,5.484,7.886,11.066" transform="translate(-254.673 488.706)" fill="none" stroke="#000" stroke-linecap="round" stroke-linejoin="round" stroke-width="2"/>
      <path id="Tracé_21" data-name="Tracé 21" d="M430.724-192.11q.327,6.861.654,13.722" transform="translate(-310.538 401.764)" fill="none" stroke="#000" stroke-linecap="round" stroke-linejoin="round" stroke-width="2"/>
      <path id="Tracé_22" data-name="Tracé 22" d="M431.724-164.11q1.308,12.088,2.614,24.178" transform="translate(-310.885 392.06)" fill="none" stroke="#000" stroke-linecap="round" stroke-linejoin="round" stroke-width="2"/>
      <path id="Tracé_23" data-name="Tracé 23" d="M435.724-110.11c.218,2.178.623,4.356.626,6.534.039,37.464-.031,74.929.086,112.393.019,6.1.748,12.2,1.293,18.293a9.715,9.715,0,0,0,1.341,4.523c1.3,1.884,2.445,4.347,5.84,2.748,3.533-1.664,1.276-3.435.623-5.31-4.455-12.785-4.709-25.925-3.274-39.2" transform="translate(-312.271 373.347)" fill="none" stroke="#000" stroke-linecap="round" stroke-linejoin="round" stroke-width="2"/>
      <path id="Tracé_24" data-name="Tracé 24" d="M445.724-16.695V-29.11" transform="translate(-315.736 345.276)" fill="none" stroke="#000" stroke-linecap="round" stroke-linejoin="round" stroke-width="2"/>
      <path id="Tracé_25" data-name="Tracé 25" d="M445.031-120.239q-.653-11.436-1.307-22.871" transform="translate(-315.043 384.783)" fill="none" stroke="#000" stroke-linecap="round" stroke-linejoin="round" stroke-width="2"/>
      <path id="Tracé_26" data-name="Tracé 26" d="M442.338-162.932q-1.307-12.089-2.614-24.178" transform="translate(-313.657 400.031)" fill="none" stroke="#000" stroke-linecap="round" stroke-linejoin="round" stroke-width="2"/>
      <path id="Tracé_27" data-name="Tracé 27" d="M439.373-251.9c-.218-4.139-.526-8.275-.637-12.416-.446-16.562,5.055-32.036,9.276-47.662,3.84-14.213,7.708-28.312,7.726-43.166a6.856,6.856,0,0,1,.625-1.96" transform="translate(-313.306 458.945)" fill="none" stroke="#000" stroke-linecap="round" stroke-linejoin="round" stroke-width="2"/>
      <path id="Tracé_28" data-name="Tracé 28" d="M465.724-383.784c.218-8.712.4-17.426.676-26.137.075-2.4.414-4.792.631-7.189" transform="translate(-322.667 479.738)" fill="none" stroke="#000" stroke-linecap="round" stroke-linejoin="round" stroke-width="2"/>
      <path id="Tracé_29" data-name="Tracé 29" d="M467.724-448.853q1.634-10.128,3.267-20.257" transform="translate(-323.361 497.759)" fill="none" stroke="#000" stroke-linecap="round" stroke-linejoin="round" stroke-width="2"/>
      <path id="Tracé_30" data-name="Tracé 30" d="M255.157-349.11c-10.206,13.711-7.872,26.648.821,40.409,3.566,5.646,8.981,10.125,13.555,15.135" transform="translate(-247.364 456.173)" fill="none" stroke="#000" stroke-linecap="round" stroke-linejoin="round" stroke-width="2"/>
      <path id="Tracé_31" data-name="Tracé 31" d="M287.724-258.11a113.362,113.362,0,0,0,33.964,20.3,50.988,50.988,0,0,1,5.9,3.228" transform="translate(-260.981 424.636)" fill="none" stroke="#000" stroke-linecap="round" stroke-linejoin="round" stroke-width="2"/>
      <path id="Tracé_32" data-name="Tracé 32" d="M260.654-354.11c0,.871-.327,1.928.048,2.587,13.557,23.9,35.2,38.228,59.534,48.765,6.634,2.872,14.694,2.448,22.1,3.538" transform="translate(-251.554 457.905)" fill="none" stroke="#000" stroke-linecap="round" stroke-linejoin="round" stroke-width="2"/>
    </g>
    <g id="Groupe_3" data-name="Groupe 3" transform="matrix(0.208, -0.978, 0.978, 0.208, 537.241, 226.975)">
      <path id="Tracé_33" data-name="Tracé 33" d="M0,238.256c3.275-9.552,5.7-19.507,9.987-28.58,12.383-26.2,26.315-51.617,35.18-79.451C58.345,88.854,73.036,47.942,80.2,4.907A30.268,30.268,0,0,0,80.237,0" transform="translate(9.075 158.837)" fill="none" stroke="#000" stroke-linecap="round" stroke-linejoin="round" stroke-width="2"/>
      <path id="Tracé_34" data-name="Tracé 34" d="M0,150.65c1.911-8.187,4.187-16.309,5.657-24.576,3.243-18.242,6.167-36.543,9.055-54.847,2.581-16.355,4.942-32.745,7.392-49.121Q23.759,11.056,25.381,0" transform="translate(89.313 0.819)" fill="none" stroke="#000" stroke-linecap="round" stroke-linejoin="round" stroke-width="2"/>
      <path id="Tracé_35" data-name="Tracé 35" d="M0,326.68c24.326-32.188,38.4-68.835,45.608-108.119,2.6-14.188,3.091-28.872,3.372-43.352.512-26.292-6.187-35.3-30.968-44.21C3.493,125.778-1.5,117.269,1.677,102.352c3.374-15.866,8.189-31.517,10.3-47.535C14.374,36.7,14.465,18.286,15.556,0" transform="translate(101.594 0)" fill="none" stroke="#000" stroke-linecap="round" stroke-linejoin="round" stroke-width="2"/>
      <path id="Tracé_36" data-name="Tracé 36" d="M26.784,162.112c-5.185,3.275-10.191,6.9-15.625,9.691C8.041,173.4,4.828,177.554,0,173.221c24.208-13.349,31.337-37.441,39.025-61.065,11.618-35.7,22.943-71.5,34.493-107.222.583-1.8,2.118-3.3,3.209-4.934" transform="translate(10.129 158.837)" fill="none" stroke="#000" stroke-linecap="round" stroke-linejoin="round" stroke-width="2"/>
      <path id="Tracé_37" data-name="Tracé 37" d="M5.8,100.706C.365,103.182-.391,99.666.144,95.8c1.708-12.309,3.1-24.716,5.8-36.822A147.876,147.876,0,0,1,30.285,4.857c.867-1.213.624-3.219.9-4.857" transform="translate(0 324.224)" fill="none" stroke="#000" stroke-linecap="round" stroke-linejoin="round" stroke-width="2"/>
      <path id="Tracé_38" data-name="Tracé 38" d="M27.851,51.4C22.666,42.943,17.456,34.5,12.3,26.017,8.171,19.218,4.008,12.432.133,5.487-.383,4.562.718,2.735,1.4,0,17.619,13.545,29.757,28.072,31.945,48.947" transform="translate(50.818 312.939)" fill="none" stroke="#000" stroke-linecap="round" stroke-linejoin="round" stroke-width="2"/>
      <path id="Tracé_39" data-name="Tracé 39" d="M0,103.981c2.73,6,5.748,11.9,8.106,18.044,2.34,6.1,5.609,5.587,9,1.536a116.9,116.9,0,0,0,9.061-13.048C34.4,97.419,43.65,85.541,58.041,78.418c3.752-1.857,9.109-3.965,7.6-10.494-.2-.856,1.437-2.2,2.327-3.234,5.438-6.295,10.8-12.655,16.39-18.816,7.074-7.8,4.169-12.36-1.737-18.787C77.8,21.84,71.824,17.6,67.326,12.126,64.659,8.879,63.862,4.094,62.225,0" transform="translate(13.169 299.662)" fill="none" stroke="#000" stroke-linecap="round" stroke-linejoin="round" stroke-width="2"/>
      <path id="Tracé_40" data-name="Tracé 40" d="M25.381,23.744C19.2,13.388,10.057,6.209,0,0" transform="translate(76.213 299.662)" fill="none" stroke="#000" stroke-linecap="round" stroke-linejoin="round" stroke-width="2"/>
      <path id="Tracé_41" data-name="Tracé 41" d="M4.094,4.094,0,0" transform="translate(67.206 289.837)" fill="none" stroke="#000" stroke-linecap="round" stroke-linejoin="round" stroke-width="2"/>
    </g>
    <g id="Groupe_4" data-name="Groupe 4" transform="translate(728.038 684.09) rotate(155)">
      <path id="Tracé_42" data-name="Tracé 42" d="M55.48,37.118c-3-3.549-6.462-6.805-8.924-10.7C37.8,12.573,24.588,5.181,9.594.387,7.094-.412,4.117.274,0,.274,13.491,29.265,27.6,56.11,50.581,77.223a9.251,9.251,0,0,0,2.453,1.63C59.468,81.707,63.189,86,64.021,93.572c.385,3.5,3.908,7.729,7.17,9.592,4.709,2.69,4.551,5.309,4.2,10.115-1.019,14.138-2.332,28.544-.68,42.508,1.852,15.657.168,31.184,1.267,46.715,1.506,21.3,3.253,42.577,4.874,63.865.581,7.639.858,15.31,1.7,22.919,1.446,13.121,3.24,26.2,4.85,39.306.6,4.906,1.1,9.824,1.646,14.737" transform="translate(0 110.257)" fill="none" stroke="#000" stroke-linecap="round" stroke-linejoin="round" stroke-width="2"/>
      <path id="Tracé_43" data-name="Tracé 43" d="M16.579,0C1.964,20.547-2.888,42.987,1.626,67.995c2.668,14.78,7.143,28.209,16.3,40.3,1.971,2.6,1.136,8.192.13,12.022-3.116,11.849-6.938,23.513-10.486,35.248" transform="translate(69.194 47.487)" fill="none" stroke="#000" stroke-linecap="round" stroke-linejoin="round" stroke-width="2"/>
      <path id="Tracé_44" data-name="Tracé 44" d="M0,0C5.458,9.279,11.089,18.462,16.343,27.855c15.3,27.363,11.785,64.01-13.068,84.313" transform="translate(85.774 44.212)" fill="none" stroke="#000" stroke-linecap="round" stroke-linejoin="round" stroke-width="2"/>
      <path id="Tracé_45" data-name="Tracé 45" d="M22.822,0C14.69,15.645,5.448,30.638,1.325,48.257c-4.656,19.9,3.184,45.193,20,56.337,4.534,3.007,5.118,6.16,5.814,10.817,1.08,7.22,3.723,14.2,5.436,21.338.495,2.065.075,4.349.075,6.532" transform="translate(22.833 3.275)" fill="none" stroke="#000" stroke-linecap="round" stroke-linejoin="round" stroke-width="2"/>
      <path id="Tracé_46" data-name="Tracé 46" d="M1.638,0Q.82,7.778,0,15.556" transform="translate(62.03 178.487)" fill="none" stroke="#000" stroke-linecap="round" stroke-linejoin="round" stroke-width="2"/>
      <path id="Tracé_47" data-name="Tracé 47" d="M0,0C3,9.825,6.931,19.476,8.821,29.509c4.483,23.8,4.558,47.682-2.375,71.166-.873,2.955-3.171,5.49-4.808,8.219" transform="translate(46.474 0)" fill="none" stroke="#000" stroke-linecap="round" stroke-linejoin="round" stroke-width="2"/>
      <path id="Tracé_48" data-name="Tracé 48" d="M63.044,0c-2.457,1.637-4.739,3.665-7.4,4.851C30.758,15.958,13.875,33.974,6.471,60.565c-1.906,6.846-.14,13.05,2.7,18.773,3.5,7.071,2.107,12.324-3.4,17.314A75.9,75.9,0,0,0,0,103.162" transform="translate(78.405 167.843)" fill="none" stroke="#000" stroke-linecap="round" stroke-linejoin="round" stroke-width="2"/>
      <path id="Tracé_49" data-name="Tracé 49" d="M46.668,0c-.024,24.182-8.456,45.02-25.452,62.153C14.557,68.866,7.1,74.779,0,81.056" transform="translate(90.687 172.756)" fill="none" stroke="#000" stroke-linecap="round" stroke-linejoin="round" stroke-width="2"/>
      <path id="Tracé_50" data-name="Tracé 50" d="M0,0C3.821,8.46,8.218,16.727,11.159,25.483c1.07,3.188-1.334,7.54-2.153,11.361" transform="translate(66.124 178.487)" fill="none" stroke="#000" stroke-linecap="round" stroke-linejoin="round" stroke-width="2"/>
    </g>
    <g id="Groupe_5" data-name="Groupe 5" transform="matrix(0.07, 0.998, -0.998, 0.07, 931.017, -263.012)">
      <path id="Tracé_51" data-name="Tracé 51" d="M1.4,0C10.977,11.21,20.5,22.468,30.142,33.615c9.7,11.21,23.8,15.909,35.658,23.92A118.36,118.36,0,0,1,81.141,70.2c1.532,1.466,1.531,4.534,2.231,6.87-2.568.233-5.328,1.194-7.675.58-13.321-3.483-23.292-12.608-33.611-20.96C32.049,48.564,22.352,40.011,12.633,31.5,5.057,24.87.624,16.639.667,6.305A34.255,34.255,0,0,0,0,1.4" transform="translate(30.505 123.12)" fill="none" stroke="#000" stroke-linecap="round" stroke-linejoin="round" stroke-width="2"/>
      <path id="Tracé_52" data-name="Tracé 52" d="M2.126,118.216c-4.643-7.112-.643-13.462,2.187-19.578,9.148-19.767,20.108-38.281,38.47-51.154.749-.525,1.81-.6,3.441-1.117-.478,5.793-.328,11.279-1.491,16.471C42.7,71.911,46,79.688,50.618,86.588c11.456,17.119,23.2,34.09,35.79,50.383,5.781,7.485,13.593,13.493,20.962,19.594,1.777,1.472,5.452.652,8.255.885.234-2.8,1.569-6.162.488-8.3-2.876-5.689-5.879-11.86-10.475-16.024C93.909,122.5,84.3,110.374,75.567,97.279c-5.9-8.837-13.235-16.7-19.414-25.361-5.948-8.341-6.891-18.5-1.176-26.343C65.916,30.557,78.993,17.253,97.422,11.061a15.773,15.773,0,0,1,8.7-.517c-2.2,2.961-4.494,5.864-6.6,8.9-6.425,9.259-5.564,19.7-2.575,29.339,5.227,16.852,12.617,32.9,23.579,47.015.918,1.181,1.633,2.776,2.844,3.423,3.662,1.953,6.466,6.577,11.937,2.992,5.5-3.606,4.183-8.6,2.535-12.638-3.819-9.36-8.716-18.278-13.1-27.409-4.254-8.85-9.223-17.469-12.372-26.7-2.6-7.632-4.85-16.624,1.311-23.594,7.112-8.044,16.9-8.675,27.18-7.263,10.26,1.41,20.914,3.27,28.718-4.6,5.212,3.255,10.078,6.913,15.453,9.522,11.317,5.5,14.929,14.878,12.034,28.16-3.18,14.6-9.456,28.007-14.066,42.038-.831,2.529-1.1,6.109.084,8.257,2.582,4.68,8.555,4.026,11.489-2.1a125.025,125.025,0,0,0,8.479-24.452c3.064-12.619,5.152-25.474,7.66-38.262C221.187,28.8,231.6,36.25,239.643,46.746c8.246,10.768,6.842,22.261,2.005,33.6-6.558,15.373-16.572,28.51-27.917,40.692q-9.633,10.345-18.88,21.049a17.093,17.093,0,0,0-2.8,5.576,25.93,25.93,0,0,0-.762,4.883c2.1,0,4.906.868,6.177-.16a78.977,78.977,0,0,0,11.283-11.1,297.525,297.525,0,0,0,45.529-76.348c.295-.717-.4-1.841-.633-2.775" transform="translate(28.38 0)" fill="none" stroke="#000" stroke-linecap="round" stroke-linejoin="round" stroke-width="2"/>
      <path id="Tracé_53" data-name="Tracé 53" d="M28.4,0C16.93,9.443,12.843,22.682,10.325,36.457,9.07,43.319,9.242,50.443,8.789,57.45,7.551,76.6,17.269,88.942,34.071,95.832c13.235,5.427,27.089,9.329,40.551,14.226a189.614,189.614,0,0,1,23.492,10.486c-7.469,3.823-14.416,1.066-21.362-.074-22.146-3.634-42.34-12.75-62.4-22.3C10.024,96.113,5.214,94.337,0,97.257c5.4,6.987,10.935,13.484,15.72,20.495,9.361,13.716,12.885,29.735,16.86,45.5,10.178,40.364,38.239,61.984,76.407,72.81,31.262,8.868,46.311-10.721,55.342-32.879,2.292-5.623,4.211-11.466,7.159-16.729,1.963-3.506,5.5-6.112,8.22-9.221,1.1-1.257,2.6-2.722,2.719-4.189.948-11.678.325-11.86-11.117-8.461-21.187,6.292-42.5,12.153-63.732,18.3a145.494,145.494,0,0,1-44.845,5.587" transform="translate(0 115.413)" fill="none" stroke="#000" stroke-linecap="round" stroke-linejoin="round" stroke-width="2"/>
      <path id="Tracé_54" data-name="Tracé 54" d="M0,2.271C8.4-2.218,13.575-.14,15.3,9.3c1.9,10.417,3.1,20.977,4.262,31.513.975,8.844,1.458,17.742,2.158,26.617" transform="translate(310.05 128.556)" fill="none" stroke="#000" stroke-linecap="round" stroke-linejoin="round" stroke-width="2"/>
      <path id="Tracé_55" data-name="Tracé 55" d="M141.524,0c-.7,7.239-1.306,14.49-2.118,21.717-3.243,28.813-13.666,54.537-32.121,77.144C94.367,114.684,79.161,126.872,59.548,133.1c-15.99,5.08-32.391-.186-42.062-14.681C11.807,109.909,5.839,101.589,0,93.181" transform="translate(190.245 205.092)" fill="none" stroke="#000" stroke-linecap="round" stroke-linejoin="round" stroke-width="2"/>
      <path id="Tracé_56" data-name="Tracé 56" d="M0,52.546c.468-4.671.957-9.34,1.386-14.014.106-1.158.015-2.334.015-3.5,0-4.2-1.667-9.656.35-12.35a23.515,23.515,0,0,1,17.871-9.268c9.791-.407,19.623.184,29.419-.16C71.027,12.483,93.021,11.5,112.8,0" transform="translate(188.143 240.122)" fill="none" stroke="#000" stroke-linecap="round" stroke-linejoin="round" stroke-width="2"/>
      <path id="Tracé_57" data-name="Tracé 57" d="M0,0C1.869,6.773,3.2,13.754,5.707,20.279A358.745,358.745,0,0,1,23.039,78.485a77.567,77.567,0,0,1,1.375,15.4c-.011,4.815,2.33,5.484,6.405,5.741,4.813.3,4.917-2.041,5-5.739.28-12.8-4.245-24.538-7.9-36.4C23.477,43.095,18.189,28.967,13.343,14.7a59.784,59.784,0,0,1-1.432-6.3" transform="translate(211.263 330.501)" fill="none" stroke="#000" stroke-linecap="round" stroke-linejoin="round" stroke-width="2"/>
      <path id="Tracé_58" data-name="Tracé 58" d="M0,22.42C8.875,29.192,17.069,37.209,26.752,42.5c28.129,15.376,56.714,29.943,85.425,44.215,9.542,4.743,19.975,7.717,30.067,11.315,2.9,1.034,5.615-.142,5.486-3.446-.444-11.453-1.461-22.883-1.956-34.336-.453-10.5-.7-21.017-.668-31.525a90.244,90.244,0,0,1,1.444-16.092c.8-4.315,2.681-8.43,4.083-12.633" transform="translate(30.505 144.839)" fill="none" stroke="#000" stroke-linecap="round" stroke-linejoin="round" stroke-width="2"/>
      <path id="Tracé_59" data-name="Tracé 59" d="M0,0C19.151,3.5,38.183,8.054,57.483,10.219c19.938,2.238,40.135,2.187,60.222,3.049a41.926,41.926,0,0,0,6.3-.657" transform="translate(55.727 249.931)" fill="none" stroke="#000" stroke-linecap="round" stroke-linejoin="round" stroke-width="2"/>
      <path id="Tracé_60" data-name="Tracé 60" d="M0,0C19.672,27.828,42.136,52.979,70.072,72.849c8.415,5.985,16.744,12.209,27.314,14.025,2.8.481,5.6.936,8.407,1.4" transform="translate(69.039 114.713)" fill="none" stroke="#000" stroke-linecap="round" stroke-linejoin="round" stroke-width="2"/>
      <path id="Tracé_61" data-name="Tracé 61" d="M6.306,0C4.437,10.976,2.511,21.943.739,32.935c-.483,3-.5,6.066-.739,9.1" transform="translate(186.041 34.843)" fill="none" stroke="#000" stroke-linecap="round" stroke-linejoin="round" stroke-width="2"/>
      <path id="Tracé_62" data-name="Tracé 62" d="M1.4,0Q.7,3.854,0,7.707" transform="translate(184.64 84.586)" fill="none" stroke="#000" stroke-linecap="round" stroke-linejoin="round" stroke-width="2"/>
      <path id="Tracé_63" data-name="Tracé 63" d="M1.4,0Q.7,1.752,0,3.5" transform="translate(183.239 102.802)" fill="none" stroke="#000" stroke-linecap="round" stroke-linejoin="round" stroke-width="2"/>
      <path id="Tracé_64" data-name="Tracé 64" d="M100.188,0C91.78,9.341,83.544,18.844,74.93,27.992,56.271,47.81,32.415,59.308,7.7,69.348c-2.531,1.028-5.133,1.88-7.7,2.815" transform="translate(183.939 126.623)" fill="none" stroke="#000" stroke-linecap="round" stroke-linejoin="round" stroke-width="2"/>
      <path id="Tracé_65" data-name="Tracé 65" d="M99.487,0C84.45,18.629,63.486,28.008,42,36.345c-13.832,5.368-27.991,9.9-42,14.8" transform="translate(186.742 187.576)" fill="none" stroke="#000" stroke-linecap="round" stroke-linejoin="round" stroke-width="2"/>
      <path id="Tracé_66" data-name="Tracé 66" d="M0,0C10.391,25.681,25.347,48.533,43.527,69.283c4.546,5.189,9.995,9.662,15.428,13.959,1.922,1.52,5.034,1.532,7.6,2.233" transform="translate(112.477 60.065)" fill="none" stroke="#000" stroke-linecap="round" stroke-linejoin="round" stroke-width="2"/>
      <path id="Tracé_67" data-name="Tracé 67" d="M65.157,0c-8.5,21.967-22.483,39.925-40.7,54.562C17.438,60.2,9.484,64.462,0,64.456" transform="translate(181.837 81.083)" fill="none" stroke="#000" stroke-linecap="round" stroke-linejoin="round" stroke-width="2"/>
      <path id="Tracé_68" data-name="Tracé 68" d="M76.367,31.528C65.1,29.166,56.651,21.447,46.915,16.163,37.462,11.033,28.077,5.57,18.1,1.694,12.669-.416,6.073.467,0,0" transform="translate(190.946 277.255)" fill="none" stroke="#000" stroke-linecap="round" stroke-linejoin="round" stroke-width="2"/>
      <path id="Tracé_69" data-name="Tracé 69" d="M0,0C10.439,14.266,21.4,28.061,26.921,45.445c2.233,7.036-1.283,12.686-1,19.011" transform="translate(283.426 65.67)" fill="none" stroke="#000" stroke-linecap="round" stroke-linejoin="round" stroke-width="2"/>
      <path id="Tracé_70" data-name="Tracé 70" d="M54.648,0Q31.178,18.917,7.709,37.835c-2.583,2.084-5.14,4.2-7.709,6.3" transform="translate(240.689 147.641)" fill="none" stroke="#000" stroke-linecap="round" stroke-linejoin="round" stroke-width="2"/>
      <path id="Tracé_71" data-name="Tracé 71" d="M56.049,0c-4.2,6.306-8.138,12.811-12.666,18.875a68.223,68.223,0,0,1-38.5,25.882c-1.475.382-3.248-.385-4.883-.619" transform="translate(241.39 148.342)" fill="none" stroke="#000" stroke-linecap="round" stroke-linejoin="round" stroke-width="2"/>
      <path id="Tracé_72" data-name="Tracé 72" d="M0,0,2.1,33.629" transform="translate(178.334 242.925)" fill="none" stroke="#000" stroke-linecap="round" stroke-linejoin="round" stroke-width="2"/>
    </g>
    <g id="Groupe_6" data-name="Groupe 6" transform="translate(-171.197 511.218) rotate(-124)">
      <path id="Tracé_73" data-name="Tracé 73" d="M4.094,0C4.64,3.548,5.817,7.132,5.616,10.637,4.949,22.273,5.106,34.1,0,45.031" transform="translate(124.391 260.57)" fill="none" stroke="#000" stroke-linecap="round" stroke-linejoin="round" stroke-width="2"/>
      <path id="Tracé_74" data-name="Tracé 74" d="M43.394,0c-4.366,7.641-7.925,15.917-13.3,22.769-7.229,9.22-15.857,17.342-24.687,26.793,4.842,24.133,8.9,50.457,8.621,77.345-.119,11.456,1.163,22.921,1.365,34.389.038,2.164-2.021,4.364-3.114,6.548-1.091-2.184-3.021-4.328-3.124-6.557-.379-8.169.032-16.372-.19-24.554-.407-15.014-.29-30.1-1.823-45.009C5.756,78.24,2.456,64.954,0,51.581" transform="translate(78.541 312.151)" fill="none" stroke="#000" stroke-linecap="round" stroke-linejoin="round" stroke-width="2"/>
      <path id="Tracé_75" data-name="Tracé 75" d="M34.387,0c5.186,15.01,10.667,29.93,15.306,45.108.922,3.015-.377,7.772-2.37,10.444C34.888,72.217,19.706,85.671,0,93.337" transform="translate(77.722 204.895)" fill="none" stroke="#000" stroke-linecap="round" stroke-linejoin="round" stroke-width="2"/>
      <path id="Tracé_76" data-name="Tracé 76" d="M70.412,0C75.325,13.1,80.281,26.184,85.1,39.319c.65,1.773.359,3.874.913,5.7,2.078,6.855,7.193,14.354,5.752,20.3-1.647,6.8-8.708,12.541-14.087,18.094C72.715,88.53,66.617,92.535,61.47,97.5c-6.255,6.031-13.373,6.009-20.488,3.1C27.186,94.962,13.646,88.7,0,82.694" transform="translate(0.76 79.627)" fill="none" stroke="#000" stroke-linecap="round" stroke-linejoin="round" stroke-width="2"/>
      <path id="Tracé_77" data-name="Tracé 77" d="M0,0C10.644,4.366,21.259,8.8,31.939,13.08c10.425,4.172,21.111,4.4,31.923,1.658" transform="translate(6.491 233.551)" fill="none" stroke="#000" stroke-linecap="round" stroke-linejoin="round" stroke-width="2"/>
      <path id="Tracé_78" data-name="Tracé 78" d="M0,0C.273,4.366.49,8.738.833,13.1,1.326,19.38,2,25.647,2.437,31.933,3.232,43.467,9.608,50.59,19.59,55.79c13.251,6.9,26.42,13.744,41.816,13.685A21.682,21.682,0,0,0,71.16,67c4.7-2.506.448-5.89.043-8.868-1-7.381-2.154-14.742-3.246-22.11" transform="translate(3.216 211.445)" fill="none" stroke="#000" stroke-linecap="round" stroke-linejoin="round" stroke-width="2"/>
      <path id="Tracé_79" data-name="Tracé 79" d="M24.5,1.737C19.318,1.191,14.125.709,8.95.079,5.086-.391,4.161,1.248,3.911,5,3.164,16.216,1.417,27.371.881,38.587.334,50.023.857,61.507.737,72.968.549,90.982.031,108.992,0,127.006c-.024,13.918.648,27.837.662,41.756,0,4.235,1.31,6.725,4.933,9.122,11.76,7.781,23.745,14.981,37.748,17.849,10,2.047,19.365,1.611,27.915-5.581,14.026-11.8,21.75-28.077,31.785-42.72a5.343,5.343,0,0,0,.791-4.026c-3.123-9.872-6.463-19.677-9.738-29.5" transform="translate(0 33.677)" fill="none" stroke="#000" stroke-linecap="round" stroke-linejoin="round" stroke-width="2"/>
      <path id="Tracé_80" data-name="Tracé 80" d="M0,0C5.731,2.456,11.536,4.755,17.179,7.4c13.138,6.157,26.861,6.957,40.952,4.881" transform="translate(19.591 285.951)" fill="none" stroke="#000" stroke-linecap="round" stroke-linejoin="round" stroke-width="2"/>
      <path id="Tracé_81" data-name="Tracé 81" d="M0,26.2c10.917,4.366,21.7,9.14,32.81,12.925,5.386,1.833,11.381,2.056,17.14,2.573,8.394.755,12.969-6.055,17.8-10.8C76.409,22.38,83.776,12.546,91.712,3.286c1-1.169,2.171-2.194,3.263-3.286" transform="translate(2.397 162.32)" fill="none" stroke="#000" stroke-linecap="round" stroke-linejoin="round" stroke-width="2"/>
      <path id="Tracé_82" data-name="Tracé 82" d="M40.937,0c-9.006,12.826-17.725,25.871-27.16,38.375C10,43.388,4.64,47.214,0,51.581" transform="translate(76.903 224.545)" fill="none" stroke="#000" stroke-linecap="round" stroke-linejoin="round" stroke-width="2"/>
      <path id="Tracé_83" data-name="Tracé 83" d="M.232,32.958C-1.022,22.369,3.029,12.851,6.98,3.567,9.381-2.076,14.944,0,18.111,2.814,25.889,9.724,33.962,16.681,40.066,24.98c5.7,7.752,8.192,17.821,13.64,25.816,4.567,6.7,2.238,10.43-1.72,15.857-7.135,9.782-13.145,20.4-23.916,26.893" transform="translate(6.259 0)" fill="none" stroke="#000" stroke-linecap="round" stroke-linejoin="round" stroke-width="2"/>
      <path id="Tracé_84" data-name="Tracé 84" d="M48.306,0c-8.46,8.46-16.331,17.649-25.579,25.135C16.108,30.493,7.642,33.569,0,37.662" transform="translate(79.359 281.857)" fill="none" stroke="#000" stroke-linecap="round" stroke-linejoin="round" stroke-width="2"/>
      <path id="Tracé_85" data-name="Tracé 85" d="M31.931,0a4.1,4.1,0,0,1,.806.825c6.9,12.917,5.752,24.427-4.768,35.327C21.524,42.831,16.693,51.046,10.495,58,7.839,60.977,3.548,62.5,0,64.681" transform="translate(71.991 181.97)" fill="none" stroke="#000" stroke-linecap="round" stroke-linejoin="round" stroke-width="2"/>
      <path id="Tracé_86" data-name="Tracé 86" d="M0,0C6.823,3.82,13.55,7.827,20.493,11.415a38.638,38.638,0,0,0,26.994,3.322" transform="translate(0.76 142.67)" fill="none" stroke="#000" stroke-linecap="round" stroke-linejoin="round" stroke-width="2"/>
      <path id="Tracé_87" data-name="Tracé 87" d="M37.662,0C29.475,9.006,21.6,18.324,12.948,26.864,9.509,30.26,4.367,31.931,0,34.387" transform="translate(48.247 123.02)" fill="none" stroke="#000" stroke-linecap="round" stroke-linejoin="round" stroke-width="2"/>
      <path id="Tracé_88" data-name="Tracé 88" d="M0,0C9.859,4.23,18.836,11.01,30.293,10.619c3.281-.112,6.551-.522,9.826-.794" transform="translate(1.578 119.745)" fill="none" stroke="#000" stroke-linecap="round" stroke-linejoin="round" stroke-width="2"/>
      <path id="Tracé_89" data-name="Tracé 89" d="M76.962,0C72.323,4.094,67,7.634,63.164,12.378,47.429,31.843,27.848,33.905,5.716,26.246A30.9,30.9,0,0,0,0,25.381" transform="translate(44.153 309.695)" fill="none" stroke="#000" stroke-linecap="round" stroke-linejoin="round" stroke-width="2"/>
      <path id="Tracé_90" data-name="Tracé 90" d="M0,0C.273,2.729,0,5.657.91,8.154c5,13.716,10.28,27.325,15.465,40.971" transform="translate(11.403 261.389)" fill="none" stroke="#000" stroke-linecap="round" stroke-linejoin="round" stroke-width="2"/>
      <path id="Tracé_91" data-name="Tracé 91" d="M0,0C1.638,3.548,2.9,7.332,4.98,10.6c7.535,11.869,14.028,24.711,25.4,33.495,9.133,7.054,14.694,10.416,23.654,5.029" transform="translate(28.597 311.332)" fill="none" stroke="#000" stroke-linecap="round" stroke-linejoin="round" stroke-width="2"/>
      <path id="Tracé_92" data-name="Tracé 92" d="M32.75,0C25.927,8.46,19.428,17.215,12.132,25.246,8.924,28.778,4.094,30.84,0,33.569" transform="translate(43.334 96.002)" fill="none" stroke="#000" stroke-linecap="round" stroke-linejoin="round" stroke-width="2"/>
      <path id="Tracé_93" data-name="Tracé 93" d="M62.225,0c1.911,4.094,4.031,8.109,5.61,12.326a6,6,0,0,1-.78,4.808C61.486,24.892,56.2,32.947,49.817,40c-8.7,9.626-19.245,13.181-31.846,6.746C12.213,43.811,6,41.756,0,39.3" transform="translate(2.397 62.433)" fill="none" stroke="#000" stroke-linecap="round" stroke-linejoin="round" stroke-width="2"/>
      <path id="Tracé_94" data-name="Tracé 94" d="M0,0,31.112,11.462" transform="translate(2.397 83.72)" fill="none" stroke="#000" stroke-linecap="round" stroke-linejoin="round" stroke-width="2"/>
      <path id="Tracé_95" data-name="Tracé 95" d="M52.4,0c-3.82,4.366-7.921,8.522-11.407,13.142C32.4,24.532,19.85,31.584,3.257,18.855A19.607,19.607,0,0,0,0,17.194" transform="translate(4.035 44.42)" fill="none" stroke="#000" stroke-linecap="round" stroke-linejoin="round" stroke-width="2"/>
      <path id="Tracé_96" data-name="Tracé 96" d="M0,0C3,12.827,5.958,25.665,9.061,38.468c.421,1.734,1.583,3.288,2.4,4.926" transform="translate(37.603 112.377)" fill="none" stroke="#000" stroke-linecap="round" stroke-linejoin="round" stroke-width="2"/>
      <path id="Tracé_97" data-name="Tracé 97" d="M19.65,0,0,22.925" transform="translate(30.235 32.958)" fill="none" stroke="#000" stroke-linecap="round" stroke-linejoin="round" stroke-width="2"/>
      <path id="Tracé_98" data-name="Tracé 98" d="M0,28.656C6.55,32.2,13.052,35.849,19.7,39.193a4.179,4.179,0,0,0,3.9-.838c.675-.775.389-2.657.1-3.959-1.267-5.753-4.821-12.019-3.526-17.068,1.719-6.7-2.646-11.5-2.164-17.329" transform="translate(4.853 19.039)" fill="none" stroke="#000" stroke-linecap="round" stroke-linejoin="round" stroke-width="2"/>
      <path id="Tracé_99" data-name="Tracé 99" d="M0,0Q2.866,17.6,5.731,35.206" transform="translate(27.778 59.158)" fill="none" stroke="#000" stroke-linecap="round" stroke-linejoin="round" stroke-width="2"/>
      <path id="Tracé_100" data-name="Tracé 100" d="M0,0C3,10.644,6.046,21.276,8.983,31.938c.966,3.507,1.66,7.09,2.479,10.637" transform="translate(47.428 159.045)" fill="none" stroke="#000" stroke-linecap="round" stroke-linejoin="round" stroke-width="2"/>
      <path id="Tracé_101" data-name="Tracé 101" d="M0,0Q3.275,9.825,6.55,19.65" transform="translate(59.709 204.895)" fill="none" stroke="#000" stroke-linecap="round" stroke-linejoin="round" stroke-width="2"/>
      <path id="Tracé_102" data-name="Tracé 102" d="M0,0Q1.638,9.006,3.275,18.012" transform="translate(76.903 299.87)" fill="none" stroke="#000" stroke-linecap="round" stroke-linejoin="round" stroke-width="2"/>
      <path id="Tracé_103" data-name="Tracé 103" d="M0,0C1.365,10.1,2.642,20.209,4.168,30.282c.3,1.989,1.563,3.832,2.382,5.743" transform="translate(78.541 321.157)" fill="none" stroke="#000" stroke-linecap="round" stroke-linejoin="round" stroke-width="2"/>
      <path id="Tracé_104" data-name="Tracé 104" d="M0,0,4.912,18.831" transform="translate(66.259 228.639)" fill="none" stroke="#000" stroke-linecap="round" stroke-linejoin="round" stroke-width="2"/>
      <path id="Tracé_105" data-name="Tracé 105" d="M0,0Q1.638,8.6,3.275,17.194" transform="translate(75.266 279.401)" fill="none" stroke="#000" stroke-linecap="round" stroke-linejoin="round" stroke-width="2"/>
      <path id="Tracé_106" data-name="Tracé 106" d="M13.1,0,0,15.556" transform="translate(26.96 17.402)" fill="none" stroke="#000" stroke-linecap="round" stroke-linejoin="round" stroke-width="2"/>
      <path id="Tracé_107" data-name="Tracé 107" d="M0,0Q2.047,7.369,4.094,14.737" transform="translate(18.772 1.846)" fill="none" stroke="#000" stroke-linecap="round" stroke-linejoin="round" stroke-width="2"/>
      <path id="Tracé_108" data-name="Tracé 108" d="M21.287,0C15.955,7.074,10.272,13.448,0,10.644" transform="translate(8.947 9.214)" fill="none" stroke="#000" stroke-linecap="round" stroke-linejoin="round" stroke-width="2"/>
    </g>
    <g id="Groupe_7" data-name="Groupe 7" transform="matrix(0.035, -0.999, 0.999, 0.035, -330.872, 245.813)">
      <path id="Tracé_109" data-name="Tracé 109" d="M6.17,77.465c36.594-3.848,67.892-20.517,97.3-41.118,10.073-7.054,18.892-15.978,27.838-24.514,2.7-2.576,3.9-6.724,5.784-10.152L136.073,0c-4.274.987-8.916,1.213-12.763,3.08C95.091,16.774,66.731,30.236,39.074,45c-10.5,5.6-19.478,14.191-28.667,21.987-2.568,2.179-4.269,6.227-4.9,9.686C3.324,88.63,1.791,100.7,0,112.8c19.385,3.471,38.195.326,57-6.489,23.969-8.685,44.361-22.748,63.854-38.595,2.013-1.637,4.853-2.256,7.309-3.348" transform="translate(146.075 294.985)" fill="none" stroke="#000" stroke-linecap="round" stroke-linejoin="round" stroke-width="2"/>
      <path id="Tracé_110" data-name="Tracé 110" d="M129.3,64.259C109.706,45.128,88.342,28.3,62.9,17.781,47.221,11.3,30.843,6.453,14.625,1.363,10.292,0,5.392.446,0,0,6.015,9.791,15.387,13.391,24.452,17.685c9.479,4.49,18.522,9.89,27.9,14.613,26.386,13.292,51.069,29.847,78.584,40.968" transform="translate(18.036 268.072)" fill="none" stroke="#000" stroke-linecap="round" stroke-linejoin="round" stroke-width="2"/>
      <path id="Tracé_111" data-name="Tracé 111" d="M1.562,86.033C16.03,82.857,29.218,76.8,41.714,68.892,60.144,57.226,78.882,46.049,97.326,34.4A96.631,96.631,0,0,0,127.575,4.93c.824-1.284.62-3.227.892-4.865a43.437,43.437,0,0,0-4.909.025C107,1.989,94.125,12.12,80.2,19.788,63.926,28.752,47.259,37.274,32.086,47.881,20.818,55.759,11.64,66.635,1.6,76.247A5.063,5.063,0,0,0,0,79.481C.147,89.854.47,100.224.743,110.6" transform="translate(156.414 215.186)" fill="none" stroke="#000" stroke-linecap="round" stroke-linejoin="round" stroke-width="2"/>
      <path id="Tracé_112" data-name="Tracé 112" d="M.819,108.759C22.9,101.8,40.347,87.6,56.356,71.776,72,56.314,86.863,40.016,101.345,23.451c5.374-6.147,8.69-14.093,12.946-21.219L112.423,0c-3.36,1.32-7.245,1.957-9.993,4.072C86.425,16.4,70.393,28.72,54.946,41.729,41.954,52.671,29.265,64.074,17.381,76.193,10.615,83.092,5.731,91.838,0,99.753" transform="translate(156.338 155.616)" fill="none" stroke="#000" stroke-linecap="round" stroke-linejoin="round" stroke-width="2"/>
      <path id="Tracé_113" data-name="Tracé 113" d="M113.051,84.083c4.161-10.844,4.974-13.821-6.645-21.97C89.31,50.122,71.92,38.462,54,27.76,37.255,17.762,19.656,9.2,2.432,0L0,2.435C4.388,8.91,8.078,16.017,13.283,21.749,37.159,48.042,65.142,68.487,99.123,80.02c4.986,1.692,11.817,2.511,14.132,6.1,1.917,2.97-1.579,9.426-2.656,14.341-.837,3.817-1.642,7.641-2.46,11.462" transform="translate(31.006 294.098)" fill="none" stroke="#000" stroke-linecap="round" stroke-linejoin="round" stroke-width="2"/>
      <path id="Tracé_114" data-name="Tracé 114" d="M107.667,69.562,93.8,122.446l-3.172-.545c.5-5.437.459-10.99,1.6-16.29q3.543-16.494,8.211-32.735c1.061-3.692,1.105-5.822-1.583-9.2a132.433,132.433,0,0,0-32.893-29.4C53.194,26.152,41.228,16.684,28.09,9.255,20.113,4.745,10.577,2.992,1.741,0L0,2.27C3.958,9.417,7.2,17.09,12,23.617c16.543,22.5,36.79,40.848,62.978,51.52,7.22,2.943,15.219,3.978,22.86,5.888" transform="translate(38.028 340.55)" fill="none" stroke="#000" stroke-linecap="round" stroke-linejoin="round" stroke-width="2"/>
      <path id="Tracé_115" data-name="Tracé 115" d="M27.923,55.595c.273-8.734.964-17.479.712-26.2C28.324,18.607,25.674,8.461,17.394,0,7.808,10.881,5.851,24.305,2.827,36.832-1.884,56.339-.152,76.09,3.963,95.758c1.6,7.637.762,15.784,1.035,23.7" transform="translate(99.759 0)" fill="none" stroke="#000" stroke-linecap="round" stroke-linejoin="round" stroke-width="2"/>
      <path id="Tracé_116" data-name="Tracé 116" d="M8.953,147.937c-.819-1.637-1.345-3.529-2.509-4.867-3.9-4.488-2.306-7.924-.345-13.292C15.483,104.1,27.685,79.306,32.641,52.133c1.979-10.854,4.1-21.783,4.667-32.755C37.624,13.311,34.873,7.085,33.3,0,20.258,8.731,15.379,20.757,9.636,32.426,2.955,46,1.7,60.49.863,75.074.125,87.875.087,100.722,0,113.55c-.043,6.548.49,13.1.763,19.65" transform="translate(122.004 15.732)" fill="none" stroke="#000" stroke-linecap="round" stroke-linejoin="round" stroke-width="2"/>
      <path id="Tracé_117" data-name="Tracé 117" d="M98.3,3.269C84.214-.057,70.2-1.107,55.676,1.348c-9.021,1.525-18.511.341-27.789.267C18.17,1.539,9.222,4.153,0,9.071,10.564,18,22.762,21.62,35.274,22.691c20.809,1.782,40.993-2.7,60.538-9.681,8.141-2.906,8.095-3.551,4.123-8.923" transform="translate(13.009 138.294)" fill="none" stroke="#000" stroke-linecap="round" stroke-linejoin="round" stroke-width="2"/>
      <path id="Tracé_118" data-name="Tracé 118" d="M139.26,122.036c1.092-6,2.807-11.973,3.154-18.02.906-15.808,1.346-31.649,1.6-47.482.035-2.166-1.6-4.75-3.186-6.488-14.806-16.273-33.54-26.906-54.069-33.315C64.818,9.88,42.195,5.056,19.661.343,13.747-.895,7.063,1.553,0,2.4,4.435,11.919,11.832,16.57,19.787,19.519c16.984,6.3,34.388,11.449,51.5,17.414,21.356,7.444,42.586,15.251,63.886,22.859,2.68.957,5.451,1.656,8.18,2.475" transform="translate(7.253 241.408)" fill="none" stroke="#000" stroke-linecap="round" stroke-linejoin="round" stroke-width="2"/>
      <path id="Tracé_119" data-name="Tracé 119" d="M0,0C5.506,6.022,13.314,6.66,20.5,8.042q24.839,4.78,49.928,8.24c14.949,2.08,30.006,3.381,45.019,5,5.454.587,10.916,1.1,16.374,1.644" transform="translate(12.239 200.513)" fill="none" stroke="#000" stroke-linecap="round" stroke-linejoin="round" stroke-width="2"/>
      <path id="Tracé_120" data-name="Tracé 120" d="M0,113.143c.819-11.19,1.44-22.4,2.619-33.552.243-2.3,2.252-4.678,3.981-6.521C21.663,57.008,40.436,45.861,59.033,34.68c16.526-9.935,33.673-18.857,50.73-27.88,5.3-2.806,11.2-4.483,17.143-6.8,0,1.793.355,2.92-.05,3.386C100.382,33.8,72.21,62.211,33.508,76.957c-9.964,3.8-20.681,5.618-31.052,8.348" transform="translate(153.882 250.301)" fill="none" stroke="#000" stroke-linecap="round" stroke-linejoin="round" stroke-width="2"/>
      <path id="Tracé_121" data-name="Tracé 121" d="M0,117.147C9.291,82.357,30.6,54.238,50.7,25.4,58.124,14.756,66.858,5.825,78.734,0c5.832,7.785,3.807,16.328.48,23.717-11.6,25.761-24.71,50.671-45.6,70.551-10.621,10.107-20.785,20.7-31.156,31.067" transform="translate(144.876 75.178)" fill="none" stroke="#000" stroke-linecap="round" stroke-linejoin="round" stroke-width="2"/>
      <path id="Tracé_122" data-name="Tracé 122" d="M0,106.3c8.016-26.8,25.837-47.234,44.328-67.03,10-10.7,21-20.495,31.911-30.3C80.012,5.58,84.7,3.058,89.3.781c4.148-2.057,6.353.088,5.688,4.81C92.406,23.872,83.828,39.248,72.048,53.076c-17.128,20.107-35.876,38.482-57.264,54.1-3.873,2.83-7.142,6.487-10.69,9.762" transform="translate(151.426 117.142)" fill="none" stroke="#000" stroke-linecap="round" stroke-linejoin="round" stroke-width="2"/>
      <path id="Tracé_123" data-name="Tracé 123" d="M22.974,242.289c-.273-2.456-.6-4.908-.809-7.37-1.112-13.371-2.807-26.73-3.13-40.122-.413-17.116-5.706-33.282-8.592-49.9-1.231-7.083-4.93-13.82-8.037-20.466-2.037-4.359-3.065-7.7-1.946-13.229,7.131-35.263,21.119-67.2,43.01-95.69C48.682,8.731,54.218,2.188,63.127,0c5.693,9.492,3.789,19.482-.21,28.518C47.657,62.992,31.61,97.1,2.505,122.752" transform="translate(134.183 49.105)" fill="none" stroke="#000" stroke-linecap="round" stroke-linejoin="round" stroke-width="2"/>
      <path id="Tracé_124" data-name="Tracé 124" d="M117.9,0C99.068,4.912,80.129,9.446,61.44,14.853c-15.99,4.627-31.782,10-47.468,15.59C8.992,32.218,4.64,35.752,0,38.481" transform="translate(148.151 361.806)" fill="none" stroke="#000" stroke-linecap="round" stroke-linejoin="round" stroke-width="2"/>
      <path id="Tracé_125" data-name="Tracé 125" d="M118.236,77.938c-.545-12.827-1.136-25.652-1.62-38.482-.273-7.213-4.26-11.143-10.622-14C83.624,15.387,60.909,6.544,36.361,3.437,24.407,1.924,12.445.466,0,0,6.543,11.424,16.136,18.764,27.286,24.848,41.2,32.44,55.687,37.1,71.564,37.895c14.755.74,29.478,2.108,44.216,3.2" transform="translate(32.371 215.093)" fill="none" stroke="#000" stroke-linecap="round" stroke-linejoin="round" stroke-width="2"/>
      <path id="Tracé_126" data-name="Tracé 126" d="M94.113,35.175c-6.823-3.548-13.489-7.447-20.5-10.574C56.533,16.978,40.808,6.081,22.047,2.514,15.08,1.189,7.921.87,0,0A42.362,42.362,0,0,0,14.787,26.88c15.9,13.721,34.854,20.71,55.586,23A180.966,180.966,0,0,0,91.656,51.4c5.192-.045,10.372-1.486,15.557-2.3" transform="translate(0 83.463)" fill="none" stroke="#000" stroke-linecap="round" stroke-linejoin="round" stroke-width="2"/>
      <path id="Tracé_127" data-name="Tracé 127" d="M102.6,0c2.731,5.043,5.462,10.087,8.867,16.376-20.056-6.6-38.573-3.991-57.185-.89-18.01,3-36.116,5.422-54.285,9.036,10.306,8.946,22.767,11.363,35.466,13.141" transform="translate(15.254 148.932)" fill="none" stroke="#000" stroke-linecap="round" stroke-linejoin="round" stroke-width="2"/>
      <path id="Tracé_128" data-name="Tracé 128" d="M82.766,113.709c-6.461-8.145-12.394-16.129-22.653-21.036-6.886-3.295-11.788-11.566-16.531-18.345C30.96,56.282,18.625,38.017,6.792,19.446,3.191,13.8,1.6,6.867,0,0,11.244,2,19.519,8,26.148,15.569c20.132,23,33.5,49.288,37.172,80.1.412,3.454,3.457,6.682,5.563,9.827,4.253,6.353,8.7,12.577,13.065,18.854" transform="translate(30.178 17.21)" fill="none" stroke="#000" stroke-linecap="round" stroke-linejoin="round" stroke-width="2"/>
      <path id="Tracé_129" data-name="Tracé 129" d="M67.956,0C56.146.289,44.5.4,32.652,2.787A190.824,190.824,0,0,0,0,12.281" transform="translate(14.695 187.413)" fill="none" stroke="#000" stroke-linecap="round" stroke-linejoin="round" stroke-width="2"/>
      <path id="Tracé_130" data-name="Tracé 130" d="M56.494,20.469C40.683,12.72,24.858,5.012,7.371,1.628,4.9,1.15,2.456.546,0,0" transform="translate(84.289 188.232)" fill="none" stroke="#000" stroke-linecap="round" stroke-linejoin="round" stroke-width="2"/>
      <path id="Tracé_131" data-name="Tracé 131" d="M43.394,0C29.668,7.245,15.009,11.889,0,15.556" transform="translate(84.289 171.038)" fill="none" stroke="#000" stroke-linecap="round" stroke-linejoin="round" stroke-width="2"/>
      <path id="Tracé_132" data-name="Tracé 132" d="M0,0A157.339,157.339,0,0,1,16.269,48.324c1.672,10,2.289,20.177,3.381,30.276" transform="translate(127.682 166.944)" fill="none" stroke="#000" stroke-linecap="round" stroke-linejoin="round" stroke-width="2"/>
      <path id="Tracé_133" data-name="Tracé 133" d="M4.439,0C.961,6.972-3.106,13.922,3.62,21.287" transform="translate(115.874 121.094)" fill="none" stroke="#000" stroke-linecap="round" stroke-linejoin="round" stroke-width="2"/>
    </g>
    <path id="Tracé_143" data-name="Tracé 143" d="M-12.276,759.89v3.275" transform="translate(131.83 -201.113)" fill="none" stroke="#000" stroke-linecap="round" stroke-linejoin="round" stroke-width="2"/>
    <g id="Groupe_13" data-name="Groupe 13" transform="translate(355.472 743.869) rotate(-159)">
      <path id="Tracé_4" data-name="Tracé 4" d="M0,0C5.973,5.12,12.022,10.154,17.9,15.376,31.047,27.048,47.26,32.407,63.292,38.568,91.684,49.48,119.629,61.55,147.856,72.9c10.952,4.4,22.163,8.163,33.255,12.217" transform="translate(1.28 152.312)" fill="none" stroke="#000" stroke-linecap="round" stroke-linejoin="round" stroke-width="2"/>
      <path id="Tracé_5" data-name="Tracé 5" d="M123.514,29.438c-.853-.64-1.646-1.729-2.569-1.853-13.426-1.8-26.964-2.95-40.284-5.324C64.771,19.43,48.93,16.083,33.327,11.976,23.257,9.325,13.654,4.9,3.838,1.285,2.573.819,1.28.427,0,0" transform="translate(0 211.83)" fill="none" stroke="#000" stroke-linecap="round" stroke-linejoin="round" stroke-width="2"/>
      <path id="Tracé_6" data-name="Tracé 6" d="M117.114.253C96.635.253,76.124-.454,55.689.5,41.551,1.152,27.494,3.935,13.453,6.1,8.885,6.808,4.48,8.573,0,9.852" transform="translate(5.76 241.655)" fill="none" stroke="#000" stroke-linecap="round" stroke-linejoin="round" stroke-width="2"/>
      <g id="Groupe_9" data-name="Groupe 9" transform="translate(2.56 0)">
        <path id="Tracé_144" data-name="Tracé 144" d="M0,77.413c1.494,5.546,3.41,11.018,4.406,16.652a331.98,331.98,0,0,1,5.181,66.543c-.351,13.441-.928,26.878-1.122,40.321-.018,1.265,1.775,3.3,3.1,3.681,2.635.76,4.555-.353,4.468-3.684-.129-4.9.044-9.813-.051-14.718-.145-7.467-.961-14.966-.512-22.393a248.371,248.371,0,0,0-2.012-53.126C12.076,101.745,10.522,92.8,9.764,83.8a25.872,25.872,0,0,1,2.008-12.036c1-2.294,4.231-3.989,6.82-5.159,35.151-15.891,70.265-31.869,105.6-47.338,19.527-8.549,40.531-11.889,61.4-15.433,8.09-1.374,16.2-2.614,24.323-3.806a10.189,10.189,0,0,1,3.192.591" transform="translate(199.03 175.375)" fill="none" stroke="#000" stroke-linecap="round" stroke-linejoin="round" stroke-width="2"/>
        <path id="Tracé_145" data-name="Tracé 145" d="M88.956,218.869c-1.493-5.547-3.238-11.039-4.439-16.648C76.5,164.8,66.556,127.956,51.147,92.817,39.953,67.289,29.942,41.131,14.019,17.961,9.726,11.713,4.694,5.973,0,0" transform="translate(113.914 8.96)" fill="none" stroke="#000" stroke-linecap="round" stroke-linejoin="round" stroke-width="2"/>
        <path id="Tracé_146" data-name="Tracé 146" d="M3.088,0C2.021,16.212.2,32.418.061,48.639q-.338,38.07,1.3,76.147c.692,15.617,3.272,31.148,4.919,46.727,1.555,14.713,3,29.437,4.493,44.157" transform="translate(192.103 0)" fill="none" stroke="#000" stroke-linecap="round" stroke-linejoin="round" stroke-width="2"/>
        <path id="Tracé_147" data-name="Tracé 147" d="M.491,0c-1.784,9.907,1.643,19.226,4.7,28.083,14.623,42.377,31.294,83.98,49.72,124.86,10.12,22.453,20.457,44.807,30.7,67.206" transform="translate(114.064 11.519)" fill="none" stroke="#000" stroke-linecap="round" stroke-linejoin="round" stroke-width="2"/>
        <path id="Tracé_148" data-name="Tracé 148" d="M204.79,0c-15.671,7.068-32.6,8.778-49.281,11.495-16.408,2.672-32.807,5.456-49.288,7.595C95.2,20.519,84.052,20.944,72.956,21.747c-9.6.7-19.2,1.8-28.8,1.814C29.439,23.583,14.719,22.825,0,22.4" transform="translate(209.91 231.669)" fill="none" stroke="#000" stroke-linecap="round" stroke-linejoin="round" stroke-width="2"/>
        <path id="Tracé_149" data-name="Tracé 149" d="M61.6,122.176c-1.28-2.56-2.164-5.432-3.9-7.632-19.151-24.271-35.127-50.353-46.028-79.4C7.9,25.092,3.953,15.108.234,5.036-.251,3.723.168,2.074.168,0,12.6,7.95,19.051,19.97,27.06,30.65a1181.264,1181.264,0,0,1,84.509,130.538c7.166,12.755,14.912,25.183,22.325,37.8a56.093,56.093,0,0,1,2.588,5.743" transform="translate(65.109 35.896)" fill="none" stroke="#000" stroke-linecap="round" stroke-linejoin="round" stroke-width="2"/>
        <path id="Tracé_150" data-name="Tracé 150" d="M41.065,0c.029,18.978-5.314,37.168-8.488,55.648Q25.9,94.538,17.24,133.08C12.183,155.637,5.853,177.907.147,200.32a16,16,0,0,0-.04,3.83" transform="translate(216.842 7.68)" fill="none" stroke="#000" stroke-linecap="round" stroke-linejoin="round" stroke-width="2"/>
        <path id="Tracé_151" data-name="Tracé 151" d="M197.75,0c1.675,2.827,1.218,4.69-1.875,6.477-7.782,4.5-16.463,5.726-25.019,6.845C148.143,16.29,125.25,16.7,102.4,15.877c-18.794-.68-37.534-2.811-56.327-3.591-13.224-.548-26.236-1.894-39.032-5.25C4.688,6.419,2.347,5.76,0,5.12" transform="translate(0 246.388)" fill="none" stroke="#000" stroke-linecap="round" stroke-linejoin="round" stroke-width="2"/>
        <path id="Tracé_152" data-name="Tracé 152" d="M65.277,57.583C75.3,52.25,85.195,46.642,95.383,41.64c22.952-11.271,45.894-22.586,69.163-33.171C174.365,4,184.607-.16,195.83,0a7.214,7.214,0,0,1,4.581,1.823C184.8,11.241,169.368,20.948,153.558,30c-34.232,19.609-68.377,39.4-103.13,58.056-15.011,8.056-31.446,13.458-47.219,20.1A26.671,26.671,0,0,0,0,110.061" transform="translate(215.669 126.728)" fill="none" stroke="#000" stroke-linecap="round" stroke-linejoin="round" stroke-width="2"/>
        <path id="Tracé_153" data-name="Tracé 153" d="M122.234,0c-2.133,4.693-4.391,9.333-6.38,14.087C95.218,63.42,66.538,108.016,35.166,151.009c-9.605,13.164-19.526,26.1-29.487,39-1.336,1.73-3.76,2.622-5.68,3.9" transform="translate(207.99 39.678)" fill="none" stroke="#000" stroke-linecap="round" stroke-linejoin="round" stroke-width="2"/>
        <path id="Tracé_154" data-name="Tracé 154" d="M191.991,0c-11.093,6.187-21.7,13.552-33.379,18.312-23.984,9.781-48.432,18.466-72.883,27.046A669,669,0,0,1,1.294,68.542C.757,68.655.427,69.757,0,70.4" transform="translate(227.189 173.432)" fill="none" stroke="#000" stroke-linecap="round" stroke-linejoin="round" stroke-width="2"/>
        <path id="Tracé_155" data-name="Tracé 155" d="M0,0C2.774,14.505,5.806,28.969,8.22,43.534a165.532,165.532,0,0,1,2.543,25.583c.282,34.556.1,69.116.145,103.674.006,4.053.4,8.106.612,12.159" transform="translate(197.75 0.64)" fill="none" stroke="#000" stroke-linecap="round" stroke-linejoin="round" stroke-width="2"/>
        <path id="Tracé_156" data-name="Tracé 156" d="M182.391,0c-10.879.213-21.77.184-32.635.705-11.747.564-23.473,1.588-35.2,2.509q-19.206,1.507-38.4,3.2C69.963,6.96,63.8,7.872,57.595,8.281,42.884,9.253,28.157,9.988,13.441,10.9c-4.489.279-8.961.83-13.441,1.257" transform="translate(227.189 232.309)" fill="none" stroke="#000" stroke-linecap="round" stroke-linejoin="round" stroke-width="2"/>
        <path id="Tracé_157" data-name="Tracé 157" d="M3.2,0,0,1.28" transform="translate(219.509 244.468)" fill="none" stroke="#000" stroke-linecap="round" stroke-linejoin="round" stroke-width="2"/>
        <path id="Tracé_158" data-name="Tracé 158" d="M188.791,82.556c-9.813-5.546-19.9-10.668-29.385-16.723-23.475-14.984-48.7-26.495-74.373-36.827C60.89,19.291,36.072,11.249,11.5,2.621,7.813,1.327,3.84.853,0,0" transform="translate(2.56 154.232)" fill="none" stroke="#000" stroke-linecap="round" stroke-linejoin="round" stroke-width="2"/>
        <path id="Tracé_159" data-name="Tracé 159" d="M46.078,0C40.318,13.226,33.813,26.185,28.96,39.736,19.97,64.844,14.1,90.833,9.611,117.116,6.99,132.464,4.48,147.833,1.92,163.192L0,174.711" transform="translate(210.55 10.879)" fill="none" stroke="#000" stroke-linecap="round" stroke-linejoin="round" stroke-width="2"/>
        <path id="Tracé_160" data-name="Tracé 160" d="M70.4,78.076C63.144,70.823,55.5,63.912,48.714,56.249,32.266,37.686,16.213,18.772,0,0" transform="translate(130.554 161.912)" fill="none" stroke="#000" stroke-linecap="round" stroke-linejoin="round" stroke-width="2"/>
        <path id="Tracé_161" data-name="Tracé 161" d="M111.413,79.305Q92.534,62.345,73.65,45.392C55.261,28.95,34.756,15.5,13.471,3.2,9.586.949,5.427-1.21,0,.793,8.228,11.37,15.188,22.107,23.918,31.132c14.045,14.519,28.514,28.82,44.153,41.556C90.85,91.238,114.913,108.2,138.248,126.08c9.013,6.9,17.546,14.437,26.253,21.736.44.369.456,1.245.669,1.885" transform="translate(18.501 81.967)" fill="none" stroke="#000" stroke-linecap="round" stroke-linejoin="round" stroke-width="2"/>
        <path id="Tracé_162" data-name="Tracé 162" d="M120.954,0C102.043,19.281,87.53,41.92,72.364,64.029c-22.17,32.319-41.267,66.433-58.3,101.716-3.318,6.873-6.717,13.711-10.327,20.432-.554,1.03-2.459,1.334-3.739,1.974" transform="translate(206.07 42.238)" fill="none" stroke="#000" stroke-linecap="round" stroke-linejoin="round" stroke-width="2"/>
        <path id="Tracé_163" data-name="Tracé 163" d="M6.4,157.633c19.413-15.572,39.373-30.518,58.1-46.88,22.151-19.36,43.642-39.526,64.64-60.136C143.921,36.1,155.365,18.775,165.288,0c-4.965,3.054-10.112,5.849-14.863,9.206C131.819,22.352,114,36.494,97.941,52.7,74.376,76.5,50.728,100.218,27.634,124.464,17.009,135.618,6.722,147.283,0,161.473" transform="translate(214.389 74.675)" fill="none" stroke="#000" stroke-linecap="round" stroke-linejoin="round" stroke-width="2"/>
        <path id="Tracé_164" data-name="Tracé 164" d="M63.357,3.2c-4.693,0-9.4.231-14.077-.042C32.848,2.2,16.426,1.066,0,0" transform="translate(131.194 241.908)" fill="none" stroke="#000" stroke-linecap="round" stroke-linejoin="round" stroke-width="2"/>
        <path id="Tracé_165" data-name="Tracé 165" d="M30.718,0Q19.2,8,7.675,15.992C5.145,17.741,2.56,19.412,0,21.119" transform="translate(220.149 206.07)" fill="none" stroke="#000" stroke-linecap="round" stroke-linejoin="round" stroke-width="2"/>
        <path id="Tracé_166" data-name="Tracé 166" d="M1.28,0Q.641,1.6,0,3.2" transform="translate(208.63 186.871)" fill="none" stroke="#000" stroke-linecap="round" stroke-linejoin="round" stroke-width="2"/>
        <path id="Tracé_167" data-name="Tracé 167" d="M1.28,0,0,2.56" transform="translate(207.35 202.23)" fill="none" stroke="#000" stroke-linecap="round" stroke-linejoin="round" stroke-width="2"/>
        <path id="Tracé_168" data-name="Tracé 168" d="M3.237,0C.471,4.925-1.758,9.895,1.957,15.359" transform="translate(204.113 212.47)" fill="none" stroke="#000" stroke-linecap="round" stroke-linejoin="round" stroke-width="2"/>
        <path id="Tracé_169" data-name="Tracé 169" d="M1.28,0,0,1.92" transform="translate(206.07 235.508)" fill="none" stroke="#000" stroke-linecap="round" stroke-linejoin="round" stroke-width="2"/>
        <path id="Tracé_170" data-name="Tracé 170" d="M0,0V10.24" transform="translate(206.71 216.309)" fill="none" stroke="#000" stroke-linecap="round" stroke-linejoin="round" stroke-width="2"/>
        <path id="Tracé_171" data-name="Tracé 171" d="M0,0V5.12" transform="translate(206.71 206.07)" fill="none" stroke="#000" stroke-linecap="round" stroke-linejoin="round" stroke-width="2"/>
        <path id="Tracé_172" data-name="Tracé 172" d="M0,0V5.12" transform="translate(207.99 206.07)" fill="none" stroke="#000" stroke-linecap="round" stroke-linejoin="round" stroke-width="2"/>
        <path id="Tracé_173" data-name="Tracé 173" d="M0,0,4.48,5.76" transform="translate(206.07 238.708)" fill="none" stroke="#000" stroke-linecap="round" stroke-linejoin="round" stroke-width="2"/>
        <path id="Tracé_174" data-name="Tracé 174" d="M1.726,0c-2.6,1.706-1.985,3.413,0,5.12" transform="translate(202.424 231.669)" fill="none" stroke="#000" stroke-linecap="round" stroke-linejoin="round" stroke-width="2"/>
      </g>
    </g>
    <g id="Groupe_10" data-name="Groupe 10" transform="matrix(0.391, -0.921, 0.921, 0.391, 470.566, 381.515)">
      <path id="Tracé_175" data-name="Tracé 175" d="M0,83.786c1.365-14.464,2.964-28.912,4.021-43.4Q5.365,22,5.6,3.547c.056-4.7,3.025-3.539,5-3.073,1.339.316,3.262,2.605,3.167,3.882C12.35,23.477,10.629,42.575,9.013,61.681c-.854,10.094-1.643,20.2-2.462,30.293" transform="translate(156.381 0)" fill="none" stroke="#000" stroke-linecap="round" stroke-linejoin="round" stroke-width="2"/>
      <path id="Tracé_176" data-name="Tracé 176" d="M73.057,22.752c3.083-5.344-3.244-4.321-4.186-4.615-16.2-5.066-32.526-9.948-49.847-8.445-3.027.263-6,1.411-9.013,1.5A26.008,26.008,0,0,1,0,9.365C5.454,3.791,11.658,1.507,19.018,1.374,29.123,1.192,39.224-.148,49.311.013a72.562,72.562,0,0,1,19.6,3.25c8.462,2.564,7.743,4.623,4.961,15.395" transform="translate(75.136 128.171)" fill="none" stroke="#000" stroke-linecap="round" stroke-linejoin="round" stroke-width="2"/>
      <path id="Tracé_177" data-name="Tracé 177" d="M1.638,0C18.286,1.911,34.992,3.441,51.543,5.978c4.565.7,8.669,4.4,13.469,6.982-7.325,6.1-26.921,5.349-65.013-1.5" transform="translate(157.2 130.455)" fill="none" stroke="#000" stroke-linecap="round" stroke-linejoin="round" stroke-width="2"/>
      <path id="Tracé_178" data-name="Tracé 178" d="M57.068,46.787c1.365-7.369,3.088-14.7,3.827-22.132.172-1.731-2.683-4.285-4.7-5.621-9.871-6.539-21.41-7.914-32.7-9.864C15.847,7.849,8.128,6.951,0,5.8,2.814-2.282,9.74.4,13.663.521c16.592.5,33.217,2.148,48.318,10.241" transform="translate(92.762 86.125)" fill="none" stroke="#000" stroke-linecap="round" stroke-linejoin="round" stroke-width="2"/>
      <path id="Tracé_179" data-name="Tracé 179" d="M15.556,0C38.466,6.775,65.57,35.658,65.5,53.879,54.1,43.921,43.362,33.8,31.826,24.7,21.684,16.691,10.644,9.825,0,2.456" transform="translate(108.893 246.717)" fill="none" stroke="#000" stroke-linecap="round" stroke-linejoin="round" stroke-width="2"/>
      <path id="Tracé_180" data-name="Tracé 180" d="M55.764,10.459,63.259,0C84.841,31.713,88.472,39.6,86.047,52.1,78.665,33.992,69.894,17.172,50.875,8.768,34.261,1.428,17.285,2.379,0,5.463c15.934,8.78,35.791,4.386,51.4,16.117-2.586,4.659-5.25,9.46-7.915,14.26" transform="translate(23.654 336.964)" fill="none" stroke="#000" stroke-linecap="round" stroke-linejoin="round" stroke-width="2"/>
      <path id="Tracé_181" data-name="Tracé 181" d="M69.746,32.882c.274-4.913.183-9.881.934-14.719.6-3.885,2.225-7.611,3.378-11.352C57.772-2.762,14.776-2.284,0,8.5c23.328,2.695,47.035,2.915,69.746,9.644" transform="translate(71.079 164.71)" fill="none" stroke="#000" stroke-linecap="round" stroke-linejoin="round" stroke-width="2"/>
      <path id="Tracé_182" data-name="Tracé 182" d="M68.712,15.8C72.792,3.945,71.17.733,59.7.345,46.619-.1,33.492-.143,20.412.381,11.945.719,5.625,5.74,0,13c2.923.137,5.344.9,7.271.238,19.374-6.676,38.35-3.06,57.366,1.668,3.056.759,5.337,1.233,3.257,4.985" transform="translate(77.025 149.044)" fill="none" stroke="#000" stroke-linecap="round" stroke-linejoin="round" stroke-width="2"/>
      <path id="Tracé_183" data-name="Tracé 183" d="M7.369,0C13.1,9.552,19.114,18.952,24.4,28.743c1.739,3.219,1.6,7.453.97,11.383L0,6.55" transform="translate(65.5 371.167)" fill="none" stroke="#000" stroke-linecap="round" stroke-linejoin="round" stroke-width="2"/>
      <path id="Tracé_184" data-name="Tracé 184" d="M37.028,14.363C28.238,8.946,18.086,8.827,8.375,6.978A24,24,0,0,1,0,4.036C11.713-1.279,23.564-.741,35.365,2.184c5.124,1.27,6.628,6.323,9.181,10.45,5.518,8.921,10.018,18.92,20.429,24.479,2.941-10.349-3.557-16.693-8.347-23.532-3-4.286-6.5-8.223-9.774-12.317" transform="translate(16.191 381.366)" fill="none" stroke="#000" stroke-linecap="round" stroke-linejoin="round" stroke-width="2"/>
      <path id="Tracé_185" data-name="Tracé 185" d="M0,13.05l69.723,6.98C63.107,10.793,54.652,8.7,46.629,6.655,35.6,3.85,24.336,1.832,13.074.123,9.42-.432,5.459,1.041,1.637,1.587" transform="translate(159.656 110.036)" fill="none" stroke="#000" stroke-linecap="round" stroke-linejoin="round" stroke-width="2"/>
      <path id="Tracé_186" data-name="Tracé 186" d="M81.056,0c-2.729,7.915-5.664,15.767-8.1,23.772-1.135,3.734-3.986,5.409-6.534,3.887-9.1-5.438-19.265-2.9-28.817-4.392-9.858-1.537-20.146-.5-30.237-.229C4.9,23.1,2.456,24.562,0,25.381" transform="translate(38.481 257.361)" fill="none" stroke="#000" stroke-linecap="round" stroke-linejoin="round" stroke-width="2"/>
      <path id="Tracé_187" data-name="Tracé 187" d="M67.137,24.562C62.225,21.015,57.79,15.977,52.3,14.216c-13.077-4.2-26.671-6.768-40.011-10.169C8.123,2.983,4.094,1.365,0,0" transform="translate(40.119 259.817)" fill="none" stroke="#000" stroke-linecap="round" stroke-linejoin="round" stroke-width="2"/>
      <path id="Tracé_188" data-name="Tracé 188" d="M67.137,8.014c-5.377-4.122-11.632-3.9-18-4.244A212.542,212.542,0,0,1,21.316.5C13.58-.962,6.812.978,0,3.92" transform="translate(85.15 106.066)" fill="none" stroke="#000" stroke-linecap="round" stroke-linejoin="round" stroke-width="2"/>
      <path id="Tracé_189" data-name="Tracé 189" d="M66.715,8.88C59.3,3.835,51.027,1.809,42.154,1.47,32.6,1.1,23.053.131,13.495,0,9.067-.058,4.621,1.256.183,1.947L0,3.989C1.769,4.8,3.517,6.26,5.313,6.324c18.452.648,35.9,5.76,53.2,11.593.9.3,2.082,1.721,2.4,1.51,8-5.265,13.188.78,17.953,5.144,9.411,8.618,18.877,17.488,22.967,30.185,1.086,3.374,1.173,7.07,1.719,10.617" transform="translate(33.991 295.15)" fill="none" stroke="#000" stroke-linecap="round" stroke-linejoin="round" stroke-width="2"/>
      <path id="Tracé_190" data-name="Tracé 190" d="M65.5,14.737c-9.279-2.456-18.455-5.473-27.866-7.213C27.938,5.732,17.978,5.418,8.21,3.95,5.34,3.519,2.73,1.365,0,0" transform="translate(36.844 284.379)" fill="none" stroke="#000" stroke-linecap="round" stroke-linejoin="round" stroke-width="2"/>
      <path id="Tracé_191" data-name="Tracé 191" d="M31.931,29.475c5.186,3,10.415,5.933,15.541,9.032,3.237,1.956,6.322,4.163,9.475,6.258l1.751-1c-1.007-3.127-1.21-6.918-3.153-9.272C43.156,19.491,28.666,7.094,9.792.92,6.753-.074,3.275.273,0,0" transform="translate(133.456 217.242)" fill="none" stroke="#000" stroke-linecap="round" stroke-linejoin="round" stroke-width="2"/>
      <path id="Tracé_192" data-name="Tracé 192" d="M68.775,7.2A86.974,86.974,0,0,0,8.2,3.955C5.395,4.8,2.73,6.1,0,7.2" transform="translate(62.225 214.141)" fill="none" stroke="#000" stroke-linecap="round" stroke-linejoin="round" stroke-width="2"/>
      <path id="Tracé_193" data-name="Tracé 193" d="M3.275,0C26.759,3.177,57.53,18.147,65.059,31.613,42.951,22.552,22.183,15.067,0,13.1" transform="translate(152.287 148.467)" fill="none" stroke="#000" stroke-linecap="round" stroke-linejoin="round" stroke-width="2"/>
      <path id="Tracé_194" data-name="Tracé 194" d="M65.568,4.863c-.255,1.367-.51,2.735-.762,4.086C43.819-.063,22.325-2.721,0,3.058,20.56,5.19,39.189,13.446,59.571,19.034c.83-1.45,2.6-4.536,4.36-7.622" transform="translate(30.226 309.81)" fill="none" stroke="#000" stroke-linecap="round" stroke-linejoin="round" stroke-width="2"/>
      <path id="Tracé_195" data-name="Tracé 195" d="M0,10.644c3.275,1.637,7.191,2.607,9.716,5.026C21.7,27.151,33.31,39.013,45.016,50.778c1.625,1.633,3.037,3.479,4.549,5.225L51.37,55.5c-.475-3.761-.034-7.958-1.579-11.213C41.342,26.476,29.328,11.72,11.446,2.49A59.81,59.81,0,0,0,4.913,0" transform="translate(113.806 264.729)" fill="none" stroke="#000" stroke-linecap="round" stroke-linejoin="round" stroke-width="2"/>
      <path id="Tracé_196" data-name="Tracé 196" d="M22.63,0c9.28,5.731,18.608,11.386,27.821,17.22,6.632,4.2,12.585,9,12.851,19.883L0,7.418c.3-1.277.821-3.529,1.343-5.78" transform="translate(137.026 200.867)" fill="none" stroke="#000" stroke-linecap="round" stroke-linejoin="round" stroke-width="2"/>
      <path id="Tracé_197" data-name="Tracé 197" d="M0,87.993c11.462,3.275,22.992,6.336,34.365,9.9,8.4,2.627,16.587,5.906,24.87,8.895l1.29-2.411C57,101.1,53.933,97,49.853,94.705,39.759,89.027,29.242,84.089,18.8,79.048a24.188,24.188,0,0,0-8.166-2.428c-9.361-.827-9.057-.628-7.426-9.925Q8.442,36.867,12.977,6.918c.526-3.48.972-4.982,4.984-5.936,9.918-2.357,19.178.053,28.73,1.741C55.948,4.358,65.38,5,74.734,6.082q.118,1.163.236,2.328c-1.246.874-2.453,2.439-3.745,2.514-12.544.725-25.1,1.207-37.657,1.742-6.822.291-13.645.549-20.468.822" transform="translate(149.012 90.768)" fill="none" stroke="#000" stroke-linecap="round" stroke-linejoin="round" stroke-width="2"/>
      <path id="Tracé_198" data-name="Tracé 198" d="M61.406,18.012c-10.347-7.148-23-6.828-34.415-10.556C18.128,4.561,9.006,2.456,0,0" transform="translate(89.243 110.805)" fill="none" stroke="#000" stroke-linecap="round" stroke-linejoin="round" stroke-width="2"/>
      <path id="Tracé_199" data-name="Tracé 199" d="M92.518,51.8C86.4,39.992,81.85,26.9,71.131,18.36,51.738,2.9,29.69-3.549,4.926,1.917,3.191,2.3,1.637,3.5,0,4.316" transform="translate(27.837 324.276)" fill="none" stroke="#000" stroke-linecap="round" stroke-linejoin="round" stroke-width="2"/>
      <path id="Tracé_200" data-name="Tracé 200" d="M42.575,53.219c3.1-6.881-2.337-11.511-5.114-16.257C28.352,21.393,16.663,8.082,0,0" transform="translate(112.168 281.104)" fill="none" stroke="#000" stroke-linecap="round" stroke-linejoin="round" stroke-width="2"/>
      <path id="Tracé_201" data-name="Tracé 201" d="M0,9.825C19.439,8.5,38.869,7.127,57.312,0" transform="translate(164.568 75.599)" fill="none" stroke="#000" stroke-linecap="round" stroke-linejoin="round" stroke-width="2"/>
      <path id="Tracé_202" data-name="Tracé 202" d="M0,1.748C17.079-3.957,30.1,5.294,41.416,15.235c7.8,6.849,17.164,13.663,19.959,25a21.594,21.594,0,0,1,.284,3.882C46.778,34.6,32.109,24.93,17.114,15.8c-4.113-2.5-9.2-3.407-13.839-5.044" transform="translate(122.812 231.869)" fill="none" stroke="#000" stroke-linecap="round" stroke-linejoin="round" stroke-width="2"/>
      <path id="Tracé_203" data-name="Tracé 203" d="M30.294,49.944c6.647-4.265,1.44-10.452.286-13.731-4.262-12.11-10.618-23.579-20.852-32C7.105,2.055,3.275,1.365,0,0" transform="translate(91.7 327.773)" fill="none" stroke="#000" stroke-linecap="round" stroke-linejoin="round" stroke-width="2"/>
      <path id="Tracé_204" data-name="Tracé 204" d="M11.319,0Q34.243,5.323,57.165,10.66a5.08,5.08,0,0,1,3.3,2.237C40.312,13.973,20.726,7.682.767,6.84Q.384,8.474,0,10.108c8.958,2.907,17.969,5.664,26.859,8.768,7.989,2.789,15.846,5.96,23.76,8.961" transform="translate(50.088 235.255)" fill="none" stroke="#000" stroke-linecap="round" stroke-linejoin="round" stroke-width="2"/>
      <path id="Tracé_205" data-name="Tracé 205" d="M58.95,7.231C49.671,5.593,40.4,3.925,31.111,2.331,25.937,1.443,20.756.151,15.553.012,10.386-.126,5.186.954,0,1.5" transform="translate(165.387 68.368)" fill="none" stroke="#000" stroke-linecap="round" stroke-linejoin="round" stroke-width="2"/>
      <path id="Tracé_206" data-name="Tracé 206" d="M50.839,38.038c1.365-6.55,3.66-13.111,3.579-19.643-.027-2.224-5.82-5.751-9.349-6.3-11.356-1.774-22.889-2.4-34.346-3.549A29.82,29.82,0,0,1,0,5.816C18.147-1.669,36.447-1.724,54.933,4.47" transform="translate(102.267 68.673)" fill="none" stroke="#000" stroke-linecap="round" stroke-linejoin="round" stroke-width="2"/>
      <path id="Tracé_207" data-name="Tracé 207" d="M48.306,10.686C35.345,1.013,20.373-.55,4.917.143,3.246.218,1.638,1.68,0,2.5" transform="translate(23.744 352.293)" fill="none" stroke="#000" stroke-linecap="round" stroke-linejoin="round" stroke-width="2"/>
      <path id="Tracé_208" data-name="Tracé 208" d="M48.306,14.737C33.305,6.218,17.057,1.783,0,0" transform="translate(31.112 328.592)" fill="none" stroke="#000" stroke-linecap="round" stroke-linejoin="round" stroke-width="2"/>
      <path id="Tracé_209" data-name="Tracé 209" d="M72.05,11.7C60.925,5.08,47.789,7.159,36.059,3.4,24.134-.418,12.187-.742,0,1.052" transform="translate(41.756 257.128)" fill="none" stroke="#000" stroke-linecap="round" stroke-linejoin="round" stroke-width="2"/>
      <path id="Tracé_210" data-name="Tracé 210" d="M0,14.737,29.555,49.051l1.037-.219c-1.191-4.542-1.362-9.737-3.77-13.5C20.3,25.141,13.5,14.945,5.378,6.055,2.432,2.83,5.612,1.85,4.913,0" transform="translate(74.506 349.879)" fill="none" stroke="#000" stroke-linecap="round" stroke-linejoin="round" stroke-width="2"/>
      <path id="Tracé_211" data-name="Tracé 211" d="M0,2.492C2.456,1.674,4.9.2,7.371.147,19.648-.1,31.931.036,44.212.036" transform="translate(59.769 231.125)" fill="none" stroke="#000" stroke-linecap="round" stroke-linejoin="round" stroke-width="2"/>
      <path id="Tracé_212" data-name="Tracé 212" d="M0,0C5.086.827,10.316,1.305,13.919,5.731" transform="translate(111.35 231.161)" fill="none" stroke="#000" stroke-linecap="round" stroke-linejoin="round" stroke-width="2"/>
      <path id="Tracé_213" data-name="Tracé 213" d="M33.569,31.112l8.12-13.057C29.041,8.752,13.845,5.846,0,0" transform="translate(25.381 356.429)" fill="none" stroke="#000" stroke-linecap="round" stroke-linejoin="round" stroke-width="2"/>
      <path id="Tracé_214" data-name="Tracé 214" d="M3.275,0C21.442,6.141,29.213,23.167,40.808,36.141c1.6,1.791,1.448,5.149,1.409,8.082A117.232,117.232,0,0,0,0,11.462" transform="translate(103.162 295.842)" fill="none" stroke="#000" stroke-linecap="round" stroke-linejoin="round" stroke-width="2"/>
      <path id="Tracé_215" data-name="Tracé 215" d="M40.938,13.919c-7.926-7.106-18-9.036-27.847-11.424C8.78,1.449,4.367.819,0,0" transform="translate(18.831 369.529)" fill="none" stroke="#000" stroke-linecap="round" stroke-linejoin="round" stroke-width="2"/>
      <path id="Tracé_216" data-name="Tracé 216" d="M37.662,9.825c-7.1-1.91-14.181-3.858-21.29-5.719C10.93,2.681,5.459,1.365,0,0" transform="translate(66.319 220.517)" fill="none" stroke="#000" stroke-linecap="round" stroke-linejoin="round" stroke-width="2"/>
      <path id="Tracé_217" data-name="Tracé 217" d="M39.3,36.025,0,0" transform="translate(96.612 320.404)" fill="none" stroke="#000" stroke-linecap="round" stroke-linejoin="round" stroke-width="2"/>
      <path id="Tracé_218" data-name="Tracé 218" d="M3.275,0C8.19,6.64,13.766,12.986,13.938,21.734l-2.185,1.507L0,8.187" transform="translate(40.119 415.379)" fill="none" stroke="#000" stroke-linecap="round" stroke-linejoin="round" stroke-width="2"/>
      <path id="Tracé_219" data-name="Tracé 219" d="M34.388,4.542C24.657-2.794,14.36.371,4.092,2.9c-1.35.332-2.727.554-4.092.827" transform="translate(16.375 394.462)" fill="none" stroke="#000" stroke-linecap="round" stroke-linejoin="round" stroke-width="2"/>
      <path id="Tracé_220" data-name="Tracé 220" d="M32.75,32.75C25.646,19.594,14.421,10.238,3.234.868,2.458.219,1.092.273,0,0" transform="translate(122.812 304.848)" fill="none" stroke="#000" stroke-linecap="round" stroke-linejoin="round" stroke-width="2"/>
      <path id="Tracé_221" data-name="Tracé 221" d="M11.807,8.187,0,5.794Q.038,4.232.075,2.669L14.263,0" transform="translate(17.668 426.841)" fill="none" stroke="#000" stroke-linecap="round" stroke-linejoin="round" stroke-width="2"/>
      <path id="Tracé_222" data-name="Tracé 222" d="M52.415,18.36,36.061,0c-5.1,7.324-11.693,4.882-18.037,4.512C12.3,4.178,6.54,4.442,0,4.442c4.552,7.353,11.6,5.573,17.209,7.369" transform="translate(16.359 403.569)" fill="none" stroke="#000" stroke-linecap="round" stroke-linejoin="round" stroke-width="2"/>
      <path id="Tracé_223" data-name="Tracé 223" d="M0,3.275C1.911,2.456,3.775,1.083,5.74.92,12.268.379,18.831.273,25.381,0" transform="translate(17.194 364.617)" fill="none" stroke="#000" stroke-linecap="round" stroke-linejoin="round" stroke-width="2"/>
      <path id="Tracé_224" data-name="Tracé 224" d="M0,12.283c5.186-1.91,10.509-3.531,15.472-5.908C16.95,5.667,17.412,2.839,18.83,0l4.913,4.914" transform="translate(9.006 444.034)" fill="none" stroke="#000" stroke-linecap="round" stroke-linejoin="round" stroke-width="2"/>
      <path id="Tracé_225" data-name="Tracé 225" d="M25.381,8.187C18.041,1.986,8.82,1.616,0,0" transform="translate(21.287 399.004)" fill="none" stroke="#000" stroke-linecap="round" stroke-linejoin="round" stroke-width="2"/>
      <path id="Tracé_226" data-name="Tracé 226" d="M3.275,0,11.2,13.211,9.728,14.729a35.731,35.731,0,0,1-3.986-.84C4.109,13.357,2.548,12.609.87,11.919c-.32,2.546-.594,4.73-.87,6.913" transform="translate(31.931 426.841)" fill="none" stroke="#000" stroke-linecap="round" stroke-linejoin="round" stroke-width="2"/>
      <path id="Tracé_227" data-name="Tracé 227" d="M0,25.782c5.459-.546,10.945-.9,16.367-1.7,4.23-.621,8.381-1.787,13.453-2.907L47.929,38.467l2.266-.5c-.356-2.7.066-5.874-1.237-7.986a47.449,47.449,0,0,0-8.91-10.664C30.458,10.906,32.461,9.04,39.618,0c4.046,6.227,8.331,12.14,11.846,18.478,2.227,4.016,4.091,8.668.118,13.034" transform="translate(16.375 393.691)" fill="none" stroke="#000" stroke-linecap="round" stroke-linejoin="round" stroke-width="2"/>
      <path id="Tracé_228" data-name="Tracé 228" d="M0,25.381c6-6.55,12.176-12.959,17.872-19.768C19.019,4.242,16.655.627,20.469,0" transform="translate(0 436.666)" fill="none" stroke="#000" stroke-linecap="round" stroke-linejoin="round" stroke-width="2"/>
      <path id="Tracé_229" data-name="Tracé 229" d="M18.012,0c-.774,2.82-1.548,5.64-2.382,8.677L0,.819" transform="translate(19.65 418.654)" fill="none" stroke="#000" stroke-linecap="round" stroke-linejoin="round" stroke-width="2"/>
      <path id="Tracé_230" data-name="Tracé 230" d="M12.281,2.456,0,0" transform="translate(143.281 195.955)" fill="none" stroke="#000" stroke-linecap="round" stroke-linejoin="round" stroke-width="2"/>
      <path id="Tracé_231" data-name="Tracé 231" d="M8.187,3.275,0,0" transform="translate(131.818 227.067)" fill="none" stroke="#000" stroke-linecap="round" stroke-linejoin="round" stroke-width="2"/>
      <path id="Tracé_232" data-name="Tracé 232" d="M0,25.381,9.825,0" transform="translate(98.25 286.017)" fill="none" stroke="#000" stroke-linecap="round" stroke-linejoin="round" stroke-width="2"/>
      <path id="Tracé_233" data-name="Tracé 233" d="M6.55,5.731,0,0" transform="translate(107.256 291.748)" fill="none" stroke="#000" stroke-linecap="round" stroke-linejoin="round" stroke-width="2"/>
      <path id="Tracé_234" data-name="Tracé 234" d="M0,5.731Q.819,2.866,1.637,0" transform="translate(134.275 209.873)" fill="none" stroke="#000" stroke-linecap="round" stroke-linejoin="round" stroke-width="2"/>
      <path id="Tracé_235" data-name="Tracé 235" d="M0,12.281Q1.638,6.141,3.275,0" transform="translate(129.362 218.061)" fill="none" stroke="#000" stroke-linecap="round" stroke-linejoin="round" stroke-width="2"/>
      <path id="Tracé_236" data-name="Tracé 236" d="M0,15.556Q2.867,7.779,5.731,0" transform="translate(121.993 233.617)" fill="none" stroke="#000" stroke-linecap="round" stroke-linejoin="round" stroke-width="2"/>
      <path id="Tracé_237" data-name="Tracé 237" d="M8.187,2.456,0,0" transform="translate(111.35 247.536)" fill="none" stroke="#000" stroke-linecap="round" stroke-linejoin="round" stroke-width="2"/>
      <path id="Tracé_238" data-name="Tracé 238" d="M4.49,3.275A37.846,37.846,0,0,1,2.124,6.4c-3.236-2-2.372-4.22-.091-6.4" transform="translate(137.154 195.955)" fill="none" stroke="#000" stroke-linecap="round" stroke-linejoin="round" stroke-width="2"/>
      <path id="Tracé_239" data-name="Tracé 239" d="M0,2.456Q.41,1.228.819,0" transform="translate(44.212 410.466)" fill="none" stroke="#000" stroke-linecap="round" stroke-linejoin="round" stroke-width="2"/>
      <path id="Tracé_240" data-name="Tracé 240" d="M0,2.456Q.41,1.228.819,0" transform="translate(120.356 250.811)" fill="none" stroke="#000" stroke-linecap="round" stroke-linejoin="round" stroke-width="2"/>
    </g>
    <g id="Groupe_11" data-name="Groupe 11" transform="matrix(0.469, -0.883, 0.883, 0.469, 300.404, -209.844)">
      <path id="Tracé_241" data-name="Tracé 241" d="M27.469,8.626c-6.5.813-12.992,2.052-19.517,2.306-5.36.209-8.28-2.54-7.922-5.965C.341,1.993,4.831-.764,9.153.193A82.581,82.581,0,0,1,24.963,5.117c3.817,1.7,7.4,3.759,11.653,4.118" transform="translate(174.974 78.908)" fill="none" stroke="#000" stroke-linecap="round" stroke-linejoin="round" stroke-width="2"/>
      <path id="Tracé_242" data-name="Tracé 242" d="M188.516,1.08c6.871-2.515,13.5-.312,18.76,3.259,10.6,7.192,19.193,16.447,22.113,29.664,1.084,4.906-.253,7.334-4.893,7.218a42.009,42.009,0,0,1-10.353-1.782c-9.4-2.685-18.774-5.461-28.038-8.562-4.023-1.347-7.626-3.948-11.646-5.307a73.527,73.527,0,0,0-13.394-3.06,7.2,7.2,0,0,0-8.135,5.479c-.368,1.784,2.829,5.181,5.175,6.492,10.357,5.786,22.069,7.446,33.477,9.816,9.644,2,17.486,6.092,23.917,13.977,8.532,10.461,18.119,20.063,27.3,30,5.911,6.4,10.166,13.331,7.926,23.449-10.77-4.234-21.57-7.686-31.623-12.651-10.172-5.024-21.151-5.824-31.813-8.293a190.4,190.4,0,0,0-20.124-3.589c-2.957-.356-6.14.444-9.115,1.158-3.065.735-2.99,3.562-1.724,5.334a26.774,26.774,0,0,0,7.255,7.309c17.725,10.928,36.376,19.856,56.645,25.111,9.891,2.564,17.791,7.322,18.236,18.89.261,6.754,4.392,11.586,7.274,17.125a48.545,48.545,0,0,1,4.253,12.167c.843,3.951-1.136,7.155-4.763,9.114-3.786,2.045-6.632-.655-9.027-2.576-2.519-2.022-4.121-5.185-6.141-7.875-9.262,11.83-11.5,12.469-24.432,5.523-8.006-4.3-15.565-9.214-20.291-17.549-1.1-1.948-4.814-4.57-5.8-4.042a7.068,7.068,0,0,0-3.129,8.812c1.7,4.794,4.033,9.358,5.976,14.07a16.886,16.886,0,0,1,.647,3.643c-1.422-.2-3.465.12-4.162-.7-3.286-3.863-7.2-7.639-9.032-12.194-3.225-8.017-4.64-16.751-7.7-24.85a60.99,60.99,0,0,0-8.521-14.586c-1.812-2.418-4.857-3.4-8.465-1.474-3.3,1.763-5.417,3.614-4.776,7.457.919,5.5,1.775,11.037,3.107,16.447.873,3.542,1,6.762-1.964,9.1-2.535,2-5.707,2.919-7.187-1.182a125.5,125.5,0,0,1-3.7-13.4c-.621-2.591-.282-5.573-1.454-7.815-.809-1.549-3.479-2.9-5.286-2.86-1.049.022-2.794,2.911-2.9,4.6a96.666,96.666,0,0,0,.474,12.184c.114,1.835,1.171,4.11.43,5.394-1.476,2.557-3.563,5.279-6.088,6.475-1.11.526-4.613-2.079-5.821-4.016-5.313-8.523-6.838-18.164-6.1-27.965.632-8.378,2.646-16.647,3.383-25.023a22.44,22.44,0,0,0-1.852-10.881c-1.916-4.167-6.645-4.538-10.155-1.265-4.885,4.557-6.821,10.665-7.272,17.043-.963,13.622.882,27.051,4.3,40.212,1.011,3.9.6,7.605-2.657,8.889a14.014,14.014,0,0,1-10.146-.547c-4.52-2.185-6.095-7.167-6.119-11.973-.059-12.194.471-24.39.464-36.585,0-6.93-.6-13.859-.93-20.789l-2.053-.446c-.816,2.2-2.29,4.387-2.336,6.6-.237,11.581-.085,23.169-.121,34.754-.016,5.167-2.524,8.878-7.308,8.914a15.151,15.151,0,0,1-9.033-3.559,19.88,19.88,0,0,1-7.263-18.138c1.389-10.25,4.137-20.308,5.845-30.526a171.667,171.667,0,0,0,1.8-19.5c.084-1.643-1.233-3.359-2.26-5.926-8.16,6.934-10.158,15.66-11.018,24.837-.955,10.189-1.725,20.394-2.611,31.037-19.01-9.772-24.377-31.191-13.3-48.745,3.885-6.159,7.485-12.51,10.894-18.943.628-1.186-.288-3.19-.492-4.815-1.422.2-3.012.065-4.24.666-6.787,3.323-8.443,10.147-11.05,16.388-2.488,5.957-2.2,13.172-7.627,17.978C-3.747,67.989-3.5,46.5,11.022,32.125c5-4.953,9.4-10.516,14.077-15.8" transform="translate(29.781 87.063)" fill="none" stroke="#000" stroke-linecap="round" stroke-linejoin="round" stroke-width="2"/>
      <path id="Tracé_243" data-name="Tracé 243" d="M21.46,99.119c2.177-4.25-1.33-7.008-3.226-9.628-2.3-3.182-5.951-5.379-8.963-8.062C3.085,75.917-.245,69.3.014,60.7.3,51.183.291,41.818,3.64,32.6A34.444,34.444,0,0,1,19.711,13.893a7.7,7.7,0,0,1,6.507.068c1.73.99,2.89,3.16.87,5.989-2.61,3.653-4.33,7.974-6.2,12.111-1.946,4.294-2.087,8.655.584,12.784,2.349,3.632,3.827,3.71,5.353-.649a180.62,180.62,0,0,0,6.133-21.927c1.937-9.084,4.973-17.826,14.228-21C52.883-.683,59.7.1,65.965.481,70.684.768,75.324,2.367,80,3.387c1.831.4,5.033.468,5.236,1.281.669,2.679,1.371,6.37.06,8.346A302.5,302.5,0,0,1,66.424,38.62c-2.347,2.837-6.536,4.149-11.054,6.86,1.122-12.042,6.1-20.253,14.894-26.21,4.759-3.224,9.735-6.129,14.613-9.178" transform="translate(33.419 0)" fill="none" stroke="#000" stroke-linecap="round" stroke-linejoin="round" stroke-width="2"/>
      <path id="Tracé_244" data-name="Tracé 244" d="M0,0C27.01,10.886,50.591,27.584,74.387,43.911c16.66,11.431,29.845,26.6,43.951,40.805q28.71,28.911,58.017,57.222c3.544,3.4,8.811,5.016,13.283,7.455" transform="translate(55.489 103.388)" fill="none" stroke="#000" stroke-linecap="round" stroke-linejoin="round" stroke-width="2"/>
      <path id="Tracé_245" data-name="Tracé 245" d="M32.318,29.879a7.669,7.669,0,0,0-1.854-9.122C25.672,16,20.53,11.573,15.912,6.653,11.506,1.956,5.654,1.362,0,0" transform="translate(188.418 56.435)" fill="none" stroke="#000" stroke-linecap="round" stroke-linejoin="round" stroke-width="2"/>
      <path id="Tracé_246" data-name="Tracé 246" d="M41.537.143A96.4,96.4,0,0,0,7.407,4.465c-1.343.417-2.433,1.61-3.681,2.378-2.539,1.562-4.985,3.285-3,6.69,1.783,3.059,4.194,1.615,6.684.686,7.467-2.785,15.028-5.317,22.54-7.986,3.878-1.378,7.726-2.838,11.588-4.26" transform="translate(141.393 56.292)" fill="none" stroke="#000" stroke-linecap="round" stroke-linejoin="round" stroke-width="2"/>
      <path id="Tracé_247" data-name="Tracé 247" d="M37.806,28.989c4.065-1.422,8.5-2.235,12.117-4.4,6.719-4.018,8.146-6.653,2.347-13.129C45.085,3.434,36.088-2.565,24.443,1.1,19.86,2.546,16,6.147,11.539,8.153,7.981,9.752,4.244,12.7,0,9.477" transform="translate(151.222 25.617)" fill="none" stroke="#000" stroke-linecap="round" stroke-linejoin="round" stroke-width="2"/>
      <path id="Tracé_248" data-name="Tracé 248" d="M30.875,10.529C24.4-1.15,12.551-1.706,2.875,2.115A5.524,5.524,0,0,0,0,6.261c0,1.423,1.619,3.872,2.857,4.1C11.131,11.9,19.478,13.1,27.844,14.032c1.092.122,2.421-1.876,3.641-2.893" transform="translate(204.495 142.859)" fill="none" stroke="#000" stroke-linecap="round" stroke-linejoin="round" stroke-width="2"/>
      <path id="Tracé_249" data-name="Tracé 249" d="M29.269,33.073c4.873-4.715,9.677-9.279,9.235-17.078C38.056,8.092,31.216.716,23.173.124,15.825-.417,9.089.674,3.615,6.2,2.706,7.117,1.219,7.463,0,8.073" transform="translate(119.514 2.02)" fill="none" stroke="#000" stroke-linecap="round" stroke-linejoin="round" stroke-width="2"/>
      <path id="Tracé_250" data-name="Tracé 250" d="M0,0C11.992.61,23.991,1.123,35.974,1.87c6.112.38,12.2,1.179,18.3,1.789" transform="translate(0 96.68)" fill="none" stroke="#000" stroke-linecap="round" stroke-linejoin="round" stroke-width="2"/>
      <path id="Tracé_251" data-name="Tracé 251" d="M51.22,1.22A17.343,17.343,0,0,0,48.172.634Q24.086.277,0,0" transform="translate(0 105.217)" fill="none" stroke="#000" stroke-linecap="round" stroke-linejoin="round" stroke-width="2"/>
      <path id="Tracé_252" data-name="Tracé 252" d="M36.371,5.581c-6.734-7-15.5-5.5-23.777-5.334C9.526.309,6.348,1.835,3.5,3.257,1.958,4.029-.291,6.664.031,7.282a8.831,8.831,0,0,0,4.681,4.231,20.465,20.465,0,0,0,9.076.655c7.47-1.362,15.638-.412,21.974-5.978" transform="translate(131.314 115.49)" fill="none" stroke="#000" stroke-linecap="round" stroke-linejoin="round" stroke-width="2"/>
      <path id="Tracé_253" data-name="Tracé 253" d="M4.424,0C-.328,4.337-1.427,10.933,1.985,14.634c2.6,2.815,4.993,2.379,6.707-1.22C11.349,7.836,10.3,3.97,5.034,0" transform="translate(55.333 57.045)" fill="none" stroke="#000" stroke-linecap="round" stroke-linejoin="round" stroke-width="2"/>
      <path id="Tracé_254" data-name="Tracé 254" d="M9.884,5.229c-.406-.814-.613-1.881-1.259-2.388-1.5-1.177-3.313-3-4.809-2.831-1.36.15-2.583,2.5-3.628,4.04-.377.557-.076,1.585-.058,2.4.06,2.688-.9,6.381,2.48,7.113,3.262.707,5.265-2.035,6.082-5.276A12.954,12.954,0,0,1,9.884,5.839" transform="translate(84.63 132.915)" fill="none" stroke="#000" stroke-linecap="round" stroke-linejoin="round" stroke-width="2"/>
      <path id="Tracé_255" data-name="Tracé 255" d="M1.662,11.845l8.879-9.567L9.247,0C7.328.493,4.709.373,3.633,1.6,1.2,4.388-1.55,7.585,1.052,11.845" transform="translate(89.803 11.663)" fill="none" stroke="#000" stroke-linecap="round" stroke-linejoin="round" stroke-width="2"/>
      <path id="Tracé_256" data-name="Tracé 256" d="M7.3,0C5.672,1.22,3.953,2.334,2.439,3.681c-3.118,2.773-3.5,5.669.352,8.736,3.127-3.292,7.387-6,5.116-11.807" transform="translate(67.703 118.022)" fill="none" stroke="#000" stroke-linecap="round" stroke-linejoin="round" stroke-width="2"/>
      <path id="Tracé_257" data-name="Tracé 257" d="M3.52,0C-.551,5.808-.392,12.328.563,18.889.726,20,1.994,21.63,2.938,21.771a4.392,4.392,0,0,0,3.546-1.7C9.318,15.667,7.856,4.455,4.13,0" transform="translate(151.361 186.316)" fill="none" stroke="#000" stroke-linecap="round" stroke-linejoin="round" stroke-width="2"/>
      <path id="Tracé_258" data-name="Tracé 258" d="M6.141,0C.388,4.142-1.523,10.833,1.263,17.073c1.993,4.465,5.095,4.908,8.537,1.22C15.97,11.681,14.46,2.622,6.75,0" transform="translate(103.008 149.73)" fill="none" stroke="#000" stroke-linecap="round" stroke-linejoin="round" stroke-width="2"/>
      <path id="Tracé_259" data-name="Tracé 259" d="M3.873,0C-1.19,3.877-1.411,5.259,3.93,7.157c6.468,2.3,13.34,3.494,20.081,4.967a7.033,7.033,0,0,0,4.214-.621,19.7,19.7,0,0,0,3.7-2.967C30.7,7.52,29.631,5.96,28.238,5.582,22.2,3.94,16.069,2.638,9.97,1.222,8.145.8,6.312.406,4.483,0" transform="translate(150.398 139.973)" fill="none" stroke="#000" stroke-linecap="round" stroke-linejoin="round" stroke-width="2"/>
      <path id="Tracé_260" data-name="Tracé 260" d="M14.634.076C8.645,2.252,2.622,4.385,0,11.052c8,3.445,19.642.005,27.021-8.137C23.936-1.568,19.235.6,15.244.076" transform="translate(127.441 89.896)" fill="none" stroke="#000" stroke-linecap="round" stroke-linejoin="round" stroke-width="2"/>
      <path id="Tracé_261" data-name="Tracé 261" d="M13.316,0C9.454,1.626,5.481,3.043,1.8,5.009.735,5.578-.338,8.126.1,9.052a6.686,6.686,0,0,0,4.094,3.042c4.292,1.056,11.968-3.63,12.6-7.853C16.975,3,14.942,1.423,13.926,0" transform="translate(110.467 58.265)" fill="none" stroke="#000" stroke-linecap="round" stroke-linejoin="round" stroke-width="2"/>
      <path id="Tracé_262" data-name="Tracé 262" d="M11.453,0C5.26,1.759-.21,8.492.006,14.63c.037,1.051,1.91,2.926,2.908,2.908,5.978-.109,12.87-9.24,11.505-15.079C14.2,1.507,12.876.813,12.063,0" transform="translate(73.914 82.046)" fill="none" stroke="#000" stroke-linecap="round" stroke-linejoin="round" stroke-width="2"/>
    </g>
  </g>
</svg>
