<svg xmlns="http://www.w3.org/2000/svg" width="255.19" height="410.116" viewBox="0 0 255.19 410.116">
  <g id="Groupe_2" data-name="Groupe 2" transform="translate(1 0.951)">
    <path id="Tracé_7" data-name="Tracé 7" d="M496.724-307.5c10.455-1.525,21.033-2.481,31.339-4.7,18.388-3.957,32.851-14.031,43.2-29.9,1.846-2.831,3.858-5.952,6.583-7.724,5.305-3.45,8.895-1.837,8.748,4.419-.148,6.349-2.167,12.851-4.384,18.915-5.494,15.031-13.056,28.741-27.994,36.617C542.53-283.712,529.976-280.255,517-278a39.061,39.061,0,0,0-11.716,3.942c-5.833,3.15-5.188,9.287.546,13.022,6.689,4.357,14.222,3.318,20.905,2.237,15.9-2.571,31.844-6.058,43.2-19.277a4.072,4.072,0,0,1,1.951-1.28c1.488-.366,3.038-.48,4.563-.7,0,1.307.411,2.8-.073,3.888-1.775,4-2.982,8.772-5.958,11.638-12.455,12-19.207,27.62-27.928,41.989-4.875,8.034-9.728,16.152-17.705,21.489-8.914,5.964-16.541,5.157-24.793-1.892-1.06-.906-2.174-1.747-3.263-2.618" transform="translate(-333.411 457.038)" fill="none" stroke="#000" stroke-linecap="round" stroke-linejoin="round" stroke-width="2"/>
    <path id="Tracé_8" data-name="Tracé 8" d="M477.357-150.943c-9.583-11.98-19.12-24-28.8-35.9-1.633-2.009-3.875-3.523-5.835-5.265" transform="translate(-314.697 401.764)" fill="none" stroke="#000" stroke-linecap="round" stroke-linejoin="round" stroke-width="2"/>
    <path id="Tracé_9" data-name="Tracé 9" d="M409.664-193.11c-11.082,2.149-16.132,10.7-20.924,19.6-4.948,9.181-10.006,18.3-15.016,27.452" transform="translate(-290.785 402.11)" fill="none" stroke="#000" stroke-linecap="round" stroke-linejoin="round" stroke-width="2"/>
    <path id="Tracé_10" data-name="Tracé 10" d="M324.51-159.542c-12.37,8.407-26.962,4.807-37.974-8.433-15.558-18.7-24.325-40.936-33.907-62.792-1.883-4.3-3.8-8.575-5.83-13.145,6.684-2.875,12.251-.423,17.559,2.111,7.116,3.4,13.857,7.584,20.991,10.938,4.334,2.037,9.1,3.144,13.678,4.669" transform="translate(-246.798 420.165)" fill="none" stroke="#000" stroke-linecap="round" stroke-linejoin="round" stroke-width="2"/>
    <path id="Tracé_11" data-name="Tracé 11" d="M335.724-218.536l11.762-4.574" transform="translate(-277.616 412.507)" fill="none" stroke="#000" stroke-linecap="round" stroke-linejoin="round" stroke-width="2"/>
    <path id="Tracé_12" data-name="Tracé 12" d="M495.724-314.795c12.851-10.019,25.845-19.863,38.5-30.123,7.9-6.406,15.3-13.44,22.922-20.192" transform="translate(-333.064 461.717)" fill="none" stroke="#000" stroke-linecap="round" stroke-linejoin="round" stroke-width="2"/>
    <path id="Tracé_13" data-name="Tracé 13" d="M595.724-383.546c5.413-6.253,9.374-13.211,10.455-21.564" transform="translate(-367.719 475.58)" fill="none" stroke="#000" stroke-linecap="round" stroke-linejoin="round" stroke-width="2"/>
    <path id="Tracé_14" data-name="Tracé 14" d="M586.772-425.268c-1.043-7.291-4.829-13.183-9.849-18.249-4.2-4.24-7.58-3.7-10.3,1.966-2.28,4.752-4.39,9.844-5.186,15-2.185,14.15-9.907,25.045-19.094,35.27-.931,1.036-1.751,2.171-2.622,3.26" transform="translate(-348.312 489.856)" fill="none" stroke="#000" stroke-linecap="round" stroke-linejoin="round" stroke-width="2"/>
    <path id="Tracé_15" data-name="Tracé 15" d="M490.563-405.237c-5.445,3.7-10.529,8.247-16.469,10.8-3.689,1.586-9.528,1.472-12.1-3.062a10.573,10.573,0,0,1,1.144-12.3c6.25-7.462,12.663-14.786,18.916-22.245,6.163-7.352,13.108-14.242,18.134-22.315,12.544-20.147,7.806-31.8-11.056-42.806-11.094-6.473-22.558-12.536-35.778-14.81-13.493-2.32-25.574-.791-36.632,7.41" transform="translate(-305.686 512.953)" fill="none" stroke="#000" stroke-linecap="round" stroke-linejoin="round" stroke-width="2"/>
    <path id="Tracé_16" data-name="Tracé 16" d="M411.408-499.11c-8.948,8.652-9.8,18.641-6.016,30.1,3.67,11.122,6.155,22.63,9.327,33.922,1.063,3.785,2.816,8.245-1.5,10.113-2.172.94-5.946-1.824-9-2.913" transform="translate(-301.024 508.155)" fill="none" stroke="#000" stroke-linecap="round" stroke-linejoin="round" stroke-width="2"/>
    <path id="Tracé_17" data-name="Tracé 17" d="M380.288-437.056c-7.264-9.194-9.835-20.118-11.027-31.374-1.057-9.978-1.417-20.028-2.131-30.748l-8.406,3.312" transform="translate(-285.586 508.179)" fill="none" stroke="#000" stroke-linecap="round" stroke-linejoin="round" stroke-width="2"/>
    <path id="Tracé_18" data-name="Tracé 18" d="M348.543-486.11c-1.96,5.663-5.21,11.229-5.647,17.007-1.513,20,1.375,38.819,18.691,52.291a18.388,18.388,0,0,1,2.639,3.234" transform="translate(-279.98 503.65)" fill="none" stroke="#000" stroke-linecap="round" stroke-linejoin="round" stroke-width="2"/>
    <path id="Tracé_19" data-name="Tracé 19" d="M383.724-366.11c3.7,4.574,7.532,9.053,11.076,13.747,4.132,5.474,4.873,11.7,3.3,18.272" transform="translate(-294.25 462.064)" fill="none" stroke="#000" stroke-linecap="round" stroke-linejoin="round" stroke-width="2"/>
    <path id="Tracé_20" data-name="Tracé 20" d="M350.681-360.08c-13-2.327-21.943-10.607-30.083-20.236-14-16.562-23.309-35.936-33.294-54.914-1.179-2.241-2.271-4.528-3.887-7.758-9.78,9.156-14.574,19.17-13.818,31.942,1.273,21.521,13.032,35.911,30.774,46.379,12.24,7.221,25.855,12.318,35.887,22.926,3.107,3.285,7.935,5.484,7.886,11.066" transform="translate(-254.673 488.706)" fill="none" stroke="#000" stroke-linecap="round" stroke-linejoin="round" stroke-width="2"/>
    <path id="Tracé_21" data-name="Tracé 21" d="M430.724-192.11q.327,6.861.654,13.722" transform="translate(-310.538 401.764)" fill="none" stroke="#000" stroke-linecap="round" stroke-linejoin="round" stroke-width="2"/>
    <path id="Tracé_22" data-name="Tracé 22" d="M431.724-164.11q1.308,12.088,2.614,24.178" transform="translate(-310.885 392.06)" fill="none" stroke="#000" stroke-linecap="round" stroke-linejoin="round" stroke-width="2"/>
    <path id="Tracé_23" data-name="Tracé 23" d="M435.724-110.11c.218,2.178.623,4.356.626,6.534.039,37.464-.031,74.929.086,112.393.019,6.1.748,12.2,1.293,18.293a9.715,9.715,0,0,0,1.341,4.523c1.3,1.884,2.445,4.347,5.84,2.748,3.533-1.664,1.276-3.435.623-5.31-4.455-12.785-4.709-25.925-3.274-39.2" transform="translate(-312.271 373.347)" fill="none" stroke="#000" stroke-linecap="round" stroke-linejoin="round" stroke-width="2"/>
    <path id="Tracé_24" data-name="Tracé 24" d="M445.724-16.695V-29.11" transform="translate(-315.736 345.276)" fill="none" stroke="#000" stroke-linecap="round" stroke-linejoin="round" stroke-width="2"/>
    <path id="Tracé_25" data-name="Tracé 25" d="M445.031-120.239q-.653-11.436-1.307-22.871" transform="translate(-315.043 384.783)" fill="none" stroke="#000" stroke-linecap="round" stroke-linejoin="round" stroke-width="2"/>
    <path id="Tracé_26" data-name="Tracé 26" d="M442.338-162.932q-1.307-12.089-2.614-24.178" transform="translate(-313.657 400.031)" fill="none" stroke="#000" stroke-linecap="round" stroke-linejoin="round" stroke-width="2"/>
    <path id="Tracé_27" data-name="Tracé 27" d="M439.373-251.9c-.218-4.139-.526-8.275-.637-12.416-.446-16.562,5.055-32.036,9.276-47.662,3.84-14.213,7.708-28.312,7.726-43.166a6.856,6.856,0,0,1,.625-1.96" transform="translate(-313.306 458.945)" fill="none" stroke="#000" stroke-linecap="round" stroke-linejoin="round" stroke-width="2"/>
    <path id="Tracé_28" data-name="Tracé 28" d="M465.724-383.784c.218-8.712.4-17.426.676-26.137.075-2.4.414-4.792.631-7.189" transform="translate(-322.667 479.738)" fill="none" stroke="#000" stroke-linecap="round" stroke-linejoin="round" stroke-width="2"/>
    <path id="Tracé_29" data-name="Tracé 29" d="M467.724-448.853q1.634-10.128,3.267-20.257" transform="translate(-323.361 497.759)" fill="none" stroke="#000" stroke-linecap="round" stroke-linejoin="round" stroke-width="2"/>
    <path id="Tracé_30" data-name="Tracé 30" d="M255.157-349.11c-10.206,13.711-7.872,26.648.821,40.409,3.566,5.646,8.981,10.125,13.555,15.135" transform="translate(-247.364 456.173)" fill="none" stroke="#000" stroke-linecap="round" stroke-linejoin="round" stroke-width="2"/>
    <path id="Tracé_31" data-name="Tracé 31" d="M287.724-258.11a113.362,113.362,0,0,0,33.964,20.3,50.988,50.988,0,0,1,5.9,3.228" transform="translate(-260.981 424.636)" fill="none" stroke="#000" stroke-linecap="round" stroke-linejoin="round" stroke-width="2"/>
    <path id="Tracé_32" data-name="Tracé 32" d="M260.654-354.11c0,.871-.327,1.928.048,2.587,13.557,23.9,35.2,38.228,59.534,48.765,6.634,2.872,14.694,2.448,22.1,3.538" transform="translate(-251.554 457.905)" fill="none" stroke="#000" stroke-linecap="round" stroke-linejoin="round" stroke-width="2"/>
  </g>
</svg>
