<svg xmlns="http://www.w3.org/2000/svg" width="436.233" height="348.89" viewBox="0 0 436.233 348.89">
  <g id="Groupe_4" data-name="Groupe 4" transform="matrix(0.07, 0.998, -0.998, 0.07, 415.445, -6.955)">
    <path id="Tracé_51" data-name="Tracé 51" d="M1.4,0C10.977,11.21,20.5,22.468,30.142,33.615c9.7,11.21,23.8,15.909,35.658,23.92A118.36,118.36,0,0,1,81.141,70.2c1.532,1.466,1.531,4.534,2.231,6.87-2.568.233-5.328,1.194-7.675.58-13.321-3.483-23.292-12.608-33.611-20.96C32.049,48.564,22.352,40.011,12.633,31.5,5.057,24.87.624,16.639.667,6.305A34.255,34.255,0,0,0,0,1.4" transform="translate(30.505 123.12)" fill="none" stroke="#000" stroke-linecap="round" stroke-linejoin="round" stroke-width="2"/>
    <path id="Tracé_52" data-name="Tracé 52" d="M2.126,118.216c-4.643-7.112-.643-13.462,2.187-19.578,9.148-19.767,20.108-38.281,38.47-51.154.749-.525,1.81-.6,3.441-1.117-.478,5.793-.328,11.279-1.491,16.471C42.7,71.911,46,79.688,50.618,86.588c11.456,17.119,23.2,34.09,35.79,50.383,5.781,7.485,13.593,13.493,20.962,19.594,1.777,1.472,5.452.652,8.255.885.234-2.8,1.569-6.162.488-8.3-2.876-5.689-5.879-11.86-10.475-16.024C93.909,122.5,84.3,110.374,75.567,97.279c-5.9-8.837-13.235-16.7-19.414-25.361-5.948-8.341-6.891-18.5-1.176-26.343C65.916,30.557,78.993,17.253,97.422,11.061a15.773,15.773,0,0,1,8.7-.517c-2.2,2.961-4.494,5.864-6.6,8.9-6.425,9.259-5.564,19.7-2.575,29.339,5.227,16.852,12.617,32.9,23.579,47.015.918,1.181,1.633,2.776,2.844,3.423,3.662,1.953,6.466,6.577,11.937,2.992,5.5-3.606,4.183-8.6,2.535-12.638-3.819-9.36-8.716-18.278-13.1-27.409-4.254-8.85-9.223-17.469-12.372-26.7-2.6-7.632-4.85-16.624,1.311-23.594,7.112-8.044,16.9-8.675,27.18-7.263,10.26,1.41,20.914,3.27,28.718-4.6,5.212,3.255,10.078,6.913,15.453,9.522,11.317,5.5,14.929,14.878,12.034,28.16-3.18,14.6-9.456,28.007-14.066,42.038-.831,2.529-1.1,6.109.084,8.257,2.582,4.68,8.555,4.026,11.489-2.1a125.025,125.025,0,0,0,8.479-24.452c3.064-12.619,5.152-25.474,7.66-38.262C221.187,28.8,231.6,36.25,239.643,46.746c8.246,10.768,6.842,22.261,2.005,33.6-6.558,15.373-16.572,28.51-27.917,40.692q-9.633,10.345-18.88,21.049a17.093,17.093,0,0,0-2.8,5.576,25.93,25.93,0,0,0-.762,4.883c2.1,0,4.906.868,6.177-.16a78.977,78.977,0,0,0,11.283-11.1,297.525,297.525,0,0,0,45.529-76.348c.295-.717-.4-1.841-.633-2.775" transform="translate(28.38 0)" fill="none" stroke="#000" stroke-linecap="round" stroke-linejoin="round" stroke-width="2"/>
    <path id="Tracé_53" data-name="Tracé 53" d="M28.4,0C16.93,9.443,12.843,22.682,10.325,36.457,9.07,43.319,9.242,50.443,8.789,57.45,7.551,76.6,17.269,88.942,34.071,95.832c13.235,5.427,27.089,9.329,40.551,14.226a189.614,189.614,0,0,1,23.492,10.486c-7.469,3.823-14.416,1.066-21.362-.074-22.146-3.634-42.34-12.75-62.4-22.3C10.024,96.113,5.214,94.337,0,97.257c5.4,6.987,10.935,13.484,15.72,20.495,9.361,13.716,12.885,29.735,16.86,45.5,10.178,40.364,38.239,61.984,76.407,72.81,31.262,8.868,46.311-10.721,55.342-32.879,2.292-5.623,4.211-11.466,7.159-16.729,1.963-3.506,5.5-6.112,8.22-9.221,1.1-1.257,2.6-2.722,2.719-4.189.948-11.678.325-11.86-11.117-8.461-21.187,6.292-42.5,12.153-63.732,18.3a145.494,145.494,0,0,1-44.845,5.587" transform="translate(0 115.413)" fill="none" stroke="#000" stroke-linecap="round" stroke-linejoin="round" stroke-width="2"/>
    <path id="Tracé_54" data-name="Tracé 54" d="M0,2.271C8.4-2.218,13.575-.14,15.3,9.3c1.9,10.417,3.1,20.977,4.262,31.513.975,8.844,1.458,17.742,2.158,26.617" transform="translate(310.05 128.556)" fill="none" stroke="#000" stroke-linecap="round" stroke-linejoin="round" stroke-width="2"/>
    <path id="Tracé_55" data-name="Tracé 55" d="M141.524,0c-.7,7.239-1.306,14.49-2.118,21.717-3.243,28.813-13.666,54.537-32.121,77.144C94.367,114.684,79.161,126.872,59.548,133.1c-15.99,5.08-32.391-.186-42.062-14.681C11.807,109.909,5.839,101.589,0,93.181" transform="translate(190.245 205.092)" fill="none" stroke="#000" stroke-linecap="round" stroke-linejoin="round" stroke-width="2"/>
    <path id="Tracé_56" data-name="Tracé 56" d="M0,52.546c.468-4.671.957-9.34,1.386-14.014.106-1.158.015-2.334.015-3.5,0-4.2-1.667-9.656.35-12.35a23.515,23.515,0,0,1,17.871-9.268c9.791-.407,19.623.184,29.419-.16C71.027,12.483,93.021,11.5,112.8,0" transform="translate(188.143 240.122)" fill="none" stroke="#000" stroke-linecap="round" stroke-linejoin="round" stroke-width="2"/>
    <path id="Tracé_57" data-name="Tracé 57" d="M0,0C1.869,6.773,3.2,13.754,5.707,20.279A358.745,358.745,0,0,1,23.039,78.485a77.567,77.567,0,0,1,1.375,15.4c-.011,4.815,2.33,5.484,6.405,5.741,4.813.3,4.917-2.041,5-5.739.28-12.8-4.245-24.538-7.9-36.4C23.477,43.095,18.189,28.967,13.343,14.7a59.784,59.784,0,0,1-1.432-6.3" transform="translate(211.263 330.501)" fill="none" stroke="#000" stroke-linecap="round" stroke-linejoin="round" stroke-width="2"/>
    <path id="Tracé_58" data-name="Tracé 58" d="M0,22.42C8.875,29.192,17.069,37.209,26.752,42.5c28.129,15.376,56.714,29.943,85.425,44.215,9.542,4.743,19.975,7.717,30.067,11.315,2.9,1.034,5.615-.142,5.486-3.446-.444-11.453-1.461-22.883-1.956-34.336-.453-10.5-.7-21.017-.668-31.525a90.244,90.244,0,0,1,1.444-16.092c.8-4.315,2.681-8.43,4.083-12.633" transform="translate(30.505 144.839)" fill="none" stroke="#000" stroke-linecap="round" stroke-linejoin="round" stroke-width="2"/>
    <path id="Tracé_59" data-name="Tracé 59" d="M0,0C19.151,3.5,38.183,8.054,57.483,10.219c19.938,2.238,40.135,2.187,60.222,3.049a41.926,41.926,0,0,0,6.3-.657" transform="translate(55.727 249.931)" fill="none" stroke="#000" stroke-linecap="round" stroke-linejoin="round" stroke-width="2"/>
    <path id="Tracé_60" data-name="Tracé 60" d="M0,0C19.672,27.828,42.136,52.979,70.072,72.849c8.415,5.985,16.744,12.209,27.314,14.025,2.8.481,5.6.936,8.407,1.4" transform="translate(69.039 114.713)" fill="none" stroke="#000" stroke-linecap="round" stroke-linejoin="round" stroke-width="2"/>
    <path id="Tracé_61" data-name="Tracé 61" d="M6.306,0C4.437,10.976,2.511,21.943.739,32.935c-.483,3-.5,6.066-.739,9.1" transform="translate(186.041 34.843)" fill="none" stroke="#000" stroke-linecap="round" stroke-linejoin="round" stroke-width="2"/>
    <path id="Tracé_62" data-name="Tracé 62" d="M1.4,0Q.7,3.854,0,7.707" transform="translate(184.64 84.586)" fill="none" stroke="#000" stroke-linecap="round" stroke-linejoin="round" stroke-width="2"/>
    <path id="Tracé_63" data-name="Tracé 63" d="M1.4,0Q.7,1.752,0,3.5" transform="translate(183.239 102.802)" fill="none" stroke="#000" stroke-linecap="round" stroke-linejoin="round" stroke-width="2"/>
    <path id="Tracé_64" data-name="Tracé 64" d="M100.188,0C91.78,9.341,83.544,18.844,74.93,27.992,56.271,47.81,32.415,59.308,7.7,69.348c-2.531,1.028-5.133,1.88-7.7,2.815" transform="translate(183.939 126.623)" fill="none" stroke="#000" stroke-linecap="round" stroke-linejoin="round" stroke-width="2"/>
    <path id="Tracé_65" data-name="Tracé 65" d="M99.487,0C84.45,18.629,63.486,28.008,42,36.345c-13.832,5.368-27.991,9.9-42,14.8" transform="translate(186.742 187.576)" fill="none" stroke="#000" stroke-linecap="round" stroke-linejoin="round" stroke-width="2"/>
    <path id="Tracé_66" data-name="Tracé 66" d="M0,0C10.391,25.681,25.347,48.533,43.527,69.283c4.546,5.189,9.995,9.662,15.428,13.959,1.922,1.52,5.034,1.532,7.6,2.233" transform="translate(112.477 60.065)" fill="none" stroke="#000" stroke-linecap="round" stroke-linejoin="round" stroke-width="2"/>
    <path id="Tracé_67" data-name="Tracé 67" d="M65.157,0c-8.5,21.967-22.483,39.925-40.7,54.562C17.438,60.2,9.484,64.462,0,64.456" transform="translate(181.837 81.083)" fill="none" stroke="#000" stroke-linecap="round" stroke-linejoin="round" stroke-width="2"/>
    <path id="Tracé_68" data-name="Tracé 68" d="M76.367,31.528C65.1,29.166,56.651,21.447,46.915,16.163,37.462,11.033,28.077,5.57,18.1,1.694,12.669-.416,6.073.467,0,0" transform="translate(190.946 277.255)" fill="none" stroke="#000" stroke-linecap="round" stroke-linejoin="round" stroke-width="2"/>
    <path id="Tracé_69" data-name="Tracé 69" d="M0,0C10.439,14.266,21.4,28.061,26.921,45.445c2.233,7.036-1.283,12.686-1,19.011" transform="translate(283.426 65.67)" fill="none" stroke="#000" stroke-linecap="round" stroke-linejoin="round" stroke-width="2"/>
    <path id="Tracé_70" data-name="Tracé 70" d="M54.648,0Q31.178,18.917,7.709,37.835c-2.583,2.084-5.14,4.2-7.709,6.3" transform="translate(240.689 147.641)" fill="none" stroke="#000" stroke-linecap="round" stroke-linejoin="round" stroke-width="2"/>
    <path id="Tracé_71" data-name="Tracé 71" d="M56.049,0c-4.2,6.306-8.138,12.811-12.666,18.875a68.223,68.223,0,0,1-38.5,25.882c-1.475.382-3.248-.385-4.883-.619" transform="translate(241.39 148.342)" fill="none" stroke="#000" stroke-linecap="round" stroke-linejoin="round" stroke-width="2"/>
    <path id="Tracé_72" data-name="Tracé 72" d="M0,0,2.1,33.629" transform="translate(178.334 242.925)" fill="none" stroke="#000" stroke-linecap="round" stroke-linejoin="round" stroke-width="2"/>
  </g>
</svg>
