<svg xmlns="http://www.w3.org/2000/svg" width="358.217" height="310.954" viewBox="0 0 358.217 310.954">
  <g id="Groupe_3" data-name="Groupe 3" transform="matrix(0.469, -0.883, 0.883, 0.469, -14.416, 208.636)">
    <path id="Tracé_241" data-name="Tracé 241" d="M27.469,8.626c-6.5.813-12.992,2.052-19.517,2.306-5.36.209-8.28-2.54-7.922-5.965C.341,1.993,4.831-.764,9.153.193A82.581,82.581,0,0,1,24.963,5.117c3.817,1.7,7.4,3.759,11.653,4.118" transform="translate(174.974 78.908)" fill="none" stroke="#000" stroke-linecap="round" stroke-linejoin="round" stroke-width="2"/>
    <path id="Tracé_242" data-name="Tracé 242" d="M188.516,1.08c6.871-2.515,13.5-.312,18.76,3.259,10.6,7.192,19.193,16.447,22.113,29.664,1.084,4.906-.253,7.334-4.893,7.218a42.009,42.009,0,0,1-10.353-1.782c-9.4-2.685-18.774-5.461-28.038-8.562-4.023-1.347-7.626-3.948-11.646-5.307a73.527,73.527,0,0,0-13.394-3.06,7.2,7.2,0,0,0-8.135,5.479c-.368,1.784,2.829,5.181,5.175,6.492,10.357,5.786,22.069,7.446,33.477,9.816,9.644,2,17.486,6.092,23.917,13.977,8.532,10.461,18.119,20.063,27.3,30,5.911,6.4,10.166,13.331,7.926,23.449-10.77-4.234-21.57-7.686-31.623-12.651-10.172-5.024-21.151-5.824-31.813-8.293a190.4,190.4,0,0,0-20.124-3.589c-2.957-.356-6.14.444-9.115,1.158-3.065.735-2.99,3.562-1.724,5.334a26.774,26.774,0,0,0,7.255,7.309c17.725,10.928,36.376,19.856,56.645,25.111,9.891,2.564,17.791,7.322,18.236,18.89.261,6.754,4.392,11.586,7.274,17.125a48.545,48.545,0,0,1,4.253,12.167c.843,3.951-1.136,7.155-4.763,9.114-3.786,2.045-6.632-.655-9.027-2.576-2.519-2.022-4.121-5.185-6.141-7.875-9.262,11.83-11.5,12.469-24.432,5.523-8.006-4.3-15.565-9.214-20.291-17.549-1.1-1.948-4.814-4.57-5.8-4.042a7.068,7.068,0,0,0-3.129,8.812c1.7,4.794,4.033,9.358,5.976,14.07a16.886,16.886,0,0,1,.647,3.643c-1.422-.2-3.465.12-4.162-.7-3.286-3.863-7.2-7.639-9.032-12.194-3.225-8.017-4.64-16.751-7.7-24.85a60.99,60.99,0,0,0-8.521-14.586c-1.812-2.418-4.857-3.4-8.465-1.474-3.3,1.763-5.417,3.614-4.776,7.457.919,5.5,1.775,11.037,3.107,16.447.873,3.542,1,6.762-1.964,9.1-2.535,2-5.707,2.919-7.187-1.182a125.5,125.5,0,0,1-3.7-13.4c-.621-2.591-.282-5.573-1.454-7.815-.809-1.549-3.479-2.9-5.286-2.86-1.049.022-2.794,2.911-2.9,4.6a96.666,96.666,0,0,0,.474,12.184c.114,1.835,1.171,4.11.43,5.394-1.476,2.557-3.563,5.279-6.088,6.475-1.11.526-4.613-2.079-5.821-4.016-5.313-8.523-6.838-18.164-6.1-27.965.632-8.378,2.646-16.647,3.383-25.023a22.44,22.44,0,0,0-1.852-10.881c-1.916-4.167-6.645-4.538-10.155-1.265-4.885,4.557-6.821,10.665-7.272,17.043-.963,13.622.882,27.051,4.3,40.212,1.011,3.9.6,7.605-2.657,8.889a14.014,14.014,0,0,1-10.146-.547c-4.52-2.185-6.095-7.167-6.119-11.973-.059-12.194.471-24.39.464-36.585,0-6.93-.6-13.859-.93-20.789l-2.053-.446c-.816,2.2-2.29,4.387-2.336,6.6-.237,11.581-.085,23.169-.121,34.754-.016,5.167-2.524,8.878-7.308,8.914a15.151,15.151,0,0,1-9.033-3.559,19.88,19.88,0,0,1-7.263-18.138c1.389-10.25,4.137-20.308,5.845-30.526a171.667,171.667,0,0,0,1.8-19.5c.084-1.643-1.233-3.359-2.26-5.926-8.16,6.934-10.158,15.66-11.018,24.837-.955,10.189-1.725,20.394-2.611,31.037-19.01-9.772-24.377-31.191-13.3-48.745,3.885-6.159,7.485-12.51,10.894-18.943.628-1.186-.288-3.19-.492-4.815-1.422.2-3.012.065-4.24.666-6.787,3.323-8.443,10.147-11.05,16.388-2.488,5.957-2.2,13.172-7.627,17.978C-3.747,67.989-3.5,46.5,11.022,32.125c5-4.953,9.4-10.516,14.077-15.8" transform="translate(29.781 87.063)" fill="none" stroke="#000" stroke-linecap="round" stroke-linejoin="round" stroke-width="2"/>
    <path id="Tracé_243" data-name="Tracé 243" d="M21.46,99.119c2.177-4.25-1.33-7.008-3.226-9.628-2.3-3.182-5.951-5.379-8.963-8.062C3.085,75.917-.245,69.3.014,60.7.3,51.183.291,41.818,3.64,32.6A34.444,34.444,0,0,1,19.711,13.893a7.7,7.7,0,0,1,6.507.068c1.73.99,2.89,3.16.87,5.989-2.61,3.653-4.33,7.974-6.2,12.111-1.946,4.294-2.087,8.655.584,12.784,2.349,3.632,3.827,3.71,5.353-.649a180.62,180.62,0,0,0,6.133-21.927c1.937-9.084,4.973-17.826,14.228-21C52.883-.683,59.7.1,65.965.481,70.684.768,75.324,2.367,80,3.387c1.831.4,5.033.468,5.236,1.281.669,2.679,1.371,6.37.06,8.346A302.5,302.5,0,0,1,66.424,38.62c-2.347,2.837-6.536,4.149-11.054,6.86,1.122-12.042,6.1-20.253,14.894-26.21,4.759-3.224,9.735-6.129,14.613-9.178" transform="translate(33.419 0)" fill="none" stroke="#000" stroke-linecap="round" stroke-linejoin="round" stroke-width="2"/>
    <path id="Tracé_244" data-name="Tracé 244" d="M0,0C27.01,10.886,50.591,27.584,74.387,43.911c16.66,11.431,29.845,26.6,43.951,40.805q28.71,28.911,58.017,57.222c3.544,3.4,8.811,5.016,13.283,7.455" transform="translate(55.489 103.388)" fill="none" stroke="#000" stroke-linecap="round" stroke-linejoin="round" stroke-width="2"/>
    <path id="Tracé_245" data-name="Tracé 245" d="M32.318,29.879a7.669,7.669,0,0,0-1.854-9.122C25.672,16,20.53,11.573,15.912,6.653,11.506,1.956,5.654,1.362,0,0" transform="translate(188.418 56.435)" fill="none" stroke="#000" stroke-linecap="round" stroke-linejoin="round" stroke-width="2"/>
    <path id="Tracé_246" data-name="Tracé 246" d="M41.537.143A96.4,96.4,0,0,0,7.407,4.465c-1.343.417-2.433,1.61-3.681,2.378-2.539,1.562-4.985,3.285-3,6.69,1.783,3.059,4.194,1.615,6.684.686,7.467-2.785,15.028-5.317,22.54-7.986,3.878-1.378,7.726-2.838,11.588-4.26" transform="translate(141.393 56.292)" fill="none" stroke="#000" stroke-linecap="round" stroke-linejoin="round" stroke-width="2"/>
    <path id="Tracé_247" data-name="Tracé 247" d="M37.806,28.989c4.065-1.422,8.5-2.235,12.117-4.4,6.719-4.018,8.146-6.653,2.347-13.129C45.085,3.434,36.088-2.565,24.443,1.1,19.86,2.546,16,6.147,11.539,8.153,7.981,9.752,4.244,12.7,0,9.477" transform="translate(151.222 25.617)" fill="none" stroke="#000" stroke-linecap="round" stroke-linejoin="round" stroke-width="2"/>
    <path id="Tracé_248" data-name="Tracé 248" d="M30.875,10.529C24.4-1.15,12.551-1.706,2.875,2.115A5.524,5.524,0,0,0,0,6.261c0,1.423,1.619,3.872,2.857,4.1C11.131,11.9,19.478,13.1,27.844,14.032c1.092.122,2.421-1.876,3.641-2.893" transform="translate(204.495 142.859)" fill="none" stroke="#000" stroke-linecap="round" stroke-linejoin="round" stroke-width="2"/>
    <path id="Tracé_249" data-name="Tracé 249" d="M29.269,33.073c4.873-4.715,9.677-9.279,9.235-17.078C38.056,8.092,31.216.716,23.173.124,15.825-.417,9.089.674,3.615,6.2,2.706,7.117,1.219,7.463,0,8.073" transform="translate(119.514 2.02)" fill="none" stroke="#000" stroke-linecap="round" stroke-linejoin="round" stroke-width="2"/>
    <path id="Tracé_250" data-name="Tracé 250" d="M0,0C11.992.61,23.991,1.123,35.974,1.87c6.112.38,12.2,1.179,18.3,1.789" transform="translate(0 96.68)" fill="none" stroke="#000" stroke-linecap="round" stroke-linejoin="round" stroke-width="2"/>
    <path id="Tracé_251" data-name="Tracé 251" d="M51.22,1.22A17.343,17.343,0,0,0,48.172.634Q24.086.277,0,0" transform="translate(0 105.217)" fill="none" stroke="#000" stroke-linecap="round" stroke-linejoin="round" stroke-width="2"/>
    <path id="Tracé_252" data-name="Tracé 252" d="M36.371,5.581c-6.734-7-15.5-5.5-23.777-5.334C9.526.309,6.348,1.835,3.5,3.257,1.958,4.029-.291,6.664.031,7.282a8.831,8.831,0,0,0,4.681,4.231,20.465,20.465,0,0,0,9.076.655c7.47-1.362,15.638-.412,21.974-5.978" transform="translate(131.314 115.49)" fill="none" stroke="#000" stroke-linecap="round" stroke-linejoin="round" stroke-width="2"/>
    <path id="Tracé_253" data-name="Tracé 253" d="M4.424,0C-.328,4.337-1.427,10.933,1.985,14.634c2.6,2.815,4.993,2.379,6.707-1.22C11.349,7.836,10.3,3.97,5.034,0" transform="translate(55.333 57.045)" fill="none" stroke="#000" stroke-linecap="round" stroke-linejoin="round" stroke-width="2"/>
    <path id="Tracé_254" data-name="Tracé 254" d="M9.884,5.229c-.406-.814-.613-1.881-1.259-2.388-1.5-1.177-3.313-3-4.809-2.831-1.36.15-2.583,2.5-3.628,4.04-.377.557-.076,1.585-.058,2.4.06,2.688-.9,6.381,2.48,7.113,3.262.707,5.265-2.035,6.082-5.276A12.954,12.954,0,0,1,9.884,5.839" transform="translate(84.63 132.915)" fill="none" stroke="#000" stroke-linecap="round" stroke-linejoin="round" stroke-width="2"/>
    <path id="Tracé_255" data-name="Tracé 255" d="M1.662,11.845l8.879-9.567L9.247,0C7.328.493,4.709.373,3.633,1.6,1.2,4.388-1.55,7.585,1.052,11.845" transform="translate(89.803 11.663)" fill="none" stroke="#000" stroke-linecap="round" stroke-linejoin="round" stroke-width="2"/>
    <path id="Tracé_256" data-name="Tracé 256" d="M7.3,0C5.672,1.22,3.953,2.334,2.439,3.681c-3.118,2.773-3.5,5.669.352,8.736,3.127-3.292,7.387-6,5.116-11.807" transform="translate(67.703 118.022)" fill="none" stroke="#000" stroke-linecap="round" stroke-linejoin="round" stroke-width="2"/>
    <path id="Tracé_257" data-name="Tracé 257" d="M3.52,0C-.551,5.808-.392,12.328.563,18.889.726,20,1.994,21.63,2.938,21.771a4.392,4.392,0,0,0,3.546-1.7C9.318,15.667,7.856,4.455,4.13,0" transform="translate(151.361 186.316)" fill="none" stroke="#000" stroke-linecap="round" stroke-linejoin="round" stroke-width="2"/>
    <path id="Tracé_258" data-name="Tracé 258" d="M6.141,0C.388,4.142-1.523,10.833,1.263,17.073c1.993,4.465,5.095,4.908,8.537,1.22C15.97,11.681,14.46,2.622,6.75,0" transform="translate(103.008 149.73)" fill="none" stroke="#000" stroke-linecap="round" stroke-linejoin="round" stroke-width="2"/>
    <path id="Tracé_259" data-name="Tracé 259" d="M3.873,0C-1.19,3.877-1.411,5.259,3.93,7.157c6.468,2.3,13.34,3.494,20.081,4.967a7.033,7.033,0,0,0,4.214-.621,19.7,19.7,0,0,0,3.7-2.967C30.7,7.52,29.631,5.96,28.238,5.582,22.2,3.94,16.069,2.638,9.97,1.222,8.145.8,6.312.406,4.483,0" transform="translate(150.398 139.973)" fill="none" stroke="#000" stroke-linecap="round" stroke-linejoin="round" stroke-width="2"/>
    <path id="Tracé_260" data-name="Tracé 260" d="M14.634.076C8.645,2.252,2.622,4.385,0,11.052c8,3.445,19.642.005,27.021-8.137C23.936-1.568,19.235.6,15.244.076" transform="translate(127.441 89.896)" fill="none" stroke="#000" stroke-linecap="round" stroke-linejoin="round" stroke-width="2"/>
    <path id="Tracé_261" data-name="Tracé 261" d="M13.316,0C9.454,1.626,5.481,3.043,1.8,5.009.735,5.578-.338,8.126.1,9.052a6.686,6.686,0,0,0,4.094,3.042c4.292,1.056,11.968-3.63,12.6-7.853C16.975,3,14.942,1.423,13.926,0" transform="translate(110.467 58.265)" fill="none" stroke="#000" stroke-linecap="round" stroke-linejoin="round" stroke-width="2"/>
    <path id="Tracé_262" data-name="Tracé 262" d="M11.453,0C5.26,1.759-.21,8.492.006,14.63c.037,1.051,1.91,2.926,2.908,2.908,5.978-.109,12.87-9.24,11.505-15.079C14.2,1.507,12.876.813,12.063,0" transform="translate(73.914 82.046)" fill="none" stroke="#000" stroke-linecap="round" stroke-linejoin="round" stroke-width="2"/>
  </g>
</svg>
