<svg xmlns="http://www.w3.org/2000/svg" width="466.391" height="284.707" viewBox="0 0 466.391 284.707">
  <g id="Groupe_10" data-name="Groupe 10" transform="matrix(0.035, -0.999, 0.999, 0.035, -2.45, 278.232)">
    <path id="Tracé_109" data-name="Tracé 109" d="M6.17,77.465c36.594-3.848,67.892-20.517,97.3-41.118,10.073-7.054,18.892-15.978,27.838-24.514,2.7-2.576,3.9-6.724,5.784-10.152L136.073,0c-4.274.987-8.916,1.213-12.763,3.08C95.091,16.774,66.731,30.236,39.074,45c-10.5,5.6-19.478,14.191-28.667,21.987-2.568,2.179-4.269,6.227-4.9,9.686C3.324,88.63,1.791,100.7,0,112.8c19.385,3.471,38.195.326,57-6.489,23.969-8.685,44.361-22.748,63.854-38.595,2.013-1.637,4.853-2.256,7.309-3.348" transform="translate(146.075 294.985)" fill="none" stroke="#000" stroke-linecap="round" stroke-linejoin="round" stroke-width="2"/>
    <path id="Tracé_110" data-name="Tracé 110" d="M129.3,64.259C109.706,45.128,88.342,28.3,62.9,17.781,47.221,11.3,30.843,6.453,14.625,1.363,10.292,0,5.392.446,0,0,6.015,9.791,15.387,13.391,24.452,17.685c9.479,4.49,18.522,9.89,27.9,14.613,26.386,13.292,51.069,29.847,78.584,40.968" transform="translate(18.036 268.072)" fill="none" stroke="#000" stroke-linecap="round" stroke-linejoin="round" stroke-width="2"/>
    <path id="Tracé_111" data-name="Tracé 111" d="M1.562,86.033C16.03,82.857,29.218,76.8,41.714,68.892,60.144,57.226,78.882,46.049,97.326,34.4A96.631,96.631,0,0,0,127.575,4.93c.824-1.284.62-3.227.892-4.865a43.437,43.437,0,0,0-4.909.025C107,1.989,94.125,12.12,80.2,19.788,63.926,28.752,47.259,37.274,32.086,47.881,20.818,55.759,11.64,66.635,1.6,76.247A5.063,5.063,0,0,0,0,79.481C.147,89.854.47,100.224.743,110.6" transform="translate(156.414 215.186)" fill="none" stroke="#000" stroke-linecap="round" stroke-linejoin="round" stroke-width="2"/>
    <path id="Tracé_112" data-name="Tracé 112" d="M.819,108.759C22.9,101.8,40.347,87.6,56.356,71.776,72,56.314,86.863,40.016,101.345,23.451c5.374-6.147,8.69-14.093,12.946-21.219L112.423,0c-3.36,1.32-7.245,1.957-9.993,4.072C86.425,16.4,70.393,28.72,54.946,41.729,41.954,52.671,29.265,64.074,17.381,76.193,10.615,83.092,5.731,91.838,0,99.753" transform="translate(156.338 155.616)" fill="none" stroke="#000" stroke-linecap="round" stroke-linejoin="round" stroke-width="2"/>
    <path id="Tracé_113" data-name="Tracé 113" d="M113.051,84.083c4.161-10.844,4.974-13.821-6.645-21.97C89.31,50.122,71.92,38.462,54,27.76,37.255,17.762,19.656,9.2,2.432,0L0,2.435C4.388,8.91,8.078,16.017,13.283,21.749,37.159,48.042,65.142,68.487,99.123,80.02c4.986,1.692,11.817,2.511,14.132,6.1,1.917,2.97-1.579,9.426-2.656,14.341-.837,3.817-1.642,7.641-2.46,11.462" transform="translate(31.006 294.098)" fill="none" stroke="#000" stroke-linecap="round" stroke-linejoin="round" stroke-width="2"/>
    <path id="Tracé_114" data-name="Tracé 114" d="M107.667,69.562,93.8,122.446l-3.172-.545c.5-5.437.459-10.99,1.6-16.29q3.543-16.494,8.211-32.735c1.061-3.692,1.105-5.822-1.583-9.2a132.433,132.433,0,0,0-32.893-29.4C53.194,26.152,41.228,16.684,28.09,9.255,20.113,4.745,10.577,2.992,1.741,0L0,2.27C3.958,9.417,7.2,17.09,12,23.617c16.543,22.5,36.79,40.848,62.978,51.52,7.22,2.943,15.219,3.978,22.86,5.888" transform="translate(38.028 340.55)" fill="none" stroke="#000" stroke-linecap="round" stroke-linejoin="round" stroke-width="2"/>
    <path id="Tracé_115" data-name="Tracé 115" d="M27.923,55.595c.273-8.734.964-17.479.712-26.2C28.324,18.607,25.674,8.461,17.394,0,7.808,10.881,5.851,24.305,2.827,36.832-1.884,56.339-.152,76.09,3.963,95.758c1.6,7.637.762,15.784,1.035,23.7" transform="translate(99.759 0)" fill="none" stroke="#000" stroke-linecap="round" stroke-linejoin="round" stroke-width="2"/>
    <path id="Tracé_116" data-name="Tracé 116" d="M8.953,147.937c-.819-1.637-1.345-3.529-2.509-4.867-3.9-4.488-2.306-7.924-.345-13.292C15.483,104.1,27.685,79.306,32.641,52.133c1.979-10.854,4.1-21.783,4.667-32.755C37.624,13.311,34.873,7.085,33.3,0,20.258,8.731,15.379,20.757,9.636,32.426,2.955,46,1.7,60.49.863,75.074.125,87.875.087,100.722,0,113.55c-.043,6.548.49,13.1.763,19.65" transform="translate(122.004 15.732)" fill="none" stroke="#000" stroke-linecap="round" stroke-linejoin="round" stroke-width="2"/>
    <path id="Tracé_117" data-name="Tracé 117" d="M98.3,3.269C84.214-.057,70.2-1.107,55.676,1.348c-9.021,1.525-18.511.341-27.789.267C18.17,1.539,9.222,4.153,0,9.071,10.564,18,22.762,21.62,35.274,22.691c20.809,1.782,40.993-2.7,60.538-9.681,8.141-2.906,8.095-3.551,4.123-8.923" transform="translate(13.009 138.294)" fill="none" stroke="#000" stroke-linecap="round" stroke-linejoin="round" stroke-width="2"/>
    <path id="Tracé_118" data-name="Tracé 118" d="M139.26,122.036c1.092-6,2.807-11.973,3.154-18.02.906-15.808,1.346-31.649,1.6-47.482.035-2.166-1.6-4.75-3.186-6.488-14.806-16.273-33.54-26.906-54.069-33.315C64.818,9.88,42.195,5.056,19.661.343,13.747-.895,7.063,1.553,0,2.4,4.435,11.919,11.832,16.57,19.787,19.519c16.984,6.3,34.388,11.449,51.5,17.414,21.356,7.444,42.586,15.251,63.886,22.859,2.68.957,5.451,1.656,8.18,2.475" transform="translate(7.253 241.408)" fill="none" stroke="#000" stroke-linecap="round" stroke-linejoin="round" stroke-width="2"/>
    <path id="Tracé_119" data-name="Tracé 119" d="M0,0C5.506,6.022,13.314,6.66,20.5,8.042q24.839,4.78,49.928,8.24c14.949,2.08,30.006,3.381,45.019,5,5.454.587,10.916,1.1,16.374,1.644" transform="translate(12.239 200.513)" fill="none" stroke="#000" stroke-linecap="round" stroke-linejoin="round" stroke-width="2"/>
    <path id="Tracé_120" data-name="Tracé 120" d="M0,113.143c.819-11.19,1.44-22.4,2.619-33.552.243-2.3,2.252-4.678,3.981-6.521C21.663,57.008,40.436,45.861,59.033,34.68c16.526-9.935,33.673-18.857,50.73-27.88,5.3-2.806,11.2-4.483,17.143-6.8,0,1.793.355,2.92-.05,3.386C100.382,33.8,72.21,62.211,33.508,76.957c-9.964,3.8-20.681,5.618-31.052,8.348" transform="translate(153.882 250.301)" fill="none" stroke="#000" stroke-linecap="round" stroke-linejoin="round" stroke-width="2"/>
    <path id="Tracé_121" data-name="Tracé 121" d="M0,117.147C9.291,82.357,30.6,54.238,50.7,25.4,58.124,14.756,66.858,5.825,78.734,0c5.832,7.785,3.807,16.328.48,23.717-11.6,25.761-24.71,50.671-45.6,70.551-10.621,10.107-20.785,20.7-31.156,31.067" transform="translate(144.876 75.178)" fill="none" stroke="#000" stroke-linecap="round" stroke-linejoin="round" stroke-width="2"/>
    <path id="Tracé_122" data-name="Tracé 122" d="M0,106.3c8.016-26.8,25.837-47.234,44.328-67.03,10-10.7,21-20.495,31.911-30.3C80.012,5.58,84.7,3.058,89.3.781c4.148-2.057,6.353.088,5.688,4.81C92.406,23.872,83.828,39.248,72.048,53.076c-17.128,20.107-35.876,38.482-57.264,54.1-3.873,2.83-7.142,6.487-10.69,9.762" transform="translate(151.426 117.142)" fill="none" stroke="#000" stroke-linecap="round" stroke-linejoin="round" stroke-width="2"/>
    <path id="Tracé_123" data-name="Tracé 123" d="M22.974,242.289c-.273-2.456-.6-4.908-.809-7.37-1.112-13.371-2.807-26.73-3.13-40.122-.413-17.116-5.706-33.282-8.592-49.9-1.231-7.083-4.93-13.82-8.037-20.466-2.037-4.359-3.065-7.7-1.946-13.229,7.131-35.263,21.119-67.2,43.01-95.69C48.682,8.731,54.218,2.188,63.127,0c5.693,9.492,3.789,19.482-.21,28.518C47.657,62.992,31.61,97.1,2.505,122.752" transform="translate(134.183 49.105)" fill="none" stroke="#000" stroke-linecap="round" stroke-linejoin="round" stroke-width="2"/>
    <path id="Tracé_124" data-name="Tracé 124" d="M117.9,0C99.068,4.912,80.129,9.446,61.44,14.853c-15.99,4.627-31.782,10-47.468,15.59C8.992,32.218,4.64,35.752,0,38.481" transform="translate(148.151 361.806)" fill="none" stroke="#000" stroke-linecap="round" stroke-linejoin="round" stroke-width="2"/>
    <path id="Tracé_125" data-name="Tracé 125" d="M118.236,77.938c-.545-12.827-1.136-25.652-1.62-38.482-.273-7.213-4.26-11.143-10.622-14C83.624,15.387,60.909,6.544,36.361,3.437,24.407,1.924,12.445.466,0,0,6.543,11.424,16.136,18.764,27.286,24.848,41.2,32.44,55.687,37.1,71.564,37.895c14.755.74,29.478,2.108,44.216,3.2" transform="translate(32.371 215.093)" fill="none" stroke="#000" stroke-linecap="round" stroke-linejoin="round" stroke-width="2"/>
    <path id="Tracé_126" data-name="Tracé 126" d="M94.113,35.175c-6.823-3.548-13.489-7.447-20.5-10.574C56.533,16.978,40.808,6.081,22.047,2.514,15.08,1.189,7.921.87,0,0A42.362,42.362,0,0,0,14.787,26.88c15.9,13.721,34.854,20.71,55.586,23A180.966,180.966,0,0,0,91.656,51.4c5.192-.045,10.372-1.486,15.557-2.3" transform="translate(0 83.463)" fill="none" stroke="#000" stroke-linecap="round" stroke-linejoin="round" stroke-width="2"/>
    <path id="Tracé_127" data-name="Tracé 127" d="M102.6,0c2.731,5.043,5.462,10.087,8.867,16.376-20.056-6.6-38.573-3.991-57.185-.89-18.01,3-36.116,5.422-54.285,9.036,10.306,8.946,22.767,11.363,35.466,13.141" transform="translate(15.254 148.932)" fill="none" stroke="#000" stroke-linecap="round" stroke-linejoin="round" stroke-width="2"/>
    <path id="Tracé_128" data-name="Tracé 128" d="M82.766,113.709c-6.461-8.145-12.394-16.129-22.653-21.036-6.886-3.295-11.788-11.566-16.531-18.345C30.96,56.282,18.625,38.017,6.792,19.446,3.191,13.8,1.6,6.867,0,0,11.244,2,19.519,8,26.148,15.569c20.132,23,33.5,49.288,37.172,80.1.412,3.454,3.457,6.682,5.563,9.827,4.253,6.353,8.7,12.577,13.065,18.854" transform="translate(30.178 17.21)" fill="none" stroke="#000" stroke-linecap="round" stroke-linejoin="round" stroke-width="2"/>
    <path id="Tracé_129" data-name="Tracé 129" d="M67.956,0C56.146.289,44.5.4,32.652,2.787A190.824,190.824,0,0,0,0,12.281" transform="translate(14.695 187.413)" fill="none" stroke="#000" stroke-linecap="round" stroke-linejoin="round" stroke-width="2"/>
    <path id="Tracé_130" data-name="Tracé 130" d="M56.494,20.469C40.683,12.72,24.858,5.012,7.371,1.628,4.9,1.15,2.456.546,0,0" transform="translate(84.289 188.232)" fill="none" stroke="#000" stroke-linecap="round" stroke-linejoin="round" stroke-width="2"/>
    <path id="Tracé_131" data-name="Tracé 131" d="M43.394,0C29.668,7.245,15.009,11.889,0,15.556" transform="translate(84.289 171.038)" fill="none" stroke="#000" stroke-linecap="round" stroke-linejoin="round" stroke-width="2"/>
    <path id="Tracé_132" data-name="Tracé 132" d="M0,0A157.339,157.339,0,0,1,16.269,48.324c1.672,10,2.289,20.177,3.381,30.276" transform="translate(127.682 166.944)" fill="none" stroke="#000" stroke-linecap="round" stroke-linejoin="round" stroke-width="2"/>
    <path id="Tracé_133" data-name="Tracé 133" d="M4.439,0C.961,6.972-3.106,13.922,3.62,21.287" transform="translate(115.874 121.094)" fill="none" stroke="#000" stroke-linecap="round" stroke-linejoin="round" stroke-width="2"/>
  </g>
</svg>
