<svg xmlns="http://www.w3.org/2000/svg" width="253.337" height="438.753" viewBox="0 0 253.337 438.753">
  <g id="Groupe_7" data-name="Groupe 7" transform="translate(273.867 412.512) rotate(155)">
    <path id="Tracé_42" data-name="Tracé 42" d="M55.48,37.118c-3-3.549-6.462-6.805-8.924-10.7C37.8,12.573,24.588,5.181,9.594.387,7.094-.412,4.117.274,0,.274,13.491,29.265,27.6,56.11,50.581,77.223a9.251,9.251,0,0,0,2.453,1.63C59.468,81.707,63.189,86,64.021,93.572c.385,3.5,3.908,7.729,7.17,9.592,4.709,2.69,4.551,5.309,4.2,10.115-1.019,14.138-2.332,28.544-.68,42.508,1.852,15.657.168,31.184,1.267,46.715,1.506,21.3,3.253,42.577,4.874,63.865.581,7.639.858,15.31,1.7,22.919,1.446,13.121,3.24,26.2,4.85,39.306.6,4.906,1.1,9.824,1.646,14.737" transform="translate(0 110.257)" fill="none" stroke="#000" stroke-linecap="round" stroke-linejoin="round" stroke-width="2"/>
    <path id="Tracé_43" data-name="Tracé 43" d="M16.579,0C1.964,20.547-2.888,42.987,1.626,67.995c2.668,14.78,7.143,28.209,16.3,40.3,1.971,2.6,1.136,8.192.13,12.022-3.116,11.849-6.938,23.513-10.486,35.248" transform="translate(69.194 47.487)" fill="none" stroke="#000" stroke-linecap="round" stroke-linejoin="round" stroke-width="2"/>
    <path id="Tracé_44" data-name="Tracé 44" d="M0,0C5.458,9.279,11.089,18.462,16.343,27.855c15.3,27.363,11.785,64.01-13.068,84.313" transform="translate(85.774 44.212)" fill="none" stroke="#000" stroke-linecap="round" stroke-linejoin="round" stroke-width="2"/>
    <path id="Tracé_45" data-name="Tracé 45" d="M22.822,0C14.69,15.645,5.448,30.638,1.325,48.257c-4.656,19.9,3.184,45.193,20,56.337,4.534,3.007,5.118,6.16,5.814,10.817,1.08,7.22,3.723,14.2,5.436,21.338.495,2.065.075,4.349.075,6.532" transform="translate(22.833 3.275)" fill="none" stroke="#000" stroke-linecap="round" stroke-linejoin="round" stroke-width="2"/>
    <path id="Tracé_46" data-name="Tracé 46" d="M1.638,0Q.82,7.778,0,15.556" transform="translate(62.03 178.487)" fill="none" stroke="#000" stroke-linecap="round" stroke-linejoin="round" stroke-width="2"/>
    <path id="Tracé_47" data-name="Tracé 47" d="M0,0C3,9.825,6.931,19.476,8.821,29.509c4.483,23.8,4.558,47.682-2.375,71.166-.873,2.955-3.171,5.49-4.808,8.219" transform="translate(46.474 0)" fill="none" stroke="#000" stroke-linecap="round" stroke-linejoin="round" stroke-width="2"/>
    <path id="Tracé_48" data-name="Tracé 48" d="M63.044,0c-2.457,1.637-4.739,3.665-7.4,4.851C30.758,15.958,13.875,33.974,6.471,60.565c-1.906,6.846-.14,13.05,2.7,18.773,3.5,7.071,2.107,12.324-3.4,17.314A75.9,75.9,0,0,0,0,103.162" transform="translate(78.405 167.843)" fill="none" stroke="#000" stroke-linecap="round" stroke-linejoin="round" stroke-width="2"/>
    <path id="Tracé_49" data-name="Tracé 49" d="M46.668,0c-.024,24.182-8.456,45.02-25.452,62.153C14.557,68.866,7.1,74.779,0,81.056" transform="translate(90.687 172.756)" fill="none" stroke="#000" stroke-linecap="round" stroke-linejoin="round" stroke-width="2"/>
    <path id="Tracé_50" data-name="Tracé 50" d="M0,0C3.821,8.46,8.218,16.727,11.159,25.483c1.07,3.188-1.334,7.54-2.153,11.361" transform="translate(66.124 178.487)" fill="none" stroke="#000" stroke-linecap="round" stroke-linejoin="round" stroke-width="2"/>
  </g>
</svg>
