<svg xmlns="http://www.w3.org/2000/svg" width="421.27" height="238.21" viewBox="0 0 421.27 238.21">
  <g id="Groupe_5" data-name="Groupe 5" transform="matrix(0.208, -0.978, 0.978, 0.208, -18.01, 148.503)">
    <path id="Tracé_33" data-name="Tracé 33" d="M0,238.256c3.275-9.552,5.7-19.507,9.987-28.58,12.383-26.2,26.315-51.617,35.18-79.451C58.345,88.854,73.036,47.942,80.2,4.907A30.268,30.268,0,0,0,80.237,0" transform="translate(9.075 158.837)" fill="none" stroke="#000" stroke-linecap="round" stroke-linejoin="round" stroke-width="2"/>
    <path id="Tracé_34" data-name="Tracé 34" d="M0,150.65c1.911-8.187,4.187-16.309,5.657-24.576,3.243-18.242,6.167-36.543,9.055-54.847,2.581-16.355,4.942-32.745,7.392-49.121Q23.759,11.056,25.381,0" transform="translate(89.313 0.819)" fill="none" stroke="#000" stroke-linecap="round" stroke-linejoin="round" stroke-width="2"/>
    <path id="Tracé_35" data-name="Tracé 35" d="M0,326.68c24.326-32.188,38.4-68.835,45.608-108.119,2.6-14.188,3.091-28.872,3.372-43.352.512-26.292-6.187-35.3-30.968-44.21C3.493,125.778-1.5,117.269,1.677,102.352c3.374-15.866,8.189-31.517,10.3-47.535C14.374,36.7,14.465,18.286,15.556,0" transform="translate(101.594 0)" fill="none" stroke="#000" stroke-linecap="round" stroke-linejoin="round" stroke-width="2"/>
    <path id="Tracé_36" data-name="Tracé 36" d="M26.784,162.112c-5.185,3.275-10.191,6.9-15.625,9.691C8.041,173.4,4.828,177.554,0,173.221c24.208-13.349,31.337-37.441,39.025-61.065,11.618-35.7,22.943-71.5,34.493-107.222.583-1.8,2.118-3.3,3.209-4.934" transform="translate(10.129 158.837)" fill="none" stroke="#000" stroke-linecap="round" stroke-linejoin="round" stroke-width="2"/>
    <path id="Tracé_37" data-name="Tracé 37" d="M5.8,100.706C.365,103.182-.391,99.666.144,95.8c1.708-12.309,3.1-24.716,5.8-36.822A147.876,147.876,0,0,1,30.285,4.857c.867-1.213.624-3.219.9-4.857" transform="translate(0 324.224)" fill="none" stroke="#000" stroke-linecap="round" stroke-linejoin="round" stroke-width="2"/>
    <path id="Tracé_38" data-name="Tracé 38" d="M27.851,51.4C22.666,42.943,17.456,34.5,12.3,26.017,8.171,19.218,4.008,12.432.133,5.487-.383,4.562.718,2.735,1.4,0,17.619,13.545,29.757,28.072,31.945,48.947" transform="translate(50.818 312.939)" fill="none" stroke="#000" stroke-linecap="round" stroke-linejoin="round" stroke-width="2"/>
    <path id="Tracé_39" data-name="Tracé 39" d="M0,103.981c2.73,6,5.748,11.9,8.106,18.044,2.34,6.1,5.609,5.587,9,1.536a116.9,116.9,0,0,0,9.061-13.048C34.4,97.419,43.65,85.541,58.041,78.418c3.752-1.857,9.109-3.965,7.6-10.494-.2-.856,1.437-2.2,2.327-3.234,5.438-6.295,10.8-12.655,16.39-18.816,7.074-7.8,4.169-12.36-1.737-18.787C77.8,21.84,71.824,17.6,67.326,12.126,64.659,8.879,63.862,4.094,62.225,0" transform="translate(13.169 299.662)" fill="none" stroke="#000" stroke-linecap="round" stroke-linejoin="round" stroke-width="2"/>
    <path id="Tracé_40" data-name="Tracé 40" d="M25.381,23.744C19.2,13.388,10.057,6.209,0,0" transform="translate(76.213 299.662)" fill="none" stroke="#000" stroke-linecap="round" stroke-linejoin="round" stroke-width="2"/>
    <path id="Tracé_41" data-name="Tracé 41" d="M4.094,4.094,0,0" transform="translate(67.206 289.837)" fill="none" stroke="#000" stroke-linecap="round" stroke-linejoin="round" stroke-width="2"/>
  </g>
</svg>
