<svg xmlns="http://www.w3.org/2000/svg" width="391.812" height="367.383" viewBox="0 0 391.812 367.383">
  <g id="Groupe_9" data-name="Groupe 9" transform="translate(36.318 371.188) rotate(-124)">
    <path id="Tracé_73" data-name="Tracé 73" d="M4.094,0C4.64,3.548,5.817,7.132,5.616,10.637,4.949,22.273,5.106,34.1,0,45.031" transform="translate(124.391 260.57)" fill="none" stroke="#000" stroke-linecap="round" stroke-linejoin="round" stroke-width="2"/>
    <path id="Tracé_74" data-name="Tracé 74" d="M43.394,0c-4.366,7.641-7.925,15.917-13.3,22.769-7.229,9.22-15.857,17.342-24.687,26.793,4.842,24.133,8.9,50.457,8.621,77.345-.119,11.456,1.163,22.921,1.365,34.389.038,2.164-2.021,4.364-3.114,6.548-1.091-2.184-3.021-4.328-3.124-6.557-.379-8.169.032-16.372-.19-24.554-.407-15.014-.29-30.1-1.823-45.009C5.756,78.24,2.456,64.954,0,51.581" transform="translate(78.541 312.151)" fill="none" stroke="#000" stroke-linecap="round" stroke-linejoin="round" stroke-width="2"/>
    <path id="Tracé_75" data-name="Tracé 75" d="M34.387,0c5.186,15.01,10.667,29.93,15.306,45.108.922,3.015-.377,7.772-2.37,10.444C34.888,72.217,19.706,85.671,0,93.337" transform="translate(77.722 204.895)" fill="none" stroke="#000" stroke-linecap="round" stroke-linejoin="round" stroke-width="2"/>
    <path id="Tracé_76" data-name="Tracé 76" d="M70.412,0C75.325,13.1,80.281,26.184,85.1,39.319c.65,1.773.359,3.874.913,5.7,2.078,6.855,7.193,14.354,5.752,20.3-1.647,6.8-8.708,12.541-14.087,18.094C72.715,88.53,66.617,92.535,61.47,97.5c-6.255,6.031-13.373,6.009-20.488,3.1C27.186,94.962,13.646,88.7,0,82.694" transform="translate(0.76 79.627)" fill="none" stroke="#000" stroke-linecap="round" stroke-linejoin="round" stroke-width="2"/>
    <path id="Tracé_77" data-name="Tracé 77" d="M0,0C10.644,4.366,21.259,8.8,31.939,13.08c10.425,4.172,21.111,4.4,31.923,1.658" transform="translate(6.491 233.551)" fill="none" stroke="#000" stroke-linecap="round" stroke-linejoin="round" stroke-width="2"/>
    <path id="Tracé_78" data-name="Tracé 78" d="M0,0C.273,4.366.49,8.738.833,13.1,1.326,19.38,2,25.647,2.437,31.933,3.232,43.467,9.608,50.59,19.59,55.79c13.251,6.9,26.42,13.744,41.816,13.685A21.682,21.682,0,0,0,71.16,67c4.7-2.506.448-5.89.043-8.868-1-7.381-2.154-14.742-3.246-22.11" transform="translate(3.216 211.445)" fill="none" stroke="#000" stroke-linecap="round" stroke-linejoin="round" stroke-width="2"/>
    <path id="Tracé_79" data-name="Tracé 79" d="M24.5,1.737C19.318,1.191,14.125.709,8.95.079,5.086-.391,4.161,1.248,3.911,5,3.164,16.216,1.417,27.371.881,38.587.334,50.023.857,61.507.737,72.968.549,90.982.031,108.992,0,127.006c-.024,13.918.648,27.837.662,41.756,0,4.235,1.31,6.725,4.933,9.122,11.76,7.781,23.745,14.981,37.748,17.849,10,2.047,19.365,1.611,27.915-5.581,14.026-11.8,21.75-28.077,31.785-42.72a5.343,5.343,0,0,0,.791-4.026c-3.123-9.872-6.463-19.677-9.738-29.5" transform="translate(0 33.677)" fill="none" stroke="#000" stroke-linecap="round" stroke-linejoin="round" stroke-width="2"/>
    <path id="Tracé_80" data-name="Tracé 80" d="M0,0C5.731,2.456,11.536,4.755,17.179,7.4c13.138,6.157,26.861,6.957,40.952,4.881" transform="translate(19.591 285.951)" fill="none" stroke="#000" stroke-linecap="round" stroke-linejoin="round" stroke-width="2"/>
    <path id="Tracé_81" data-name="Tracé 81" d="M0,26.2c10.917,4.366,21.7,9.14,32.81,12.925,5.386,1.833,11.381,2.056,17.14,2.573,8.394.755,12.969-6.055,17.8-10.8C76.409,22.38,83.776,12.546,91.712,3.286c1-1.169,2.171-2.194,3.263-3.286" transform="translate(2.397 162.32)" fill="none" stroke="#000" stroke-linecap="round" stroke-linejoin="round" stroke-width="2"/>
    <path id="Tracé_82" data-name="Tracé 82" d="M40.937,0c-9.006,12.826-17.725,25.871-27.16,38.375C10,43.388,4.64,47.214,0,51.581" transform="translate(76.903 224.545)" fill="none" stroke="#000" stroke-linecap="round" stroke-linejoin="round" stroke-width="2"/>
    <path id="Tracé_83" data-name="Tracé 83" d="M.232,32.958C-1.022,22.369,3.029,12.851,6.98,3.567,9.381-2.076,14.944,0,18.111,2.814,25.889,9.724,33.962,16.681,40.066,24.98c5.7,7.752,8.192,17.821,13.64,25.816,4.567,6.7,2.238,10.43-1.72,15.857-7.135,9.782-13.145,20.4-23.916,26.893" transform="translate(6.259 0)" fill="none" stroke="#000" stroke-linecap="round" stroke-linejoin="round" stroke-width="2"/>
    <path id="Tracé_84" data-name="Tracé 84" d="M48.306,0c-8.46,8.46-16.331,17.649-25.579,25.135C16.108,30.493,7.642,33.569,0,37.662" transform="translate(79.359 281.857)" fill="none" stroke="#000" stroke-linecap="round" stroke-linejoin="round" stroke-width="2"/>
    <path id="Tracé_85" data-name="Tracé 85" d="M31.931,0a4.1,4.1,0,0,1,.806.825c6.9,12.917,5.752,24.427-4.768,35.327C21.524,42.831,16.693,51.046,10.495,58,7.839,60.977,3.548,62.5,0,64.681" transform="translate(71.991 181.97)" fill="none" stroke="#000" stroke-linecap="round" stroke-linejoin="round" stroke-width="2"/>
    <path id="Tracé_86" data-name="Tracé 86" d="M0,0C6.823,3.82,13.55,7.827,20.493,11.415a38.638,38.638,0,0,0,26.994,3.322" transform="translate(0.76 142.67)" fill="none" stroke="#000" stroke-linecap="round" stroke-linejoin="round" stroke-width="2"/>
    <path id="Tracé_87" data-name="Tracé 87" d="M37.662,0C29.475,9.006,21.6,18.324,12.948,26.864,9.509,30.26,4.367,31.931,0,34.387" transform="translate(48.247 123.02)" fill="none" stroke="#000" stroke-linecap="round" stroke-linejoin="round" stroke-width="2"/>
    <path id="Tracé_88" data-name="Tracé 88" d="M0,0C9.859,4.23,18.836,11.01,30.293,10.619c3.281-.112,6.551-.522,9.826-.794" transform="translate(1.578 119.745)" fill="none" stroke="#000" stroke-linecap="round" stroke-linejoin="round" stroke-width="2"/>
    <path id="Tracé_89" data-name="Tracé 89" d="M76.962,0C72.323,4.094,67,7.634,63.164,12.378,47.429,31.843,27.848,33.905,5.716,26.246A30.9,30.9,0,0,0,0,25.381" transform="translate(44.153 309.695)" fill="none" stroke="#000" stroke-linecap="round" stroke-linejoin="round" stroke-width="2"/>
    <path id="Tracé_90" data-name="Tracé 90" d="M0,0C.273,2.729,0,5.657.91,8.154c5,13.716,10.28,27.325,15.465,40.971" transform="translate(11.403 261.389)" fill="none" stroke="#000" stroke-linecap="round" stroke-linejoin="round" stroke-width="2"/>
    <path id="Tracé_91" data-name="Tracé 91" d="M0,0C1.638,3.548,2.9,7.332,4.98,10.6c7.535,11.869,14.028,24.711,25.4,33.495,9.133,7.054,14.694,10.416,23.654,5.029" transform="translate(28.597 311.332)" fill="none" stroke="#000" stroke-linecap="round" stroke-linejoin="round" stroke-width="2"/>
    <path id="Tracé_92" data-name="Tracé 92" d="M32.75,0C25.927,8.46,19.428,17.215,12.132,25.246,8.924,28.778,4.094,30.84,0,33.569" transform="translate(43.334 96.002)" fill="none" stroke="#000" stroke-linecap="round" stroke-linejoin="round" stroke-width="2"/>
    <path id="Tracé_93" data-name="Tracé 93" d="M62.225,0c1.911,4.094,4.031,8.109,5.61,12.326a6,6,0,0,1-.78,4.808C61.486,24.892,56.2,32.947,49.817,40c-8.7,9.626-19.245,13.181-31.846,6.746C12.213,43.811,6,41.756,0,39.3" transform="translate(2.397 62.433)" fill="none" stroke="#000" stroke-linecap="round" stroke-linejoin="round" stroke-width="2"/>
    <path id="Tracé_94" data-name="Tracé 94" d="M0,0,31.112,11.462" transform="translate(2.397 83.72)" fill="none" stroke="#000" stroke-linecap="round" stroke-linejoin="round" stroke-width="2"/>
    <path id="Tracé_95" data-name="Tracé 95" d="M52.4,0c-3.82,4.366-7.921,8.522-11.407,13.142C32.4,24.532,19.85,31.584,3.257,18.855A19.607,19.607,0,0,0,0,17.194" transform="translate(4.035 44.42)" fill="none" stroke="#000" stroke-linecap="round" stroke-linejoin="round" stroke-width="2"/>
    <path id="Tracé_96" data-name="Tracé 96" d="M0,0C3,12.827,5.958,25.665,9.061,38.468c.421,1.734,1.583,3.288,2.4,4.926" transform="translate(37.603 112.377)" fill="none" stroke="#000" stroke-linecap="round" stroke-linejoin="round" stroke-width="2"/>
    <path id="Tracé_97" data-name="Tracé 97" d="M19.65,0,0,22.925" transform="translate(30.235 32.958)" fill="none" stroke="#000" stroke-linecap="round" stroke-linejoin="round" stroke-width="2"/>
    <path id="Tracé_98" data-name="Tracé 98" d="M0,28.656C6.55,32.2,13.052,35.849,19.7,39.193a4.179,4.179,0,0,0,3.9-.838c.675-.775.389-2.657.1-3.959-1.267-5.753-4.821-12.019-3.526-17.068,1.719-6.7-2.646-11.5-2.164-17.329" transform="translate(4.853 19.039)" fill="none" stroke="#000" stroke-linecap="round" stroke-linejoin="round" stroke-width="2"/>
    <path id="Tracé_99" data-name="Tracé 99" d="M0,0Q2.866,17.6,5.731,35.206" transform="translate(27.778 59.158)" fill="none" stroke="#000" stroke-linecap="round" stroke-linejoin="round" stroke-width="2"/>
    <path id="Tracé_100" data-name="Tracé 100" d="M0,0C3,10.644,6.046,21.276,8.983,31.938c.966,3.507,1.66,7.09,2.479,10.637" transform="translate(47.428 159.045)" fill="none" stroke="#000" stroke-linecap="round" stroke-linejoin="round" stroke-width="2"/>
    <path id="Tracé_101" data-name="Tracé 101" d="M0,0Q3.275,9.825,6.55,19.65" transform="translate(59.709 204.895)" fill="none" stroke="#000" stroke-linecap="round" stroke-linejoin="round" stroke-width="2"/>
    <path id="Tracé_102" data-name="Tracé 102" d="M0,0Q1.638,9.006,3.275,18.012" transform="translate(76.903 299.87)" fill="none" stroke="#000" stroke-linecap="round" stroke-linejoin="round" stroke-width="2"/>
    <path id="Tracé_103" data-name="Tracé 103" d="M0,0C1.365,10.1,2.642,20.209,4.168,30.282c.3,1.989,1.563,3.832,2.382,5.743" transform="translate(78.541 321.157)" fill="none" stroke="#000" stroke-linecap="round" stroke-linejoin="round" stroke-width="2"/>
    <path id="Tracé_104" data-name="Tracé 104" d="M0,0,4.912,18.831" transform="translate(66.259 228.639)" fill="none" stroke="#000" stroke-linecap="round" stroke-linejoin="round" stroke-width="2"/>
    <path id="Tracé_105" data-name="Tracé 105" d="M0,0Q1.638,8.6,3.275,17.194" transform="translate(75.266 279.401)" fill="none" stroke="#000" stroke-linecap="round" stroke-linejoin="round" stroke-width="2"/>
    <path id="Tracé_106" data-name="Tracé 106" d="M13.1,0,0,15.556" transform="translate(26.96 17.402)" fill="none" stroke="#000" stroke-linecap="round" stroke-linejoin="round" stroke-width="2"/>
    <path id="Tracé_107" data-name="Tracé 107" d="M0,0Q2.047,7.369,4.094,14.737" transform="translate(18.772 1.846)" fill="none" stroke="#000" stroke-linecap="round" stroke-linejoin="round" stroke-width="2"/>
    <path id="Tracé_108" data-name="Tracé 108" d="M21.287,0C15.955,7.074,10.272,13.448,0,10.644" transform="translate(8.947 9.214)" fill="none" stroke="#000" stroke-linecap="round" stroke-linejoin="round" stroke-width="2"/>
  </g>
</svg>
