<svg xmlns="http://www.w3.org/2000/svg" width="369.378" height="361.171" viewBox="0 0 369.378 361.171">
  <g id="Groupe_1" data-name="Groupe 1" transform="matrix(-0.559, 0.829, -0.829, -0.559, 374.336, 161.167)">
    <path id="Tracé_1" data-name="Tracé 1" d="M13.885,0c5.258.526,10.506,1.312,15.777,1.525,12.614.511,25.271.325,37.842,1.309a18.9,18.9,0,0,1,13.666,7.7c2.278,3.091,1.353,4.927-2.605,5.777-10.312,2.213-20.659.986-31.03.623-6.29-.22-12.792-.216-18.891,1.105C13.089,21.4,6.635,33.56,2.355,47.336c-.627,2.018-.16,4.559-1.208,6.224a7.039,7.039,0,0,0,1.415,9.248c2.017,1.7,6.3,1.9,9.168,1.148a88.1,88.1,0,0,0,15.8-6.177c10.539-5.106,21.09-10.149,32.645-12.493a54.737,54.737,0,0,1,11.553-.979c1.413.019,2.806,1.614,4.208,2.491-.876,1.227-1.484,3.025-2.674,3.585-6.037,2.838-12.165,5.505-18.371,7.953C41.52,63.605,28.2,68.851,17.011,78.314c-8.7,7.358-13.468,16.564-13.566,27.9A26.687,26.687,0,0,0,10.757,124.6c4.385,4.856,11.232,5.347,15.648.46a198.026,198.026,0,0,0,16.81-21.022A82.927,82.927,0,0,1,65,81.661c3.008-2.043,7.207-2.7,10.958-3.107,1.62-.175,4.146,1.527,5.013,3.074.622,1.111-.273,4.048-1.445,5.024-7,5.83-14.26,11.355-21.473,16.93-11.523,8.906-24.083,16.553-33.155,28.376S16.2,153.7,22.943,166.1a35.273,35.273,0,0,0,8.38,9.953c6.784,5.63,15.167,4.243,19.183-3.673a73.78,73.78,0,0,0,6.334-19.392c1.743-9.125,4.746-17.22,12.26-23.1,6.3-4.927,12.521-9.951,18.982-14.652a16.714,16.714,0,0,1,7.331-3.049c1.8-.237,4.1.853,5.7,2.005,2.567,1.844,1.012,4.092-.506,5.661-5.859,6.056-11.416,12.532-17.94,17.791-11.471,9.248-21.046,19.69-27.32,33.217-7.6,16.4-.55,28.257,12.755,35.693,6.855,3.831,12.771-.227,14.083-9.373,1.519-10.587,3.432-21.025,7.392-31.027,2.984-7.537,7.079-14.272,14.318-18.224,2.025-1.106,6.192-1.195,7.507.12s1.322,5.662.108,7.478c-5,7.475-10.852,14.376-16.078,21.709-6.588,9.245-10.946,19.363-11.117,30.994-.1,6.562,2.6,11.708,8.516,14.019,4.918,1.923,10.435,2.356,15.723,3.226.57.094,1.644-1.172,2.044-2.016,2.767-5.848,1-11.942.449-17.847-.787-8.463,1.746-16.043,8.73-20.213-1.231,6.649-2.239,12.384-3.368,18.1-.974,4.923-3.3,9.919-2.9,14.707,1.055,12.783,12.219,21.489,26.051,14.2,6.522-3.435,12.944-7.062,19.486-10.459a19.59,19.59,0,0,1,5.24-1.594c4.4-.864,6.1-4.224,6.2-7.92.347-12.507-2.346-23.746-12.928-32.211-5.25-4.2-10.905-8.7-11.284-16.681-.113-2.372-.759-4.812,1.764-5.613,1.441-.458,3.8.424,5.142,1.475,6.8,5.331,10.951,12.726,14.154,20.474,4.274,10.344,7.806,20.994,11.682,31.5.541,1.467,1.221,2.882,2.207,5.188,6.887-8.569,13.451-16.557,14.493-27.281.69-7.1-2.928-13.313-6.816-18.851-8.275-11.789-17.151-23.153-25.625-34.8A74.475,74.475,0,0,1,157,125.1c-.736-1.473-.443-3.459-.618-5.212,2.279,0,5.495-.961,6.662.178a52.269,52.269,0,0,1,9.51,11.986c4.651,8.521,8.29,17.591,12.832,26.177,3.46,6.541,6.665,13.455,13.581,17.411,4.032,2.306,8.17,2.186,11.577-.541,10.524-8.426,12.52-29.363,2.142-38.429a57.477,57.477,0,0,1-14.882-20.937c-2.9-6.7-8.451-11.026-15.056-14.394a79.1,79.1,0,0,1-14.2-9.932c-3.494-2.9-3.813-7.068-1.649-9.9A10.3,10.3,0,0,1,178.49,78.29c6.536,2.309,10.381,7.368,14.2,12.662,12.753,17.685,25.6,35.3,38.548,53.122,6.794-9.9,9.994-20.547,11.816-31.562,1.655-10-3.89-17.547-9.9-24.7-8.94-10.636-20.436-18.186-32.214-25-6.034-3.489-13.59-4.281-20.34-6.631-2.939-1.023-5.581-2.9-9.112-4.794,7.814-6.17,15.106-4.7,22.2-1.9,9.559,3.782,17.463,10.2,24.693,17.332,6.881,6.788,13.369,13.974,20.029,20.985" transform="translate(0 50.569)" fill="none" stroke="#000" stroke-linecap="round" stroke-linejoin="round" stroke-width="2"/>
    <path id="Tracé_2" data-name="Tracé 2" d="M128.3,258.272c-1.052-16.827-2.225-33.647-3.111-50.482-.58-11.03-.712-22.083-1.1-33.125q-1.549-43.908-3.163-87.813c-.253-6.839-.67-13.673-1.051-20.507-.079-1.408.191-3.331-.6-4.122-5.393-5.416-4.6-12.4-5.139-19.018-.358-4.367-.314-8.765-.576-13.141-.463-7.72-4.206-13.665-10.528-17.839A75.228,75.228,0,0,0,71.5.182a15.907,15.907,0,0,0-13.633,4.14c-2.935,2.845-5.439,6.154-8.49,8.855C45.737,16.4,42.1,20.051,37.786,22.011,25.553,27.56,16.02,36.5,6.312,45.312,4.2,47.23,2.1,49.166,0,51.095" transform="translate(11.781 0)" fill="none" stroke="#000" stroke-linecap="round" stroke-linejoin="round" stroke-width="2"/>
    <path id="Tracé_3" data-name="Tracé 3" d="M106.218,129.771c5.058-13.328,7.812-26.841,3.7-41.02-3.155-10.877-10.9-16.2-22.092-16.985-12.822-.9-25.887-.034-38.4-4.037-1.215-.389-2.624-.443-3.646-1.108-2.688-1.75-2.9-4-.549-6.248,5-4.781,11.139-5.431,17.3-3.56,4.758,1.444,9.124,4.145,13.724,6.15a67.456,67.456,0,0,0,7.355,2.64c8.745,2.657,15.342-3.258,13.69-12.08A30.647,30.647,0,0,0,84.021,33.187C73.669,26.3,65.245,17.6,57.365,8.262c-7.6-9-16.442-10.175-26.891-5.8C22.886,5.636,15.426,8.866,8.908,14.049,3.359,18.46,1.292,23.936,2.03,30.923a101.675,101.675,0,0,1,.47,15.76C2.364,49.35.877,51.948,0,54.578" transform="translate(132.196 6.508)" fill="none" stroke="#000" stroke-linecap="round" stroke-linejoin="round" stroke-width="2"/>
  </g>
</svg>
