<svg xmlns="http://www.w3.org/2000/svg" width="375.282" height="363.635" viewBox="0 0 375.282 363.635">
  <g id="Groupe_6" data-name="Groupe 6" transform="matrix(0.391, -0.921, 0.921, 0.391, -59.782, 181.246)">
    <path id="Tracé_175" data-name="Tracé 175" d="M0,83.786c1.365-14.464,2.964-28.912,4.021-43.4Q5.365,22,5.6,3.547c.056-4.7,3.025-3.539,5-3.073,1.339.316,3.262,2.605,3.167,3.882C12.35,23.477,10.629,42.575,9.013,61.681c-.854,10.094-1.643,20.2-2.462,30.293" transform="translate(156.381 0)" fill="none" stroke="#000" stroke-linecap="round" stroke-linejoin="round" stroke-width="2"/>
    <path id="Tracé_176" data-name="Tracé 176" d="M73.057,22.752c3.083-5.344-3.244-4.321-4.186-4.615-16.2-5.066-32.526-9.948-49.847-8.445-3.027.263-6,1.411-9.013,1.5A26.008,26.008,0,0,1,0,9.365C5.454,3.791,11.658,1.507,19.018,1.374,29.123,1.192,39.224-.148,49.311.013a72.562,72.562,0,0,1,19.6,3.25c8.462,2.564,7.743,4.623,4.961,15.395" transform="translate(75.136 128.171)" fill="none" stroke="#000" stroke-linecap="round" stroke-linejoin="round" stroke-width="2"/>
    <path id="Tracé_177" data-name="Tracé 177" d="M1.638,0C18.286,1.911,34.992,3.441,51.543,5.978c4.565.7,8.669,4.4,13.469,6.982-7.325,6.1-26.921,5.349-65.013-1.5" transform="translate(157.2 130.455)" fill="none" stroke="#000" stroke-linecap="round" stroke-linejoin="round" stroke-width="2"/>
    <path id="Tracé_178" data-name="Tracé 178" d="M57.068,46.787c1.365-7.369,3.088-14.7,3.827-22.132.172-1.731-2.683-4.285-4.7-5.621-9.871-6.539-21.41-7.914-32.7-9.864C15.847,7.849,8.128,6.951,0,5.8,2.814-2.282,9.74.4,13.663.521c16.592.5,33.217,2.148,48.318,10.241" transform="translate(92.762 86.125)" fill="none" stroke="#000" stroke-linecap="round" stroke-linejoin="round" stroke-width="2"/>
    <path id="Tracé_179" data-name="Tracé 179" d="M15.556,0C38.466,6.775,65.57,35.658,65.5,53.879,54.1,43.921,43.362,33.8,31.826,24.7,21.684,16.691,10.644,9.825,0,2.456" transform="translate(108.893 246.717)" fill="none" stroke="#000" stroke-linecap="round" stroke-linejoin="round" stroke-width="2"/>
    <path id="Tracé_180" data-name="Tracé 180" d="M55.764,10.459,63.259,0C84.841,31.713,88.472,39.6,86.047,52.1,78.665,33.992,69.894,17.172,50.875,8.768,34.261,1.428,17.285,2.379,0,5.463c15.934,8.78,35.791,4.386,51.4,16.117-2.586,4.659-5.25,9.46-7.915,14.26" transform="translate(23.654 336.964)" fill="none" stroke="#000" stroke-linecap="round" stroke-linejoin="round" stroke-width="2"/>
    <path id="Tracé_181" data-name="Tracé 181" d="M69.746,32.882c.274-4.913.183-9.881.934-14.719.6-3.885,2.225-7.611,3.378-11.352C57.772-2.762,14.776-2.284,0,8.5c23.328,2.695,47.035,2.915,69.746,9.644" transform="translate(71.079 164.71)" fill="none" stroke="#000" stroke-linecap="round" stroke-linejoin="round" stroke-width="2"/>
    <path id="Tracé_182" data-name="Tracé 182" d="M68.712,15.8C72.792,3.945,71.17.733,59.7.345,46.619-.1,33.492-.143,20.412.381,11.945.719,5.625,5.74,0,13c2.923.137,5.344.9,7.271.238,19.374-6.676,38.35-3.06,57.366,1.668,3.056.759,5.337,1.233,3.257,4.985" transform="translate(77.025 149.044)" fill="none" stroke="#000" stroke-linecap="round" stroke-linejoin="round" stroke-width="2"/>
    <path id="Tracé_183" data-name="Tracé 183" d="M7.369,0C13.1,9.552,19.114,18.952,24.4,28.743c1.739,3.219,1.6,7.453.97,11.383L0,6.55" transform="translate(65.5 371.167)" fill="none" stroke="#000" stroke-linecap="round" stroke-linejoin="round" stroke-width="2"/>
    <path id="Tracé_184" data-name="Tracé 184" d="M37.028,14.363C28.238,8.946,18.086,8.827,8.375,6.978A24,24,0,0,1,0,4.036C11.713-1.279,23.564-.741,35.365,2.184c5.124,1.27,6.628,6.323,9.181,10.45,5.518,8.921,10.018,18.92,20.429,24.479,2.941-10.349-3.557-16.693-8.347-23.532-3-4.286-6.5-8.223-9.774-12.317" transform="translate(16.191 381.366)" fill="none" stroke="#000" stroke-linecap="round" stroke-linejoin="round" stroke-width="2"/>
    <path id="Tracé_185" data-name="Tracé 185" d="M0,13.05l69.723,6.98C63.107,10.793,54.652,8.7,46.629,6.655,35.6,3.85,24.336,1.832,13.074.123,9.42-.432,5.459,1.041,1.637,1.587" transform="translate(159.656 110.036)" fill="none" stroke="#000" stroke-linecap="round" stroke-linejoin="round" stroke-width="2"/>
    <path id="Tracé_186" data-name="Tracé 186" d="M81.056,0c-2.729,7.915-5.664,15.767-8.1,23.772-1.135,3.734-3.986,5.409-6.534,3.887-9.1-5.438-19.265-2.9-28.817-4.392-9.858-1.537-20.146-.5-30.237-.229C4.9,23.1,2.456,24.562,0,25.381" transform="translate(38.481 257.361)" fill="none" stroke="#000" stroke-linecap="round" stroke-linejoin="round" stroke-width="2"/>
    <path id="Tracé_187" data-name="Tracé 187" d="M67.137,24.562C62.225,21.015,57.79,15.977,52.3,14.216c-13.077-4.2-26.671-6.768-40.011-10.169C8.123,2.983,4.094,1.365,0,0" transform="translate(40.119 259.817)" fill="none" stroke="#000" stroke-linecap="round" stroke-linejoin="round" stroke-width="2"/>
    <path id="Tracé_188" data-name="Tracé 188" d="M67.137,8.014c-5.377-4.122-11.632-3.9-18-4.244A212.542,212.542,0,0,1,21.316.5C13.58-.962,6.812.978,0,3.92" transform="translate(85.15 106.066)" fill="none" stroke="#000" stroke-linecap="round" stroke-linejoin="round" stroke-width="2"/>
    <path id="Tracé_189" data-name="Tracé 189" d="M66.715,8.88C59.3,3.835,51.027,1.809,42.154,1.47,32.6,1.1,23.053.131,13.495,0,9.067-.058,4.621,1.256.183,1.947L0,3.989C1.769,4.8,3.517,6.26,5.313,6.324c18.452.648,35.9,5.76,53.2,11.593.9.3,2.082,1.721,2.4,1.51,8-5.265,13.188.78,17.953,5.144,9.411,8.618,18.877,17.488,22.967,30.185,1.086,3.374,1.173,7.07,1.719,10.617" transform="translate(33.991 295.15)" fill="none" stroke="#000" stroke-linecap="round" stroke-linejoin="round" stroke-width="2"/>
    <path id="Tracé_190" data-name="Tracé 190" d="M65.5,14.737c-9.279-2.456-18.455-5.473-27.866-7.213C27.938,5.732,17.978,5.418,8.21,3.95,5.34,3.519,2.73,1.365,0,0" transform="translate(36.844 284.379)" fill="none" stroke="#000" stroke-linecap="round" stroke-linejoin="round" stroke-width="2"/>
    <path id="Tracé_191" data-name="Tracé 191" d="M31.931,29.475c5.186,3,10.415,5.933,15.541,9.032,3.237,1.956,6.322,4.163,9.475,6.258l1.751-1c-1.007-3.127-1.21-6.918-3.153-9.272C43.156,19.491,28.666,7.094,9.792.92,6.753-.074,3.275.273,0,0" transform="translate(133.456 217.242)" fill="none" stroke="#000" stroke-linecap="round" stroke-linejoin="round" stroke-width="2"/>
    <path id="Tracé_192" data-name="Tracé 192" d="M68.775,7.2A86.974,86.974,0,0,0,8.2,3.955C5.395,4.8,2.73,6.1,0,7.2" transform="translate(62.225 214.141)" fill="none" stroke="#000" stroke-linecap="round" stroke-linejoin="round" stroke-width="2"/>
    <path id="Tracé_193" data-name="Tracé 193" d="M3.275,0C26.759,3.177,57.53,18.147,65.059,31.613,42.951,22.552,22.183,15.067,0,13.1" transform="translate(152.287 148.467)" fill="none" stroke="#000" stroke-linecap="round" stroke-linejoin="round" stroke-width="2"/>
    <path id="Tracé_194" data-name="Tracé 194" d="M65.568,4.863c-.255,1.367-.51,2.735-.762,4.086C43.819-.063,22.325-2.721,0,3.058,20.56,5.19,39.189,13.446,59.571,19.034c.83-1.45,2.6-4.536,4.36-7.622" transform="translate(30.226 309.81)" fill="none" stroke="#000" stroke-linecap="round" stroke-linejoin="round" stroke-width="2"/>
    <path id="Tracé_195" data-name="Tracé 195" d="M0,10.644c3.275,1.637,7.191,2.607,9.716,5.026C21.7,27.151,33.31,39.013,45.016,50.778c1.625,1.633,3.037,3.479,4.549,5.225L51.37,55.5c-.475-3.761-.034-7.958-1.579-11.213C41.342,26.476,29.328,11.72,11.446,2.49A59.81,59.81,0,0,0,4.913,0" transform="translate(113.806 264.729)" fill="none" stroke="#000" stroke-linecap="round" stroke-linejoin="round" stroke-width="2"/>
    <path id="Tracé_196" data-name="Tracé 196" d="M22.63,0c9.28,5.731,18.608,11.386,27.821,17.22,6.632,4.2,12.585,9,12.851,19.883L0,7.418c.3-1.277.821-3.529,1.343-5.78" transform="translate(137.026 200.867)" fill="none" stroke="#000" stroke-linecap="round" stroke-linejoin="round" stroke-width="2"/>
    <path id="Tracé_197" data-name="Tracé 197" d="M0,87.993c11.462,3.275,22.992,6.336,34.365,9.9,8.4,2.627,16.587,5.906,24.87,8.895l1.29-2.411C57,101.1,53.933,97,49.853,94.705,39.759,89.027,29.242,84.089,18.8,79.048a24.188,24.188,0,0,0-8.166-2.428c-9.361-.827-9.057-.628-7.426-9.925Q8.442,36.867,12.977,6.918c.526-3.48.972-4.982,4.984-5.936,9.918-2.357,19.178.053,28.73,1.741C55.948,4.358,65.38,5,74.734,6.082q.118,1.163.236,2.328c-1.246.874-2.453,2.439-3.745,2.514-12.544.725-25.1,1.207-37.657,1.742-6.822.291-13.645.549-20.468.822" transform="translate(149.012 90.768)" fill="none" stroke="#000" stroke-linecap="round" stroke-linejoin="round" stroke-width="2"/>
    <path id="Tracé_198" data-name="Tracé 198" d="M61.406,18.012c-10.347-7.148-23-6.828-34.415-10.556C18.128,4.561,9.006,2.456,0,0" transform="translate(89.243 110.805)" fill="none" stroke="#000" stroke-linecap="round" stroke-linejoin="round" stroke-width="2"/>
    <path id="Tracé_199" data-name="Tracé 199" d="M92.518,51.8C86.4,39.992,81.85,26.9,71.131,18.36,51.738,2.9,29.69-3.549,4.926,1.917,3.191,2.3,1.637,3.5,0,4.316" transform="translate(27.837 324.276)" fill="none" stroke="#000" stroke-linecap="round" stroke-linejoin="round" stroke-width="2"/>
    <path id="Tracé_200" data-name="Tracé 200" d="M42.575,53.219c3.1-6.881-2.337-11.511-5.114-16.257C28.352,21.393,16.663,8.082,0,0" transform="translate(112.168 281.104)" fill="none" stroke="#000" stroke-linecap="round" stroke-linejoin="round" stroke-width="2"/>
    <path id="Tracé_201" data-name="Tracé 201" d="M0,9.825C19.439,8.5,38.869,7.127,57.312,0" transform="translate(164.568 75.599)" fill="none" stroke="#000" stroke-linecap="round" stroke-linejoin="round" stroke-width="2"/>
    <path id="Tracé_202" data-name="Tracé 202" d="M0,1.748C17.079-3.957,30.1,5.294,41.416,15.235c7.8,6.849,17.164,13.663,19.959,25a21.594,21.594,0,0,1,.284,3.882C46.778,34.6,32.109,24.93,17.114,15.8c-4.113-2.5-9.2-3.407-13.839-5.044" transform="translate(122.812 231.869)" fill="none" stroke="#000" stroke-linecap="round" stroke-linejoin="round" stroke-width="2"/>
    <path id="Tracé_203" data-name="Tracé 203" d="M30.294,49.944c6.647-4.265,1.44-10.452.286-13.731-4.262-12.11-10.618-23.579-20.852-32C7.105,2.055,3.275,1.365,0,0" transform="translate(91.7 327.773)" fill="none" stroke="#000" stroke-linecap="round" stroke-linejoin="round" stroke-width="2"/>
    <path id="Tracé_204" data-name="Tracé 204" d="M11.319,0Q34.243,5.323,57.165,10.66a5.08,5.08,0,0,1,3.3,2.237C40.312,13.973,20.726,7.682.767,6.84Q.384,8.474,0,10.108c8.958,2.907,17.969,5.664,26.859,8.768,7.989,2.789,15.846,5.96,23.76,8.961" transform="translate(50.088 235.255)" fill="none" stroke="#000" stroke-linecap="round" stroke-linejoin="round" stroke-width="2"/>
    <path id="Tracé_205" data-name="Tracé 205" d="M58.95,7.231C49.671,5.593,40.4,3.925,31.111,2.331,25.937,1.443,20.756.151,15.553.012,10.386-.126,5.186.954,0,1.5" transform="translate(165.387 68.368)" fill="none" stroke="#000" stroke-linecap="round" stroke-linejoin="round" stroke-width="2"/>
    <path id="Tracé_206" data-name="Tracé 206" d="M50.839,38.038c1.365-6.55,3.66-13.111,3.579-19.643-.027-2.224-5.82-5.751-9.349-6.3-11.356-1.774-22.889-2.4-34.346-3.549A29.82,29.82,0,0,1,0,5.816C18.147-1.669,36.447-1.724,54.933,4.47" transform="translate(102.267 68.673)" fill="none" stroke="#000" stroke-linecap="round" stroke-linejoin="round" stroke-width="2"/>
    <path id="Tracé_207" data-name="Tracé 207" d="M48.306,10.686C35.345,1.013,20.373-.55,4.917.143,3.246.218,1.638,1.68,0,2.5" transform="translate(23.744 352.293)" fill="none" stroke="#000" stroke-linecap="round" stroke-linejoin="round" stroke-width="2"/>
    <path id="Tracé_208" data-name="Tracé 208" d="M48.306,14.737C33.305,6.218,17.057,1.783,0,0" transform="translate(31.112 328.592)" fill="none" stroke="#000" stroke-linecap="round" stroke-linejoin="round" stroke-width="2"/>
    <path id="Tracé_209" data-name="Tracé 209" d="M72.05,11.7C60.925,5.08,47.789,7.159,36.059,3.4,24.134-.418,12.187-.742,0,1.052" transform="translate(41.756 257.128)" fill="none" stroke="#000" stroke-linecap="round" stroke-linejoin="round" stroke-width="2"/>
    <path id="Tracé_210" data-name="Tracé 210" d="M0,14.737,29.555,49.051l1.037-.219c-1.191-4.542-1.362-9.737-3.77-13.5C20.3,25.141,13.5,14.945,5.378,6.055,2.432,2.83,5.612,1.85,4.913,0" transform="translate(74.506 349.879)" fill="none" stroke="#000" stroke-linecap="round" stroke-linejoin="round" stroke-width="2"/>
    <path id="Tracé_211" data-name="Tracé 211" d="M0,2.492C2.456,1.674,4.9.2,7.371.147,19.648-.1,31.931.036,44.212.036" transform="translate(59.769 231.125)" fill="none" stroke="#000" stroke-linecap="round" stroke-linejoin="round" stroke-width="2"/>
    <path id="Tracé_212" data-name="Tracé 212" d="M0,0C5.086.827,10.316,1.305,13.919,5.731" transform="translate(111.35 231.161)" fill="none" stroke="#000" stroke-linecap="round" stroke-linejoin="round" stroke-width="2"/>
    <path id="Tracé_213" data-name="Tracé 213" d="M33.569,31.112l8.12-13.057C29.041,8.752,13.845,5.846,0,0" transform="translate(25.381 356.429)" fill="none" stroke="#000" stroke-linecap="round" stroke-linejoin="round" stroke-width="2"/>
    <path id="Tracé_214" data-name="Tracé 214" d="M3.275,0C21.442,6.141,29.213,23.167,40.808,36.141c1.6,1.791,1.448,5.149,1.409,8.082A117.232,117.232,0,0,0,0,11.462" transform="translate(103.162 295.842)" fill="none" stroke="#000" stroke-linecap="round" stroke-linejoin="round" stroke-width="2"/>
    <path id="Tracé_215" data-name="Tracé 215" d="M40.938,13.919c-7.926-7.106-18-9.036-27.847-11.424C8.78,1.449,4.367.819,0,0" transform="translate(18.831 369.529)" fill="none" stroke="#000" stroke-linecap="round" stroke-linejoin="round" stroke-width="2"/>
    <path id="Tracé_216" data-name="Tracé 216" d="M37.662,9.825c-7.1-1.91-14.181-3.858-21.29-5.719C10.93,2.681,5.459,1.365,0,0" transform="translate(66.319 220.517)" fill="none" stroke="#000" stroke-linecap="round" stroke-linejoin="round" stroke-width="2"/>
    <path id="Tracé_217" data-name="Tracé 217" d="M39.3,36.025,0,0" transform="translate(96.612 320.404)" fill="none" stroke="#000" stroke-linecap="round" stroke-linejoin="round" stroke-width="2"/>
    <path id="Tracé_218" data-name="Tracé 218" d="M3.275,0C8.19,6.64,13.766,12.986,13.938,21.734l-2.185,1.507L0,8.187" transform="translate(40.119 415.379)" fill="none" stroke="#000" stroke-linecap="round" stroke-linejoin="round" stroke-width="2"/>
    <path id="Tracé_219" data-name="Tracé 219" d="M34.388,4.542C24.657-2.794,14.36.371,4.092,2.9c-1.35.332-2.727.554-4.092.827" transform="translate(16.375 394.462)" fill="none" stroke="#000" stroke-linecap="round" stroke-linejoin="round" stroke-width="2"/>
    <path id="Tracé_220" data-name="Tracé 220" d="M32.75,32.75C25.646,19.594,14.421,10.238,3.234.868,2.458.219,1.092.273,0,0" transform="translate(122.812 304.848)" fill="none" stroke="#000" stroke-linecap="round" stroke-linejoin="round" stroke-width="2"/>
    <path id="Tracé_221" data-name="Tracé 221" d="M11.807,8.187,0,5.794Q.038,4.232.075,2.669L14.263,0" transform="translate(17.668 426.841)" fill="none" stroke="#000" stroke-linecap="round" stroke-linejoin="round" stroke-width="2"/>
    <path id="Tracé_222" data-name="Tracé 222" d="M52.415,18.36,36.061,0c-5.1,7.324-11.693,4.882-18.037,4.512C12.3,4.178,6.54,4.442,0,4.442c4.552,7.353,11.6,5.573,17.209,7.369" transform="translate(16.359 403.569)" fill="none" stroke="#000" stroke-linecap="round" stroke-linejoin="round" stroke-width="2"/>
    <path id="Tracé_223" data-name="Tracé 223" d="M0,3.275C1.911,2.456,3.775,1.083,5.74.92,12.268.379,18.831.273,25.381,0" transform="translate(17.194 364.617)" fill="none" stroke="#000" stroke-linecap="round" stroke-linejoin="round" stroke-width="2"/>
    <path id="Tracé_224" data-name="Tracé 224" d="M0,12.283c5.186-1.91,10.509-3.531,15.472-5.908C16.95,5.667,17.412,2.839,18.83,0l4.913,4.914" transform="translate(9.006 444.034)" fill="none" stroke="#000" stroke-linecap="round" stroke-linejoin="round" stroke-width="2"/>
    <path id="Tracé_225" data-name="Tracé 225" d="M25.381,8.187C18.041,1.986,8.82,1.616,0,0" transform="translate(21.287 399.004)" fill="none" stroke="#000" stroke-linecap="round" stroke-linejoin="round" stroke-width="2"/>
    <path id="Tracé_226" data-name="Tracé 226" d="M3.275,0,11.2,13.211,9.728,14.729a35.731,35.731,0,0,1-3.986-.84C4.109,13.357,2.548,12.609.87,11.919c-.32,2.546-.594,4.73-.87,6.913" transform="translate(31.931 426.841)" fill="none" stroke="#000" stroke-linecap="round" stroke-linejoin="round" stroke-width="2"/>
    <path id="Tracé_227" data-name="Tracé 227" d="M0,25.782c5.459-.546,10.945-.9,16.367-1.7,4.23-.621,8.381-1.787,13.453-2.907L47.929,38.467l2.266-.5c-.356-2.7.066-5.874-1.237-7.986a47.449,47.449,0,0,0-8.91-10.664C30.458,10.906,32.461,9.04,39.618,0c4.046,6.227,8.331,12.14,11.846,18.478,2.227,4.016,4.091,8.668.118,13.034" transform="translate(16.375 393.691)" fill="none" stroke="#000" stroke-linecap="round" stroke-linejoin="round" stroke-width="2"/>
    <path id="Tracé_228" data-name="Tracé 228" d="M0,25.381c6-6.55,12.176-12.959,17.872-19.768C19.019,4.242,16.655.627,20.469,0" transform="translate(0 436.666)" fill="none" stroke="#000" stroke-linecap="round" stroke-linejoin="round" stroke-width="2"/>
    <path id="Tracé_229" data-name="Tracé 229" d="M18.012,0c-.774,2.82-1.548,5.64-2.382,8.677L0,.819" transform="translate(19.65 418.654)" fill="none" stroke="#000" stroke-linecap="round" stroke-linejoin="round" stroke-width="2"/>
    <path id="Tracé_230" data-name="Tracé 230" d="M12.281,2.456,0,0" transform="translate(143.281 195.955)" fill="none" stroke="#000" stroke-linecap="round" stroke-linejoin="round" stroke-width="2"/>
    <path id="Tracé_231" data-name="Tracé 231" d="M8.187,3.275,0,0" transform="translate(131.818 227.067)" fill="none" stroke="#000" stroke-linecap="round" stroke-linejoin="round" stroke-width="2"/>
    <path id="Tracé_232" data-name="Tracé 232" d="M0,25.381,9.825,0" transform="translate(98.25 286.017)" fill="none" stroke="#000" stroke-linecap="round" stroke-linejoin="round" stroke-width="2"/>
    <path id="Tracé_233" data-name="Tracé 233" d="M6.55,5.731,0,0" transform="translate(107.256 291.748)" fill="none" stroke="#000" stroke-linecap="round" stroke-linejoin="round" stroke-width="2"/>
    <path id="Tracé_234" data-name="Tracé 234" d="M0,5.731Q.819,2.866,1.637,0" transform="translate(134.275 209.873)" fill="none" stroke="#000" stroke-linecap="round" stroke-linejoin="round" stroke-width="2"/>
    <path id="Tracé_235" data-name="Tracé 235" d="M0,12.281Q1.638,6.141,3.275,0" transform="translate(129.362 218.061)" fill="none" stroke="#000" stroke-linecap="round" stroke-linejoin="round" stroke-width="2"/>
    <path id="Tracé_236" data-name="Tracé 236" d="M0,15.556Q2.867,7.779,5.731,0" transform="translate(121.993 233.617)" fill="none" stroke="#000" stroke-linecap="round" stroke-linejoin="round" stroke-width="2"/>
    <path id="Tracé_237" data-name="Tracé 237" d="M8.187,2.456,0,0" transform="translate(111.35 247.536)" fill="none" stroke="#000" stroke-linecap="round" stroke-linejoin="round" stroke-width="2"/>
    <path id="Tracé_238" data-name="Tracé 238" d="M4.49,3.275A37.846,37.846,0,0,1,2.124,6.4c-3.236-2-2.372-4.22-.091-6.4" transform="translate(137.154 195.955)" fill="none" stroke="#000" stroke-linecap="round" stroke-linejoin="round" stroke-width="2"/>
    <path id="Tracé_239" data-name="Tracé 239" d="M0,2.456Q.41,1.228.819,0" transform="translate(44.212 410.466)" fill="none" stroke="#000" stroke-linecap="round" stroke-linejoin="round" stroke-width="2"/>
    <path id="Tracé_240" data-name="Tracé 240" d="M0,2.456Q.41,1.228.819,0" transform="translate(120.356 250.811)" fill="none" stroke="#000" stroke-linecap="round" stroke-linejoin="round" stroke-width="2"/>
  </g>
</svg>
